M48
INCH,LZ
;FILE_FORMAT=2:4
;TYPE=PLATED
;Layer: PTH_Through
;EasyEDA v6.5.51, 2026-04-04 21:27:14
;554b0817779a408d9c0fda9852d9eceb,22248b453a0342f8802807d087257acb,10
;Gerber Generator version 0.2
;Holesize 1 = 0.0120 inch
T01C0.0120
;Holesize 2 = 0.0200 inch
T02C0.0200
;Holesize 3 = 0.0220 inch
T03C0.0220
;Holesize 4 = 0.0590 inch
T04C0.0590
%
G05
G90
T01
X002400Y-004250
X001050Y-004250
X006350Y-001550
X006350Y-002450
X006350Y-000600
X000450Y-000450
X002550Y-000450
X004700Y-000450
X007900Y-000450
X009850Y-000450
X012150Y-000450
X014550Y-000450
X000450Y-007100
X002550Y-007100
X004700Y-007100
X007900Y-007100
X009850Y-007100
X012150Y-007100
X014550Y-007100
T02
X000541Y-002372G85X000797Y-002372
X000541Y-005128G85X000797Y-005128
T03
X001732Y-004675G85X001732Y-004793
X001732Y-002707G85X001732Y-002825
T04
X012750Y-004750
X012750Y-002750
M30
