G04 Layer: TopPasteMaskLayer*
G04 EasyEDA v6.5.51, 2026-04-04 21:27:14*
G04 554b0817779a408d9c0fda9852d9eceb,22248b453a0342f8802807d087257acb,10*
G04 Gerber Generator version 0.2*
G04 Scale: 100 percent, Rotated: No, Reflected: No *
G04 Dimensions in inches *
G04 leading zeros omitted , absolute positions ,3 integer and 6 decimal *
%FSLAX36Y36*%
%MOIN*%

%ADD10R,0.0213X0.0197*%
%ADD11R,0.0388X0.0236*%
%ADD12R,0.0394X0.0236*%
%ADD13R,0.0101X0.0236*%

%LPD*%
G36*
X454560Y-186960D02*
G01*
X453620Y-187900D01*
X453620Y-200859D01*
X454560Y-201820D01*
X465439Y-201820D01*
X466380Y-200859D01*
X466380Y-187900D01*
X465439Y-186960D01*
G37*
G36*
X454560Y-208180D02*
G01*
X453620Y-209140D01*
X453620Y-222100D01*
X454560Y-223039D01*
X465439Y-223039D01*
X466380Y-222100D01*
X466380Y-209140D01*
X465439Y-208180D01*
G37*
G36*
X809560Y-186960D02*
G01*
X808620Y-187900D01*
X808620Y-200859D01*
X809560Y-201820D01*
X820440Y-201820D01*
X821380Y-200859D01*
X821380Y-187900D01*
X820440Y-186960D01*
G37*
G36*
X809560Y-208180D02*
G01*
X808620Y-209140D01*
X808620Y-222100D01*
X809560Y-223039D01*
X820440Y-223039D01*
X821380Y-222100D01*
X821380Y-209140D01*
X820440Y-208180D01*
G37*
G36*
X59040Y-109360D02*
G01*
X57460Y-110940D01*
X57460Y-129060D01*
X59040Y-130640D01*
X81820Y-130640D01*
X83379Y-129060D01*
X83379Y-110940D01*
X81820Y-109360D01*
G37*
G36*
X98180Y-109360D02*
G01*
X96620Y-110940D01*
X96620Y-129060D01*
X98180Y-130640D01*
X120960Y-130640D01*
X122540Y-129060D01*
X122540Y-110940D01*
X120960Y-109360D01*
G37*
G36*
X1373180Y-79360D02*
G01*
X1371620Y-80940D01*
X1371620Y-99060D01*
X1373180Y-100640D01*
X1395960Y-100640D01*
X1397540Y-99060D01*
X1397540Y-80940D01*
X1395960Y-79360D01*
G37*
G36*
X1334040Y-79360D02*
G01*
X1332460Y-80940D01*
X1332460Y-99060D01*
X1334040Y-100640D01*
X1356819Y-100640D01*
X1358380Y-99060D01*
X1358380Y-80940D01*
X1356819Y-79360D01*
G37*
G36*
X189140Y-113620D02*
G01*
X188180Y-114560D01*
X188180Y-125440D01*
X189140Y-126380D01*
X199540Y-126380D01*
X200479Y-125440D01*
X200479Y-114560D01*
X199540Y-113620D01*
G37*
G36*
X170460Y-113620D02*
G01*
X169520Y-114560D01*
X169520Y-125440D01*
X170460Y-126380D01*
X180859Y-126380D01*
X181820Y-125440D01*
X181820Y-114560D01*
X180859Y-113620D01*
G37*
G36*
X1150460Y-83620D02*
G01*
X1149520Y-84560D01*
X1149520Y-95440D01*
X1150460Y-96380D01*
X1160860Y-96380D01*
X1161820Y-95440D01*
X1161820Y-84560D01*
X1160860Y-83620D01*
G37*
G36*
X1169140Y-83620D02*
G01*
X1168180Y-84560D01*
X1168180Y-95440D01*
X1169140Y-96380D01*
X1179540Y-96380D01*
X1180480Y-95440D01*
X1180480Y-84560D01*
X1179540Y-83620D01*
G37*
G36*
X56020Y-217520D02*
G01*
X54060Y-217620D01*
X52120Y-217920D01*
X50220Y-218400D01*
X48380Y-219060D01*
X46600Y-219920D01*
X44940Y-220940D01*
X43360Y-222120D01*
X41940Y-223460D01*
X40640Y-224940D01*
X39480Y-226520D01*
X38500Y-228220D01*
X37700Y-230020D01*
X37080Y-231880D01*
X36640Y-233780D01*
X36400Y-235740D01*
X36340Y-237700D01*
X36500Y-239660D01*
X36840Y-241580D01*
X37360Y-243480D01*
X38080Y-245300D01*
X38980Y-247040D01*
X40039Y-248700D01*
X41260Y-250240D01*
X42640Y-251640D01*
X44140Y-252900D01*
X45759Y-254000D01*
X47480Y-254940D01*
X49300Y-255700D01*
X51160Y-256280D01*
X53080Y-256660D01*
X55039Y-256860D01*
X77680Y-256880D01*
X79640Y-256800D01*
X81580Y-256500D01*
X83480Y-256020D01*
X85320Y-255340D01*
X87100Y-254500D01*
X88760Y-253480D01*
X90320Y-252280D01*
X91760Y-250940D01*
X93059Y-249480D01*
X94220Y-247880D01*
X95200Y-246180D01*
X96000Y-244400D01*
X96620Y-242540D01*
X97060Y-240620D01*
X97300Y-238680D01*
X97360Y-236720D01*
X97200Y-234760D01*
X96860Y-232820D01*
X96340Y-230940D01*
X95620Y-229100D01*
X94720Y-227360D01*
X93660Y-225720D01*
X92440Y-224180D01*
X91060Y-222780D01*
X89560Y-221520D01*
X87940Y-220400D01*
X86220Y-219460D01*
X84400Y-218700D01*
X82540Y-218120D01*
X80620Y-217740D01*
X78660Y-217540D01*
G37*
G36*
X56020Y-493120D02*
G01*
X54060Y-493200D01*
X52120Y-493500D01*
X50220Y-493980D01*
X48380Y-494660D01*
X46600Y-495500D01*
X44940Y-496520D01*
X43360Y-497720D01*
X41940Y-499060D01*
X40640Y-500520D01*
X39480Y-502120D01*
X38500Y-503820D01*
X37700Y-505600D01*
X37080Y-507460D01*
X36640Y-509380D01*
X36400Y-511320D01*
X36340Y-513280D01*
X36500Y-515240D01*
X36840Y-517180D01*
X37360Y-519060D01*
X38080Y-520900D01*
X38980Y-522640D01*
X40039Y-524280D01*
X41260Y-525820D01*
X42640Y-527220D01*
X44140Y-528480D01*
X45759Y-529600D01*
X47480Y-530540D01*
X49300Y-531300D01*
X51160Y-531880D01*
X53080Y-532260D01*
X55039Y-532460D01*
X77680Y-532480D01*
X79640Y-532380D01*
X81580Y-532080D01*
X83480Y-531600D01*
X85320Y-530940D01*
X87100Y-530080D01*
X88760Y-529060D01*
X90320Y-527880D01*
X91760Y-526540D01*
X93059Y-525060D01*
X94220Y-523480D01*
X95200Y-521780D01*
X96000Y-519980D01*
X96620Y-518120D01*
X97060Y-516220D01*
X97300Y-514260D01*
X97360Y-512299D01*
X97200Y-510340D01*
X96860Y-508420D01*
X96340Y-506520D01*
X95620Y-504700D01*
X94720Y-502960D01*
X93660Y-501300D01*
X92440Y-499760D01*
X91060Y-498360D01*
X89560Y-497100D01*
X87940Y-496000D01*
X86220Y-495060D01*
X84400Y-494300D01*
X82540Y-493720D01*
X80620Y-493340D01*
X78660Y-493140D01*
G37*
G36*
X172680Y-251980D02*
G01*
X170820Y-252120D01*
X168980Y-252440D01*
X167200Y-252940D01*
X165460Y-253619D01*
X163800Y-254480D01*
X162240Y-255479D01*
X160780Y-256640D01*
X159440Y-257940D01*
X158240Y-259380D01*
X157200Y-260920D01*
X156300Y-262560D01*
X155580Y-264280D01*
X155020Y-266060D01*
X154660Y-267880D01*
X154480Y-269740D01*
X154440Y-282480D01*
X154540Y-284340D01*
X154820Y-286180D01*
X155280Y-288000D01*
X155920Y-289740D01*
X156720Y-291420D01*
X157700Y-293020D01*
X158820Y-294500D01*
X160100Y-295860D01*
X161480Y-297100D01*
X163000Y-298180D01*
X164620Y-299120D01*
X166320Y-299880D01*
X168080Y-300480D01*
X169899Y-300900D01*
X171759Y-301120D01*
X173619Y-301180D01*
X175479Y-301040D01*
X177320Y-300720D01*
X179100Y-300200D01*
X180840Y-299520D01*
X182500Y-298680D01*
X184060Y-297660D01*
X185520Y-296500D01*
X186860Y-295200D01*
X188060Y-293780D01*
X189100Y-292240D01*
X190000Y-290600D01*
X190720Y-288880D01*
X191280Y-287100D01*
X191640Y-285260D01*
X191820Y-283420D01*
X191860Y-270660D01*
X191759Y-268800D01*
X191480Y-266960D01*
X191020Y-265160D01*
X190380Y-263400D01*
X189579Y-261720D01*
X188600Y-260140D01*
X187480Y-258640D01*
X186200Y-257280D01*
X184820Y-256040D01*
X183299Y-254960D01*
X181680Y-254020D01*
X179980Y-253260D01*
X178220Y-252659D01*
X176400Y-252260D01*
X174540Y-252020D01*
G37*
G36*
X172680Y-448820D02*
G01*
X170820Y-448960D01*
X168980Y-449280D01*
X167200Y-449799D01*
X165460Y-450480D01*
X163800Y-451320D01*
X162240Y-452340D01*
X160780Y-453500D01*
X159440Y-454799D01*
X158240Y-456220D01*
X157200Y-457760D01*
X156300Y-459400D01*
X155580Y-461120D01*
X155020Y-462900D01*
X154660Y-464739D01*
X154480Y-466580D01*
X154440Y-479340D01*
X154540Y-481200D01*
X154820Y-483040D01*
X155280Y-484840D01*
X155920Y-486599D01*
X156720Y-488280D01*
X157700Y-489860D01*
X158820Y-491360D01*
X160100Y-492720D01*
X161480Y-493960D01*
X163000Y-495040D01*
X164620Y-495980D01*
X166320Y-496740D01*
X168080Y-497340D01*
X169899Y-497740D01*
X171759Y-497980D01*
X173619Y-498020D01*
X175479Y-497879D01*
X177320Y-497560D01*
X179100Y-497060D01*
X180840Y-496380D01*
X182500Y-495520D01*
X184060Y-494520D01*
X185520Y-493360D01*
X186860Y-492060D01*
X188060Y-490620D01*
X189100Y-489080D01*
X190000Y-487440D01*
X190720Y-485720D01*
X191280Y-483940D01*
X191640Y-482120D01*
X191820Y-480260D01*
X191860Y-467520D01*
X191759Y-465660D01*
X191480Y-463820D01*
X191020Y-462000D01*
X190380Y-460260D01*
X189579Y-458579D01*
X188600Y-456980D01*
X187480Y-455500D01*
X186200Y-454140D01*
X184820Y-452900D01*
X183299Y-451820D01*
X181680Y-450880D01*
X179980Y-450120D01*
X178220Y-449520D01*
X176400Y-449099D01*
X174540Y-448880D01*
G37*
G36*
X146540Y-315900D02*
G01*
X146540Y-331700D01*
X199740Y-331700D01*
X199740Y-315900D01*
G37*
G36*
X146540Y-341500D02*
G01*
X146540Y-357299D01*
X199740Y-357299D01*
X199740Y-341500D01*
G37*
G36*
X146560Y-367100D02*
G01*
X146560Y-382900D01*
X199740Y-382900D01*
X199740Y-367100D01*
G37*
G36*
X146560Y-392700D02*
G01*
X146560Y-408500D01*
X199740Y-408500D01*
X199740Y-392700D01*
G37*
G36*
X146540Y-418300D02*
G01*
X146540Y-434099D01*
X199740Y-434099D01*
X199740Y-418300D01*
G37*
D10*
G01*
X515000Y-193460D03*
G01*
X515000Y-226539D03*
G01*
X755000Y-193460D03*
G01*
X755000Y-226539D03*
D11*
G01*
X330999Y-120000D03*
G01*
X419000Y-120000D03*
D12*
G01*
X586693Y-154994D03*
G01*
X586693Y-192395D03*
G01*
X586693Y-117604D03*
G01*
X673312Y-192404D03*
G01*
X673312Y-117595D03*
M02*
