G04 Layer: TopSilkscreenLayer*
G04 EasyEDA v6.5.51, 2026-04-04 21:27:14*
G04 554b0817779a408d9c0fda9852d9eceb,22248b453a0342f8802807d087257acb,10*
G04 Gerber Generator version 0.2*
G04 Scale: 100 percent, Rotated: No, Reflected: No *
G04 Dimensions in inches *
G04 leading zeros omitted , absolute positions ,3 integer and 6 decimal *
%FSLAX36Y36*%
%MOIN*%

%ADD10C,0.0080*%
%ADD11C,0.0060*%
%ADD12C,0.0060*%
%ADD13C,0.0100*%
%ADD14C,0.0039*%
%ADD15C,0.0030*%
%ADD16C,0.0118*%
%ADD17C,0.0121*%

%LPD*%
D10*
X180000Y-609499D02*
G01*
X180000Y-666700D01*
X180000Y-609499D02*
G01*
X204499Y-609499D01*
X212699Y-612199D01*
X215500Y-614899D01*
X218200Y-620399D01*
X218200Y-625799D01*
X215500Y-631300D01*
X212699Y-634000D01*
X204499Y-636700D01*
X180000Y-636700D01*
X199099Y-636700D02*
G01*
X218200Y-666700D01*
X236199Y-609499D02*
G01*
X236199Y-666700D01*
X236199Y-609499D02*
G01*
X260700Y-609499D01*
X268899Y-612199D01*
X271599Y-614899D01*
X274400Y-620399D01*
X274400Y-628499D01*
X271599Y-634000D01*
X268899Y-636700D01*
X260700Y-639499D01*
X236199Y-639499D01*
X292399Y-609499D02*
G01*
X292399Y-666700D01*
X352399Y-609499D02*
G01*
X352399Y-666700D01*
X352399Y-609499D02*
G01*
X376900Y-609499D01*
X385100Y-612199D01*
X387800Y-614899D01*
X390500Y-620399D01*
X390500Y-628499D01*
X387800Y-634000D01*
X385100Y-636700D01*
X376900Y-639499D01*
X352399Y-639499D01*
X408499Y-609499D02*
G01*
X411300Y-612199D01*
X414000Y-609499D01*
X411300Y-606700D01*
X408499Y-609499D01*
X411300Y-628499D02*
G01*
X411300Y-666700D01*
X464699Y-636700D02*
G01*
X459299Y-631300D01*
X453800Y-628499D01*
X445599Y-628499D01*
X440199Y-631300D01*
X434699Y-636700D01*
X431999Y-644899D01*
X431999Y-650399D01*
X434699Y-658499D01*
X440199Y-664000D01*
X445599Y-666700D01*
X453800Y-666700D01*
X459299Y-664000D01*
X464699Y-658499D01*
X496399Y-628499D02*
G01*
X490900Y-631300D01*
X485500Y-636700D01*
X482699Y-644899D01*
X482699Y-650399D01*
X485500Y-658499D01*
X490900Y-664000D01*
X496399Y-666700D01*
X504499Y-666700D01*
X510000Y-664000D01*
X515500Y-658499D01*
X518200Y-650399D01*
X518200Y-644899D01*
X515500Y-636700D01*
X510000Y-631300D01*
X504499Y-628499D01*
X496399Y-628499D01*
X578200Y-609499D02*
G01*
X578200Y-666700D01*
X578200Y-609499D02*
G01*
X602699Y-609499D01*
X610900Y-612199D01*
X613600Y-614899D01*
X616399Y-620399D01*
X616399Y-628499D01*
X613600Y-634000D01*
X610900Y-636700D01*
X602699Y-639499D01*
X578200Y-639499D01*
X648000Y-628499D02*
G01*
X642500Y-631300D01*
X637100Y-636700D01*
X634400Y-644899D01*
X634400Y-650399D01*
X637100Y-658499D01*
X642500Y-664000D01*
X648000Y-666700D01*
X656199Y-666700D01*
X661599Y-664000D01*
X667100Y-658499D01*
X669800Y-650399D01*
X669800Y-644899D01*
X667100Y-636700D01*
X661599Y-631300D01*
X656199Y-628499D01*
X648000Y-628499D01*
X687800Y-628499D02*
G01*
X698699Y-666700D01*
X709600Y-628499D02*
G01*
X698699Y-666700D01*
X709600Y-628499D02*
G01*
X720500Y-666700D01*
X731500Y-628499D02*
G01*
X720500Y-666700D01*
X749499Y-644899D02*
G01*
X782200Y-644899D01*
X782200Y-639499D01*
X779499Y-634000D01*
X776700Y-631300D01*
X771300Y-628499D01*
X763100Y-628499D01*
X757600Y-631300D01*
X752199Y-636700D01*
X749499Y-644899D01*
X749499Y-650399D01*
X752199Y-658499D01*
X757600Y-664000D01*
X763100Y-666700D01*
X771300Y-666700D01*
X776700Y-664000D01*
X782200Y-658499D01*
X800200Y-628499D02*
G01*
X800200Y-666700D01*
X800200Y-644899D02*
G01*
X802899Y-636700D01*
X808400Y-631300D01*
X813800Y-628499D01*
X821999Y-628499D01*
X914700Y-609499D02*
G01*
X887500Y-609499D01*
X884700Y-634000D01*
X887500Y-631300D01*
X895600Y-628499D01*
X903800Y-628499D01*
X911999Y-631300D01*
X917500Y-636700D01*
X920200Y-644899D01*
X920200Y-650399D01*
X917500Y-658499D01*
X911999Y-664000D01*
X903800Y-666700D01*
X895600Y-666700D01*
X887500Y-664000D01*
X884700Y-661300D01*
X881999Y-655799D01*
X988400Y-609499D02*
G01*
X988400Y-655799D01*
X991099Y-664000D01*
X996499Y-666700D01*
X1001999Y-666700D01*
X980200Y-628499D02*
G01*
X999300Y-628499D01*
X1033599Y-628499D02*
G01*
X1028199Y-631300D01*
X1022700Y-636700D01*
X1020000Y-644899D01*
X1020000Y-650399D01*
X1022700Y-658499D01*
X1028199Y-664000D01*
X1033599Y-666700D01*
X1041800Y-666700D01*
X1047299Y-664000D01*
X1052700Y-658499D01*
X1055500Y-650399D01*
X1055500Y-644899D01*
X1052700Y-636700D01*
X1047299Y-631300D01*
X1041800Y-628499D01*
X1033599Y-628499D01*
X1120900Y-609499D02*
G01*
X1150900Y-609499D01*
X1134499Y-631300D01*
X1142700Y-631300D01*
X1148199Y-634000D01*
X1150900Y-636700D01*
X1153599Y-644899D01*
X1153599Y-650399D01*
X1150900Y-658499D01*
X1145500Y-664000D01*
X1137299Y-666700D01*
X1129099Y-666700D01*
X1120900Y-664000D01*
X1118199Y-661300D01*
X1115500Y-655799D01*
X1174399Y-653099D02*
G01*
X1171599Y-655799D01*
X1174399Y-658499D01*
X1177100Y-655799D01*
X1174399Y-653099D01*
X1200500Y-609499D02*
G01*
X1230500Y-609499D01*
X1214200Y-631300D01*
X1222399Y-631300D01*
X1227799Y-634000D01*
X1230500Y-636700D01*
X1233299Y-644899D01*
X1233299Y-650399D01*
X1230500Y-658499D01*
X1225100Y-664000D01*
X1216899Y-666700D01*
X1208699Y-666700D01*
X1200500Y-664000D01*
X1197799Y-661300D01*
X1195100Y-655799D01*
X1251300Y-609499D02*
G01*
X1273100Y-666700D01*
X1294899Y-609499D02*
G01*
X1273100Y-666700D01*
X1022399Y-287300D02*
G01*
X1026000Y-290900D01*
X1031499Y-294499D01*
X1038699Y-298200D01*
X1047799Y-300000D01*
X1055100Y-300000D01*
X1064200Y-298200D01*
X1071499Y-294499D01*
X1076899Y-290900D01*
X1080500Y-287300D01*
X1051499Y-275300D02*
G01*
X1051499Y-242500D01*
X1022399Y-230500D02*
G01*
X1026000Y-226900D01*
X1031499Y-223299D01*
X1038699Y-219600D01*
X1047799Y-217800D01*
X1055100Y-217800D01*
X1064200Y-219600D01*
X1071499Y-223299D01*
X1076899Y-226900D01*
X1080500Y-230500D01*
X1022399Y-502300D02*
G01*
X1026000Y-505900D01*
X1031499Y-509499D01*
X1038699Y-513200D01*
X1047799Y-515000D01*
X1055100Y-515000D01*
X1064200Y-513200D01*
X1071499Y-509499D01*
X1076899Y-505900D01*
X1080500Y-502300D01*
X1035100Y-473899D02*
G01*
X1067799Y-473899D01*
X1051499Y-490300D02*
G01*
X1051499Y-457500D01*
X1022399Y-445500D02*
G01*
X1026000Y-441900D01*
X1031499Y-438299D01*
X1038699Y-434600D01*
X1047799Y-432800D01*
X1055100Y-432800D01*
X1064200Y-434600D01*
X1071499Y-438299D01*
X1076899Y-441900D01*
X1080500Y-445500D01*
X934600Y-471399D02*
G01*
X934600Y-451399D01*
X949200Y-462300D01*
X949200Y-456799D01*
X951000Y-453200D01*
X952799Y-451399D01*
X958299Y-449499D01*
X961899Y-449499D01*
X967399Y-451399D01*
X971000Y-455000D01*
X972799Y-460500D01*
X972799Y-465900D01*
X971000Y-471399D01*
X969200Y-473200D01*
X965500Y-475000D01*
X963699Y-435700D02*
G01*
X965500Y-437500D01*
X967399Y-435700D01*
X965500Y-433899D01*
X963699Y-435700D01*
X934600Y-418299D02*
G01*
X934600Y-398299D01*
X949200Y-409200D01*
X949200Y-403699D01*
X951000Y-400100D01*
X952799Y-398299D01*
X958299Y-396500D01*
X961899Y-396500D01*
X967399Y-398299D01*
X971000Y-401900D01*
X972799Y-407399D01*
X972799Y-412800D01*
X971000Y-418299D01*
X969200Y-420100D01*
X965500Y-421900D01*
X934600Y-384499D02*
G01*
X972799Y-369899D01*
X934600Y-355399D02*
G01*
X972799Y-369899D01*
X934600Y-304499D02*
G01*
X936499Y-308099D01*
X940100Y-311700D01*
X943699Y-313499D01*
X949200Y-315399D01*
X958299Y-315399D01*
X963699Y-313499D01*
X967399Y-311700D01*
X971000Y-308099D01*
X972799Y-304499D01*
X972799Y-297199D01*
X971000Y-293499D01*
X967399Y-289899D01*
X963699Y-288099D01*
X958299Y-286300D01*
X949200Y-286300D01*
X943699Y-288099D01*
X940100Y-289899D01*
X936499Y-293499D01*
X934600Y-297199D01*
X934600Y-304499D01*
X947399Y-274299D02*
G01*
X965500Y-274299D01*
X971000Y-272500D01*
X972799Y-268800D01*
X972799Y-263400D01*
X971000Y-259699D01*
X965500Y-254299D01*
X947399Y-254299D02*
G01*
X972799Y-254299D01*
X934600Y-236799D02*
G01*
X965500Y-236799D01*
X971000Y-235000D01*
X972799Y-231399D01*
X972799Y-227699D01*
X947399Y-242300D02*
G01*
X947399Y-229499D01*
X340399Y-275000D02*
G01*
X313099Y-275000D01*
X307600Y-276799D01*
X304000Y-280500D01*
X302199Y-285900D01*
X302199Y-289499D01*
X304000Y-295000D01*
X307600Y-298600D01*
X313099Y-300500D01*
X340399Y-300500D01*
X334899Y-337899D02*
G01*
X338499Y-334299D01*
X340399Y-328800D01*
X340399Y-321500D01*
X338499Y-316100D01*
X334899Y-312500D01*
X331300Y-312500D01*
X327600Y-314299D01*
X325799Y-316100D01*
X324000Y-319699D01*
X320399Y-330599D01*
X318499Y-334299D01*
X316700Y-336100D01*
X313099Y-337899D01*
X307600Y-337899D01*
X304000Y-334299D01*
X302199Y-328800D01*
X302199Y-321500D01*
X304000Y-316100D01*
X307600Y-312500D01*
X340399Y-349899D02*
G01*
X302199Y-349899D01*
X340399Y-349899D02*
G01*
X340399Y-366300D01*
X338499Y-371700D01*
X336700Y-373499D01*
X333099Y-375399D01*
X329499Y-375399D01*
X325799Y-373499D01*
X324000Y-371700D01*
X322199Y-366300D01*
X322199Y-349899D02*
G01*
X322199Y-366300D01*
X320399Y-371700D01*
X318499Y-373499D01*
X314899Y-375399D01*
X309499Y-375399D01*
X305799Y-373499D01*
X304000Y-371700D01*
X302199Y-366300D01*
X302199Y-349899D01*
X340399Y-437199D02*
G01*
X340399Y-419000D01*
X324000Y-417199D01*
X325799Y-419000D01*
X327600Y-424499D01*
X327600Y-429899D01*
X325799Y-435399D01*
X322199Y-439000D01*
X316700Y-440799D01*
X313099Y-440799D01*
X307600Y-439000D01*
X304000Y-435399D01*
X302199Y-429899D01*
X302199Y-424499D01*
X304000Y-419000D01*
X305799Y-417199D01*
X309499Y-415399D01*
X340399Y-452800D02*
G01*
X302199Y-467399D01*
X340399Y-481900D02*
G01*
X302199Y-467399D01*
D11*
X523903Y-267649D02*
G01*
X522303Y-264450D01*
X519103Y-261250D01*
X515902Y-259650D01*
X509502Y-259650D01*
X506403Y-261250D01*
X503202Y-264450D01*
X501603Y-267649D01*
X500003Y-272449D01*
X500003Y-280349D01*
X501603Y-285149D01*
X503202Y-288350D01*
X506403Y-291550D01*
X509502Y-293049D01*
X515902Y-293049D01*
X519103Y-291550D01*
X522303Y-288350D01*
X523903Y-285149D01*
X534403Y-266050D02*
G01*
X537503Y-264450D01*
X542303Y-259650D01*
X542303Y-293049D01*
X748903Y-267649D02*
G01*
X747303Y-264450D01*
X744103Y-261250D01*
X740902Y-259650D01*
X734502Y-259650D01*
X731403Y-261250D01*
X728202Y-264450D01*
X726603Y-267649D01*
X725003Y-272449D01*
X725003Y-280349D01*
X726603Y-285149D01*
X728202Y-288350D01*
X731403Y-291550D01*
X734502Y-293049D01*
X740902Y-293049D01*
X744103Y-291550D01*
X747303Y-288350D01*
X748903Y-285149D01*
X762502Y-259650D02*
G01*
X780002Y-259650D01*
X770502Y-272449D01*
X775303Y-272449D01*
X778503Y-274050D01*
X780002Y-275549D01*
X781602Y-280349D01*
X781602Y-283550D01*
X780002Y-288350D01*
X776903Y-291550D01*
X772102Y-293049D01*
X767303Y-293049D01*
X762502Y-291550D01*
X761003Y-289949D01*
X759403Y-286750D01*
X443856Y-267649D02*
G01*
X442256Y-264450D01*
X439056Y-261250D01*
X435956Y-259650D01*
X429556Y-259650D01*
X426356Y-261250D01*
X423157Y-264450D01*
X421556Y-267649D01*
X419956Y-272449D01*
X419956Y-280349D01*
X421556Y-285149D01*
X423157Y-288350D01*
X426356Y-291550D01*
X429556Y-293049D01*
X435956Y-293049D01*
X439056Y-291550D01*
X442256Y-288350D01*
X443856Y-285149D01*
X455956Y-267649D02*
G01*
X455956Y-266050D01*
X457557Y-262849D01*
X459157Y-261250D01*
X462357Y-259650D01*
X468656Y-259650D01*
X471857Y-261250D01*
X473456Y-262849D01*
X475057Y-266050D01*
X475057Y-269250D01*
X473456Y-272449D01*
X470257Y-277150D01*
X454357Y-293049D01*
X476657Y-293049D01*
X823856Y-267649D02*
G01*
X822256Y-264450D01*
X819057Y-261250D01*
X815956Y-259650D01*
X809557Y-259650D01*
X806356Y-261250D01*
X803157Y-264450D01*
X801557Y-267649D01*
X799957Y-272449D01*
X799957Y-280349D01*
X801557Y-285149D01*
X803157Y-288350D01*
X806356Y-291550D01*
X809557Y-293049D01*
X815956Y-293049D01*
X819057Y-291550D01*
X822256Y-288350D01*
X823856Y-285149D01*
X850257Y-259650D02*
G01*
X834357Y-281950D01*
X858257Y-281950D01*
X850257Y-259650D02*
G01*
X850257Y-293049D01*
X354994Y-39650D02*
G01*
X354994Y-73049D01*
X354994Y-39650D02*
G01*
X366093Y-39650D01*
X370893Y-41250D01*
X374094Y-44450D01*
X375693Y-47649D01*
X377294Y-52449D01*
X377294Y-60349D01*
X375693Y-65149D01*
X374094Y-68350D01*
X370893Y-71550D01*
X366093Y-73049D01*
X354994Y-73049D01*
X387793Y-46050D02*
G01*
X390994Y-44450D01*
X395693Y-39650D01*
X395693Y-73049D01*
X65000Y-44699D02*
G01*
X65000Y-78099D01*
X65000Y-78099D02*
G01*
X84099Y-78099D01*
X94600Y-44699D02*
G01*
X94600Y-78099D01*
X94600Y-44699D02*
G01*
X115300Y-44699D01*
X94600Y-60599D02*
G01*
X107300Y-60599D01*
X94600Y-78099D02*
G01*
X115300Y-78099D01*
X125799Y-44699D02*
G01*
X125799Y-78099D01*
X125799Y-44699D02*
G01*
X136900Y-44699D01*
X141700Y-46300D01*
X144899Y-49499D01*
X146500Y-52600D01*
X148000Y-57399D01*
X148000Y-65399D01*
X146500Y-70100D01*
X144899Y-73299D01*
X141700Y-76500D01*
X136900Y-78099D01*
X125799Y-78099D01*
X158499Y-50999D02*
G01*
X161700Y-49499D01*
X166500Y-44699D01*
X166500Y-78099D01*
X1314985Y-24650D02*
G01*
X1314985Y-58049D01*
X1314985Y-58049D02*
G01*
X1334085Y-58049D01*
X1344585Y-24650D02*
G01*
X1344585Y-58049D01*
X1344585Y-24650D02*
G01*
X1365285Y-24650D01*
X1344585Y-40549D02*
G01*
X1357286Y-40549D01*
X1344585Y-58049D02*
G01*
X1365285Y-58049D01*
X1375785Y-24650D02*
G01*
X1375785Y-58049D01*
X1375785Y-24650D02*
G01*
X1386886Y-24650D01*
X1391685Y-26250D01*
X1394885Y-29450D01*
X1396486Y-32649D01*
X1398086Y-37449D01*
X1398086Y-45349D01*
X1396486Y-50149D01*
X1394885Y-53350D01*
X1391685Y-56550D01*
X1386886Y-58049D01*
X1375785Y-58049D01*
X1410186Y-32649D02*
G01*
X1410186Y-31050D01*
X1411685Y-27849D01*
X1413285Y-26250D01*
X1416486Y-24650D01*
X1422885Y-24650D01*
X1426085Y-26250D01*
X1427686Y-27849D01*
X1429185Y-31050D01*
X1429185Y-34250D01*
X1427686Y-37449D01*
X1424485Y-42150D01*
X1408585Y-58049D01*
X1430785Y-58049D01*
X190000Y-44699D02*
G01*
X190000Y-78099D01*
X190000Y-44699D02*
G01*
X204299Y-44699D01*
X209099Y-46300D01*
X210700Y-47899D01*
X212300Y-50999D01*
X212300Y-54200D01*
X210700Y-57399D01*
X209099Y-59000D01*
X204299Y-60599D01*
X190000Y-60599D01*
X201100Y-60599D02*
G01*
X212300Y-78099D01*
X222800Y-50999D02*
G01*
X225999Y-49499D01*
X230700Y-44699D01*
X230700Y-78099D01*
X1140027Y-24650D02*
G01*
X1140027Y-58049D01*
X1140027Y-24650D02*
G01*
X1154327Y-24650D01*
X1159126Y-26250D01*
X1160726Y-27849D01*
X1162227Y-31050D01*
X1162227Y-34250D01*
X1160726Y-37449D01*
X1159126Y-39050D01*
X1154327Y-40549D01*
X1140027Y-40549D01*
X1151126Y-40549D02*
G01*
X1162227Y-58049D01*
X1188726Y-24650D02*
G01*
X1172727Y-46950D01*
X1196626Y-46950D01*
X1188726Y-24650D02*
G01*
X1188726Y-58049D01*
X575023Y-39634D02*
G01*
X575023Y-63535D01*
X576622Y-68335D01*
X579722Y-71534D01*
X584522Y-73135D01*
X587723Y-73135D01*
X592523Y-71534D01*
X595722Y-68335D01*
X597222Y-63535D01*
X597222Y-39634D01*
X607723Y-46035D02*
G01*
X610922Y-44434D01*
X615722Y-39634D01*
X615722Y-73135D01*
X54704Y-424949D02*
G01*
X78505Y-424949D01*
X83305Y-423449D01*
X86505Y-420250D01*
X88105Y-415450D01*
X88105Y-412249D01*
X86505Y-407449D01*
X83305Y-404349D01*
X78505Y-402750D01*
X54704Y-402750D01*
X59405Y-369949D02*
G01*
X56305Y-373150D01*
X54704Y-377950D01*
X54704Y-384250D01*
X56305Y-389050D01*
X59405Y-392249D01*
X62604Y-392249D01*
X65805Y-390650D01*
X67404Y-389050D01*
X69005Y-385850D01*
X72204Y-376350D01*
X73805Y-373150D01*
X75405Y-371550D01*
X78505Y-369949D01*
X83305Y-369949D01*
X86505Y-373150D01*
X88105Y-377950D01*
X88105Y-384250D01*
X86505Y-389050D01*
X83305Y-392249D01*
X54704Y-359450D02*
G01*
X88105Y-359450D01*
X54704Y-359450D02*
G01*
X54704Y-345149D01*
X56305Y-340349D01*
X57905Y-338750D01*
X61005Y-337150D01*
X64205Y-337150D01*
X67404Y-338750D01*
X69005Y-340349D01*
X70605Y-345149D01*
X70605Y-359450D02*
G01*
X70605Y-345149D01*
X72204Y-340349D01*
X73805Y-338750D01*
X76905Y-337150D01*
X81705Y-337150D01*
X84904Y-338750D01*
X86505Y-340349D01*
X88105Y-345149D01*
X88105Y-359450D01*
X61005Y-326649D02*
G01*
X59405Y-323449D01*
X54704Y-318750D01*
X88105Y-318750D01*
X1290299Y-356100D02*
G01*
X1256899Y-356100D01*
X1290299Y-345000D02*
G01*
X1290299Y-367300D01*
X1283999Y-377800D02*
G01*
X1285500Y-380999D01*
X1290299Y-385700D01*
X1256899Y-385700D01*
G36*
X35280Y-106380D02*
G01*
X35280Y-133620D01*
X41280Y-133620D01*
X41280Y-106380D01*
G37*
G36*
X1413720Y-76380D02*
G01*
X1413720Y-103620D01*
X1419720Y-103620D01*
X1419720Y-76380D01*
G37*
X495412Y-238400D02*
G01*
X495412Y-218715D01*
X528670Y-244402D02*
G01*
X501410Y-244402D01*
X534670Y-218715D02*
G01*
X534670Y-238400D01*
X534587Y-181599D02*
G01*
X534587Y-201284D01*
X495329Y-201284D02*
G01*
X495329Y-181599D01*
X501327Y-175597D02*
G01*
X528589Y-175597D01*
X735412Y-238400D02*
G01*
X735412Y-218715D01*
X768671Y-244402D02*
G01*
X741410Y-244402D01*
X774670Y-218715D02*
G01*
X774670Y-238400D01*
X774587Y-181599D02*
G01*
X774587Y-201284D01*
X735329Y-201284D02*
G01*
X735329Y-181599D01*
X741327Y-175597D02*
G01*
X768589Y-175597D01*
X444621Y-183951D02*
G01*
X444621Y-198456D01*
X475378Y-198456D02*
G01*
X475378Y-183951D01*
X469378Y-177950D02*
G01*
X450621Y-177950D01*
X444621Y-226048D02*
G01*
X444621Y-211543D01*
X475378Y-211543D02*
G01*
X475378Y-226048D01*
X469378Y-232049D02*
G01*
X450621Y-232049D01*
X799621Y-183951D02*
G01*
X799621Y-198456D01*
X830378Y-198456D02*
G01*
X830378Y-183951D01*
X824377Y-177950D02*
G01*
X805622Y-177950D01*
X799621Y-226048D02*
G01*
X799621Y-211543D01*
X830378Y-211543D02*
G01*
X830378Y-226048D01*
X824377Y-232049D02*
G01*
X805622Y-232049D01*
D12*
X410480Y-138903D02*
G01*
X420275Y-138903D01*
X410480Y-138903D02*
G01*
X410480Y-148591D01*
X410480Y-101096D02*
G01*
X420279Y-101096D01*
X410480Y-101096D02*
G01*
X410480Y-91408D01*
X414706Y-101096D02*
G01*
X414706Y-91399D01*
X414706Y-148591D02*
G01*
X414706Y-138903D01*
X420279Y-101100D02*
G01*
X420279Y-91399D01*
X410479Y-91399D01*
X410480Y-148591D02*
G01*
X420275Y-148591D01*
X420275Y-138903D01*
D11*
X393380Y-91408D02*
G01*
X393380Y-148591D01*
X339519Y-148591D02*
G01*
X410480Y-148591D01*
X339519Y-91408D02*
G01*
X339519Y-102354D01*
X339519Y-148591D02*
G01*
X339519Y-137645D01*
X339519Y-91408D02*
G01*
X410480Y-91408D01*
X101660Y-139630D02*
G01*
X132719Y-139630D01*
X132719Y-100369D01*
X101660Y-100369D01*
X78339Y-139630D02*
G01*
X53279Y-139630D01*
X47280Y-133629D01*
X47280Y-106370D01*
X53279Y-100369D01*
X78339Y-100369D01*
X1353338Y-70369D02*
G01*
X1322280Y-70369D01*
X1322280Y-109630D01*
X1353338Y-109630D01*
X1376661Y-70369D02*
G01*
X1401719Y-70369D01*
X1407719Y-76370D01*
X1407719Y-103629D01*
X1401719Y-109630D01*
X1376661Y-109630D01*
X191543Y-135378D02*
G01*
X209477Y-135378D01*
X209477Y-104621D01*
X191543Y-104621D01*
X178456Y-135378D02*
G01*
X160522Y-135378D01*
X160522Y-104621D01*
X178456Y-104621D01*
X1158456Y-74621D02*
G01*
X1140523Y-74621D01*
X1140523Y-105378D01*
X1158456Y-105378D01*
X1171543Y-74621D02*
G01*
X1189476Y-74621D01*
X1189476Y-105378D01*
X1171543Y-105378D01*
D13*
X657500Y-95001D02*
G01*
X602501Y-94998D01*
X646631Y-209998D02*
G01*
X613373Y-209998D01*
X665001Y-140001D02*
G01*
X665001Y-169998D01*
D14*
X87833Y-536395D02*
G01*
X155450Y-536395D01*
X-17750Y-536395D02*
G01*
X45866Y-536395D01*
X182950Y-243094D02*
G01*
X182950Y-225394D01*
X169250Y-213595D01*
X157449Y-213595D01*
X87809Y-213595D02*
G01*
X157449Y-213595D01*
X-19749Y-213595D02*
G01*
X45889Y-213595D01*
X-41449Y-239194D02*
G01*
X-41449Y-525000D01*
X-19749Y-213595D02*
G01*
X-41449Y-213595D01*
X-41449Y-239194D01*
X-17750Y-536395D02*
G01*
X-41449Y-536395D01*
X-41449Y-520695D01*
X182950Y-516694D02*
G01*
X182950Y-536395D01*
X155450Y-536395D01*
D13*
X1172529Y-175000D02*
G01*
X1172529Y-150590D01*
X1133154Y-150590D01*
X1133154Y-175000D01*
X1448234Y-175000D02*
G01*
X1448234Y-150590D01*
X1408858Y-150590D01*
X1408858Y-175000D01*
X1093899Y-575000D02*
G01*
X1093897Y-175000D01*
X1093899Y-175000D02*
G01*
X1487597Y-175000D01*
X1093899Y-575000D02*
G01*
X1487597Y-575000D01*
X1487597Y-575000D02*
G01*
X1487597Y-175000D01*
X1134108Y-575000D02*
G01*
X1134108Y-175000D01*
X1178109Y-575000D02*
G01*
X1178109Y-180000D01*
X1376775Y-575000D02*
G01*
X1376775Y-180000D01*
X1451441Y-575000D02*
G01*
X1451441Y-175000D01*
X1134108Y-550576D02*
G01*
X1093899Y-524576D01*
X1093899Y-441077D02*
G01*
X1134108Y-413577D01*
X1134108Y-341077D02*
G01*
X1093897Y-305576D01*
X1093897Y-237076D02*
G01*
X1134108Y-204576D01*
D11*
G75*
G01*
X495329Y-181599D02*
G02*
X501329Y-175599I6000J0D01*
G75*
G01*
X528589Y-175599D02*
G02*
X534589Y-181599I0J-6000D01*
G75*
G01*
X534671Y-238401D02*
G02*
X528671Y-244401I-6000J0D01*
G75*
G01*
X501411Y-244401D02*
G02*
X495411Y-238401I0J6000D01*
G75*
G01*
X735329Y-181599D02*
G02*
X741329Y-175599I6000J0D01*
G75*
G01*
X768589Y-175599D02*
G02*
X774589Y-181599I0J-6000D01*
G75*
G01*
X774671Y-238401D02*
G02*
X768671Y-244401I-6000J0D01*
G75*
G01*
X741411Y-244401D02*
G02*
X735411Y-238401I0J6000D01*
G75*
G01*
X475378Y-183951D02*
G03*
X469378Y-177951I-6000J0D01*
G75*
G01*
X450622Y-177951D02*
G03*
X444622Y-183951I0J-6000D01*
G75*
G01*
X475378Y-226049D02*
G02*
X469378Y-232049I-6000J0D01*
G75*
G01*
X450622Y-232049D02*
G02*
X444622Y-226049I0J6000D01*
G75*
G01*
X830378Y-183951D02*
G03*
X824378Y-177951I-6000J0D01*
G75*
G01*
X805622Y-177951D02*
G03*
X799622Y-183951I0J-6000D01*
G75*
G01*
X830378Y-226049D02*
G02*
X824378Y-232049I-6000J0D01*
G75*
G01*
X805622Y-232049D02*
G02*
X799622Y-226049I0J6000D01*
D15*
G75*
G01
X91500Y-100370D02*
G03X91500Y-100370I-1500J0D01*
G75*
G01
X91500Y-139630D02*
G03X91500Y-139630I-1500J0D01*
G75*
G01
X1366500Y-109630D02*
G03X1366500Y-109630I-1500J0D01*
G75*
G01
X1366500Y-70370D02*
G03X1366500Y-70370I-1500J0D01*
D16*
G75*
G01
X556783Y-117195D02*
G03X556783Y-117195I-5910J0D01*
M02*
