G04 Layer: TopLayer*
G04 EasyEDA v6.5.51, 2026-04-04 21:27:14*
G04 554b0817779a408d9c0fda9852d9eceb,22248b453a0342f8802807d087257acb,10*
G04 Gerber Generator version 0.2*
G04 Scale: 100 percent, Rotated: No, Reflected: No *
G04 Dimensions in inches *
G04 leading zeros omitted , absolute positions ,3 integer and 6 decimal *
%FSLAX36Y36*%
%MOIN*%

%AMMACRO1*21,1,$1,$2,0,0,$3*%
%ADD10C,0.0160*%
%ADD11C,0.0150*%
%ADD12C,0.0200*%
%ADD13R,0.0213X0.0197*%
%ADD14MACRO1,0.0128X0.0145X0.0000*%
%ADD15R,0.0128X0.0145*%
%ADD16R,0.0176X0.0145*%
%ADD17R,0.0388X0.0236*%
%ADD18MACRO1,0.0213X0.0251X90.0000*%
%ADD19MACRO1,0.0213X0.0251X-90.0000*%
%ADD20MACRO1,0.0128X0.0119X90.0000*%
%ADD21MACRO1,0.0128X0.0119X-90.0000*%
%ADD22R,0.0394X0.0236*%
%ADD23MACRO1,0.0158X0.0532X-90.0000*%
%ADD24O,0.037401X0.049213*%
%ADD25O,0.061024X0.03937*%
%ADD26C,0.0866*%
%ADD27C,0.0244*%

%LPD*%
G36*
X50180Y-739800D02*
G01*
X44960Y-739440D01*
X40240Y-738560D01*
X35680Y-737099D01*
X31300Y-735100D01*
X27220Y-732600D01*
X23440Y-729599D01*
X20080Y-726200D01*
X17140Y-722400D01*
X14680Y-718259D01*
X12740Y-713880D01*
X11339Y-709280D01*
X10500Y-704560D01*
X10200Y-699580D01*
X10200Y-50420D01*
X10560Y-44960D01*
X11439Y-40240D01*
X12900Y-35680D01*
X14900Y-31300D01*
X17400Y-27220D01*
X20400Y-23440D01*
X23800Y-20080D01*
X27599Y-17140D01*
X31740Y-14680D01*
X36120Y-12740D01*
X40720Y-11339D01*
X45439Y-10500D01*
X50420Y-10200D01*
X1449580Y-10200D01*
X1455040Y-10560D01*
X1459760Y-11439D01*
X1464319Y-12900D01*
X1468700Y-14900D01*
X1472780Y-17400D01*
X1476560Y-20400D01*
X1479920Y-23800D01*
X1482860Y-27599D01*
X1485320Y-31740D01*
X1487260Y-36120D01*
X1488660Y-40720D01*
X1489500Y-45439D01*
X1489800Y-50420D01*
X1489800Y-699580D01*
X1489440Y-705040D01*
X1488560Y-709760D01*
X1487100Y-714320D01*
X1485100Y-718700D01*
X1482600Y-722780D01*
X1479600Y-726560D01*
X1476200Y-729920D01*
X1472400Y-732860D01*
X1468260Y-735320D01*
X1463880Y-737260D01*
X1459280Y-738660D01*
X1454560Y-739500D01*
X1449580Y-739800D01*
G37*

%LPC*%
G36*
X84600Y-541760D02*
G01*
X86480Y-541340D01*
X90640Y-539720D01*
X94500Y-537480D01*
X98000Y-534700D01*
X101039Y-531420D01*
X103539Y-527740D01*
X104800Y-525140D01*
X84600Y-525140D01*
G37*
G36*
X49100Y-541760D02*
G01*
X49100Y-525140D01*
X28900Y-525140D01*
X30160Y-527740D01*
X32660Y-531420D01*
X35700Y-534700D01*
X39200Y-537480D01*
X43060Y-539720D01*
X47220Y-541340D01*
G37*
G36*
X1275000Y-528500D02*
G01*
X1281220Y-528140D01*
X1287340Y-527060D01*
X1293300Y-525280D01*
X1299019Y-522800D01*
X1304400Y-519700D01*
X1309379Y-515980D01*
X1313920Y-511719D01*
X1317920Y-506940D01*
X1321339Y-501760D01*
X1324120Y-496200D01*
X1326260Y-490340D01*
X1327680Y-484300D01*
X1328400Y-478120D01*
X1328400Y-471880D01*
X1327680Y-465700D01*
X1326260Y-459660D01*
X1324120Y-453800D01*
X1321339Y-448240D01*
X1317920Y-443060D01*
X1313920Y-438280D01*
X1309379Y-434020D01*
X1304400Y-430300D01*
X1299019Y-427200D01*
X1293300Y-424720D01*
X1287340Y-422939D01*
X1281220Y-421860D01*
X1275000Y-421500D01*
X1268780Y-421860D01*
X1262660Y-422939D01*
X1256700Y-424720D01*
X1250980Y-427200D01*
X1245600Y-430300D01*
X1240620Y-434020D01*
X1236080Y-438280D01*
X1232080Y-443060D01*
X1228660Y-448240D01*
X1226480Y-452600D01*
X1225600Y-453760D01*
X1224360Y-454540D01*
X1222920Y-454799D01*
X1035020Y-454799D01*
X1033500Y-454500D01*
X1032200Y-453620D01*
X1031380Y-452800D01*
X1030500Y-451500D01*
X1030200Y-449980D01*
X1030200Y-141800D01*
X1030500Y-140260D01*
X1031380Y-138960D01*
X1032660Y-138100D01*
X1034200Y-137800D01*
X1087300Y-137800D01*
X1089660Y-137660D01*
X1090880Y-137500D01*
X1093120Y-136960D01*
X1094280Y-136580D01*
X1096380Y-135680D01*
X1097460Y-135100D01*
X1099440Y-133820D01*
X1133960Y-108480D01*
X1135080Y-107899D01*
X1136340Y-107700D01*
X1153820Y-107700D01*
X1157240Y-107380D01*
X1159540Y-106740D01*
X1164620Y-106220D01*
X1165840Y-106240D01*
X1170460Y-106740D01*
X1172760Y-107380D01*
X1176180Y-107700D01*
X1323580Y-107700D01*
X1324680Y-107860D01*
X1325720Y-108320D01*
X1328060Y-109800D01*
X1330200Y-110540D01*
X1332680Y-110840D01*
X1357300Y-110840D01*
X1359780Y-110540D01*
X1361940Y-109800D01*
X1362880Y-109200D01*
X1364259Y-108660D01*
X1365740Y-108660D01*
X1367120Y-109200D01*
X1368060Y-109800D01*
X1370220Y-110540D01*
X1372700Y-110840D01*
X1376240Y-110840D01*
X1376240Y-97820D01*
X1371720Y-97820D01*
X1370180Y-97520D01*
X1368899Y-96640D01*
X1368020Y-95340D01*
X1367720Y-93820D01*
X1367720Y-86180D01*
X1368020Y-84660D01*
X1368899Y-83360D01*
X1370180Y-82480D01*
X1371720Y-82180D01*
X1376240Y-82180D01*
X1376240Y-69180D01*
X1372700Y-69180D01*
X1370220Y-69460D01*
X1368060Y-70200D01*
X1367120Y-70800D01*
X1365740Y-71340D01*
X1364259Y-71340D01*
X1362880Y-70800D01*
X1361940Y-70200D01*
X1359780Y-69460D01*
X1357300Y-69180D01*
X1332680Y-69180D01*
X1330200Y-69460D01*
X1328060Y-70200D01*
X1325720Y-71680D01*
X1324680Y-72140D01*
X1323580Y-72300D01*
X1176180Y-72300D01*
X1172760Y-72620D01*
X1170460Y-73260D01*
X1165380Y-73780D01*
X1164160Y-73760D01*
X1159540Y-73260D01*
X1157240Y-72620D01*
X1153820Y-72300D01*
X1135560Y-72300D01*
X1134580Y-72180D01*
X1133120Y-71520D01*
X1129780Y-70400D01*
X1126300Y-69860D01*
X1122800Y-69940D01*
X1119340Y-70620D01*
X1116060Y-71900D01*
X1112900Y-73820D01*
X1081840Y-96620D01*
X1080720Y-97200D01*
X1079480Y-97400D01*
X699800Y-97400D01*
X698680Y-97240D01*
X697420Y-96620D01*
X695260Y-95860D01*
X692780Y-95580D01*
X653860Y-95580D01*
X651360Y-95860D01*
X649220Y-96620D01*
X647280Y-97840D01*
X645680Y-99440D01*
X644460Y-101380D01*
X643700Y-103520D01*
X643420Y-106020D01*
X643420Y-129179D01*
X643700Y-131680D01*
X644460Y-133820D01*
X645680Y-135760D01*
X647280Y-137360D01*
X649220Y-138580D01*
X651360Y-139320D01*
X653860Y-139600D01*
X692780Y-139600D01*
X695260Y-139320D01*
X698700Y-137960D01*
X699800Y-137800D01*
X730800Y-137800D01*
X732340Y-138100D01*
X733620Y-138960D01*
X734500Y-140260D01*
X734800Y-141800D01*
X734800Y-179680D01*
X734460Y-181360D01*
X734180Y-183840D01*
X734180Y-203080D01*
X734460Y-205580D01*
X735840Y-209259D01*
X735840Y-210740D01*
X735200Y-212280D01*
X734460Y-214420D01*
X734180Y-216920D01*
X734180Y-219120D01*
X747180Y-219120D01*
X747180Y-217500D01*
X747480Y-215980D01*
X748360Y-214680D01*
X749659Y-213820D01*
X751180Y-213500D01*
X753620Y-213520D01*
X755000Y-213640D01*
X756740Y-213500D01*
X758820Y-213500D01*
X760340Y-213820D01*
X761640Y-214680D01*
X762520Y-215980D01*
X762820Y-217500D01*
X762820Y-219120D01*
X775819Y-219120D01*
X775819Y-217000D01*
X776140Y-215440D01*
X777020Y-214140D01*
X778340Y-213280D01*
X779880Y-213000D01*
X814599Y-213400D01*
X818300Y-213100D01*
X821720Y-212160D01*
X823120Y-211520D01*
X825800Y-210620D01*
X827360Y-209820D01*
X828460Y-209660D01*
X831580Y-209660D01*
X831580Y-208760D01*
X831260Y-205880D01*
X831340Y-204540D01*
X832080Y-202960D01*
X833379Y-199660D01*
X834080Y-196200D01*
X834120Y-192659D01*
X833520Y-189160D01*
X832280Y-185859D01*
X830780Y-183220D01*
X830540Y-182540D01*
X829340Y-180600D01*
X827720Y-179000D01*
X825800Y-177780D01*
X822780Y-176700D01*
X822180Y-176400D01*
X818740Y-175380D01*
X815040Y-175000D01*
X779160Y-174579D01*
X777640Y-174259D01*
X776360Y-173400D01*
X775500Y-172100D01*
X775200Y-170580D01*
X775200Y-141800D01*
X775500Y-140260D01*
X776380Y-138960D01*
X777660Y-138100D01*
X779200Y-137800D01*
X985800Y-137800D01*
X987340Y-138100D01*
X988620Y-138960D01*
X989500Y-140260D01*
X989800Y-141800D01*
X989800Y-459920D01*
X989880Y-461760D01*
X990120Y-463500D01*
X990500Y-465220D01*
X991020Y-466900D01*
X991700Y-468540D01*
X992500Y-470100D01*
X993460Y-471580D01*
X994520Y-472980D01*
X995780Y-474340D01*
X1010660Y-489219D01*
X1012020Y-490480D01*
X1013420Y-491540D01*
X1014900Y-492500D01*
X1016460Y-493300D01*
X1018100Y-493980D01*
X1019780Y-494500D01*
X1021500Y-494880D01*
X1023240Y-495120D01*
X1025080Y-495200D01*
X1222920Y-495200D01*
X1224360Y-495460D01*
X1225600Y-496240D01*
X1226480Y-497400D01*
X1228660Y-501760D01*
X1232080Y-506940D01*
X1236080Y-511719D01*
X1240620Y-515980D01*
X1245600Y-519700D01*
X1250980Y-522800D01*
X1256700Y-525280D01*
X1262660Y-527060D01*
X1268780Y-528140D01*
G37*
G36*
X161300Y-505560D02*
G01*
X161300Y-488200D01*
X145700Y-488200D01*
X147120Y-491840D01*
X149280Y-495580D01*
X151980Y-498960D01*
X155140Y-501880D01*
X158700Y-504320D01*
G37*
G36*
X185000Y-505560D02*
G01*
X187600Y-504320D01*
X191160Y-501880D01*
X194320Y-498960D01*
X197020Y-495580D01*
X199180Y-491840D01*
X200600Y-488200D01*
X185000Y-488200D01*
G37*
G36*
X28900Y-500460D02*
G01*
X49100Y-500460D01*
X49100Y-483820D01*
X47220Y-484240D01*
X43060Y-485880D01*
X39200Y-488120D01*
X35700Y-490900D01*
X32660Y-494159D01*
X30160Y-497860D01*
G37*
G36*
X84600Y-500460D02*
G01*
X104800Y-500460D01*
X103539Y-497860D01*
X101039Y-494159D01*
X98000Y-490900D01*
X94500Y-488120D01*
X90640Y-485880D01*
X86480Y-484240D01*
X84600Y-483820D01*
G37*
G36*
X185000Y-458600D02*
G01*
X200600Y-458579D01*
X199180Y-454960D01*
X197020Y-451220D01*
X196660Y-450760D01*
X195900Y-449240D01*
X195840Y-447540D01*
X196500Y-445980D01*
X197719Y-444820D01*
X199340Y-444280D01*
X201980Y-443980D01*
X204140Y-443240D01*
X206060Y-442020D01*
X207680Y-440420D01*
X208900Y-438480D01*
X209640Y-436340D01*
X209920Y-433840D01*
X209920Y-432640D01*
X188939Y-432640D01*
X188939Y-448260D01*
X188640Y-449780D01*
X187780Y-451079D01*
X186520Y-451940D01*
X185000Y-452260D01*
G37*
G36*
X145700Y-458600D02*
G01*
X161300Y-458600D01*
X161300Y-452260D01*
X159840Y-451960D01*
X158540Y-451100D01*
X157660Y-449799D01*
X157360Y-448260D01*
X157360Y-432640D01*
X136380Y-432640D01*
X136380Y-433840D01*
X136660Y-436340D01*
X137400Y-438480D01*
X138620Y-440420D01*
X140240Y-442020D01*
X142160Y-443240D01*
X144320Y-443980D01*
X146960Y-444280D01*
X148580Y-444820D01*
X149800Y-445980D01*
X150460Y-447540D01*
X150400Y-449240D01*
X149640Y-450760D01*
X149280Y-451220D01*
X147120Y-454960D01*
G37*
G36*
X136380Y-419760D02*
G01*
X158620Y-419760D01*
X159880Y-418960D01*
X161360Y-418660D01*
X184940Y-418660D01*
X186420Y-418960D01*
X187680Y-419760D01*
X209920Y-419760D01*
X209920Y-418540D01*
X209640Y-416060D01*
X209180Y-414720D01*
X208960Y-413400D01*
X209180Y-412080D01*
X209640Y-410740D01*
X209920Y-408240D01*
X209920Y-392939D01*
X209640Y-390460D01*
X209180Y-389120D01*
X208960Y-387800D01*
X209180Y-386480D01*
X209640Y-385140D01*
X209920Y-382640D01*
X209920Y-367340D01*
X209640Y-364860D01*
X209180Y-363519D01*
X208960Y-362200D01*
X209180Y-360880D01*
X209640Y-359540D01*
X209920Y-357040D01*
X209920Y-348000D01*
X210219Y-346460D01*
X211100Y-345160D01*
X212399Y-344300D01*
X213920Y-344000D01*
X251119Y-344000D01*
X252960Y-343920D01*
X254720Y-343680D01*
X256439Y-343300D01*
X258120Y-342780D01*
X259740Y-342100D01*
X261300Y-341280D01*
X262780Y-340340D01*
X264180Y-339260D01*
X265560Y-338020D01*
X284220Y-319340D01*
X285480Y-317980D01*
X286540Y-316580D01*
X287500Y-315100D01*
X288300Y-313540D01*
X288980Y-311900D01*
X289500Y-310220D01*
X289880Y-308500D01*
X290120Y-306760D01*
X290200Y-304920D01*
X290200Y-144200D01*
X290500Y-142660D01*
X291380Y-141380D01*
X292660Y-140500D01*
X294200Y-140200D01*
X304800Y-140200D01*
X305920Y-140360D01*
X307200Y-140980D01*
X309340Y-141740D01*
X311840Y-142020D01*
X350160Y-142020D01*
X352660Y-141740D01*
X354799Y-140980D01*
X356740Y-139760D01*
X358340Y-138160D01*
X359560Y-136220D01*
X360319Y-134080D01*
X360600Y-131580D01*
X360600Y-108420D01*
X360319Y-105920D01*
X359560Y-103780D01*
X358340Y-101840D01*
X356740Y-100239D01*
X354799Y-99019D01*
X352660Y-98260D01*
X350160Y-97980D01*
X311840Y-97980D01*
X309340Y-98260D01*
X305920Y-99640D01*
X304800Y-99800D01*
X270180Y-99800D01*
X266500Y-100120D01*
X263100Y-101039D01*
X261180Y-101920D01*
X259500Y-102300D01*
X196439Y-102300D01*
X193000Y-102620D01*
X190720Y-103260D01*
X185380Y-103780D01*
X184160Y-103760D01*
X179540Y-103260D01*
X177240Y-102620D01*
X173820Y-102300D01*
X131420Y-102300D01*
X130320Y-102140D01*
X129280Y-101679D01*
X126940Y-100200D01*
X124800Y-99460D01*
X122320Y-99179D01*
X97700Y-99179D01*
X95220Y-99460D01*
X93059Y-100200D01*
X92120Y-100800D01*
X90740Y-101340D01*
X89260Y-101340D01*
X87880Y-100800D01*
X86940Y-100200D01*
X84780Y-99460D01*
X82300Y-99179D01*
X78760Y-99179D01*
X78760Y-112180D01*
X83280Y-112180D01*
X84820Y-112480D01*
X86100Y-113360D01*
X86980Y-114660D01*
X87280Y-116180D01*
X87280Y-123820D01*
X86980Y-125340D01*
X86100Y-126640D01*
X84820Y-127520D01*
X83280Y-127820D01*
X78760Y-127820D01*
X78760Y-140840D01*
X82300Y-140840D01*
X84780Y-140540D01*
X86940Y-139800D01*
X87880Y-139200D01*
X89260Y-138660D01*
X90740Y-138660D01*
X92120Y-139200D01*
X93059Y-139800D01*
X95220Y-140540D01*
X97700Y-140840D01*
X122320Y-140840D01*
X124800Y-140540D01*
X126940Y-139800D01*
X129280Y-138320D01*
X130320Y-137860D01*
X131420Y-137700D01*
X173820Y-137700D01*
X177240Y-137380D01*
X179540Y-136740D01*
X184620Y-136220D01*
X185840Y-136240D01*
X190720Y-136740D01*
X193000Y-137380D01*
X196439Y-137700D01*
X245799Y-137700D01*
X247340Y-138000D01*
X248619Y-138880D01*
X249500Y-140160D01*
X249800Y-141700D01*
X249800Y-294980D01*
X249500Y-296500D01*
X248619Y-297800D01*
X244000Y-302420D01*
X242719Y-303300D01*
X241180Y-303600D01*
X201160Y-303600D01*
X199540Y-303240D01*
X198200Y-302280D01*
X197360Y-300840D01*
X197180Y-299180D01*
X197700Y-297600D01*
X199180Y-295040D01*
X200600Y-291400D01*
X185000Y-291400D01*
X185000Y-299600D01*
X184700Y-301120D01*
X183820Y-302420D01*
X182540Y-303300D01*
X181000Y-303600D01*
X173320Y-303600D01*
X169640Y-303920D01*
X166340Y-304800D01*
X164880Y-304920D01*
X163480Y-304500D01*
X162320Y-303620D01*
X161560Y-302380D01*
X161300Y-300940D01*
X161300Y-291400D01*
X145700Y-291400D01*
X147120Y-295040D01*
X149280Y-298780D01*
X149640Y-299240D01*
X150400Y-300740D01*
X150460Y-302440D01*
X149800Y-304000D01*
X148580Y-305160D01*
X146960Y-305700D01*
X144320Y-306000D01*
X142160Y-306760D01*
X140240Y-307960D01*
X138620Y-309580D01*
X137400Y-311500D01*
X136660Y-313660D01*
X136380Y-316140D01*
X136380Y-331440D01*
X136660Y-333940D01*
X137120Y-335280D01*
X137340Y-336599D01*
X137120Y-337920D01*
X136660Y-339260D01*
X136380Y-341740D01*
X136380Y-357040D01*
X136660Y-359540D01*
X137120Y-360880D01*
X137340Y-362200D01*
X137120Y-363519D01*
X136660Y-364860D01*
X136380Y-367340D01*
X136380Y-382640D01*
X136660Y-385140D01*
X137120Y-386480D01*
X137340Y-387800D01*
X137120Y-389120D01*
X136660Y-390460D01*
X136380Y-392939D01*
X136380Y-408240D01*
X136660Y-410740D01*
X137120Y-412080D01*
X137340Y-413400D01*
X137120Y-414720D01*
X136660Y-416060D01*
X136380Y-418540D01*
G37*
G36*
X1250840Y-322720D02*
G01*
X1250840Y-299160D01*
X1227360Y-299160D01*
X1228660Y-301760D01*
X1232080Y-306940D01*
X1236080Y-311720D01*
X1240620Y-315980D01*
X1245600Y-319700D01*
G37*
G36*
X1299160Y-322720D02*
G01*
X1304400Y-319700D01*
X1309379Y-315980D01*
X1313920Y-311720D01*
X1317920Y-306940D01*
X1321339Y-301760D01*
X1322640Y-299160D01*
X1299160Y-299160D01*
G37*
G36*
X84600Y-266160D02*
G01*
X86480Y-265740D01*
X90640Y-264120D01*
X94500Y-261880D01*
X98000Y-259100D01*
X101039Y-255820D01*
X103539Y-252140D01*
X104800Y-249540D01*
X84600Y-249540D01*
G37*
G36*
X49100Y-266160D02*
G01*
X49100Y-249540D01*
X28900Y-249540D01*
X30160Y-252140D01*
X32660Y-255820D01*
X35700Y-259100D01*
X39200Y-261880D01*
X43060Y-264120D01*
X47220Y-265740D01*
G37*
G36*
X185000Y-261800D02*
G01*
X200600Y-261780D01*
X199180Y-258160D01*
X197020Y-254420D01*
X194320Y-251040D01*
X191160Y-248100D01*
X187600Y-245660D01*
X185000Y-244420D01*
G37*
G36*
X145700Y-261800D02*
G01*
X161300Y-261800D01*
X161300Y-244420D01*
X158700Y-245660D01*
X155140Y-248100D01*
X151980Y-251040D01*
X149280Y-254420D01*
X147120Y-258160D01*
G37*
G36*
X1299160Y-250840D02*
G01*
X1322640Y-250840D01*
X1321339Y-248240D01*
X1317920Y-243060D01*
X1313920Y-238280D01*
X1309379Y-234020D01*
X1304400Y-230300D01*
X1299160Y-227280D01*
G37*
G36*
X1227360Y-250840D02*
G01*
X1250840Y-250840D01*
X1250840Y-227280D01*
X1245600Y-230300D01*
X1240620Y-234020D01*
X1236080Y-238280D01*
X1232080Y-243060D01*
X1228660Y-248240D01*
G37*
G36*
X522819Y-246580D02*
G01*
X525400Y-246580D01*
X527900Y-246300D01*
X530040Y-245539D01*
X531980Y-244340D01*
X533580Y-242719D01*
X534800Y-240799D01*
X535540Y-238640D01*
X535840Y-236160D01*
X535840Y-233960D01*
X522819Y-233960D01*
G37*
G36*
X744599Y-246580D02*
G01*
X747180Y-246580D01*
X747180Y-233960D01*
X734180Y-233960D01*
X734180Y-236160D01*
X734460Y-238640D01*
X735200Y-240799D01*
X736420Y-242719D01*
X738020Y-244340D01*
X739960Y-245539D01*
X742099Y-246300D01*
G37*
G36*
X504600Y-246580D02*
G01*
X507180Y-246580D01*
X507180Y-233960D01*
X494180Y-233960D01*
X494180Y-236160D01*
X494460Y-238640D01*
X495200Y-240799D01*
X496420Y-242719D01*
X498020Y-244340D01*
X499960Y-245539D01*
X502100Y-246300D01*
G37*
G36*
X762820Y-246580D02*
G01*
X765400Y-246580D01*
X767900Y-246300D01*
X770040Y-245539D01*
X771979Y-244340D01*
X773580Y-242719D01*
X774800Y-240799D01*
X775540Y-238640D01*
X775819Y-236160D01*
X775819Y-233960D01*
X762820Y-233960D01*
G37*
G36*
X465680Y-233240D02*
G01*
X468640Y-232960D01*
X470800Y-232220D01*
X472720Y-231000D01*
X474340Y-229400D01*
X475540Y-227460D01*
X476300Y-225320D01*
X476580Y-222820D01*
X476580Y-221920D01*
X465680Y-221920D01*
G37*
G36*
X454320Y-233240D02*
G01*
X454320Y-221920D01*
X443420Y-221920D01*
X443420Y-222820D01*
X443700Y-225320D01*
X444460Y-227460D01*
X445660Y-229400D01*
X447280Y-231000D01*
X449200Y-232220D01*
X451360Y-232960D01*
G37*
G36*
X809320Y-233240D02*
G01*
X809320Y-221920D01*
X798420Y-221920D01*
X798420Y-222820D01*
X798700Y-225320D01*
X799460Y-227460D01*
X800660Y-229400D01*
X802280Y-231000D01*
X804200Y-232220D01*
X806360Y-232960D01*
G37*
G36*
X820680Y-233240D02*
G01*
X823640Y-232960D01*
X825800Y-232220D01*
X827720Y-231000D01*
X829340Y-229400D01*
X830540Y-227460D01*
X831300Y-225320D01*
X831580Y-222820D01*
X831580Y-221920D01*
X820680Y-221920D01*
G37*
G36*
X84600Y-224860D02*
G01*
X104800Y-224860D01*
X103539Y-222260D01*
X101039Y-218560D01*
X98000Y-215300D01*
X94500Y-212520D01*
X90640Y-210280D01*
X86480Y-208640D01*
X84600Y-208220D01*
G37*
G36*
X28900Y-224860D02*
G01*
X49100Y-224860D01*
X49100Y-208220D01*
X47220Y-208640D01*
X43060Y-210280D01*
X39200Y-212520D01*
X35700Y-215300D01*
X32660Y-218560D01*
X30160Y-222260D01*
G37*
G36*
X494180Y-219120D02*
G01*
X507180Y-219120D01*
X507180Y-217500D01*
X507480Y-215980D01*
X508360Y-214680D01*
X509660Y-213820D01*
X511180Y-213500D01*
X515000Y-213660D01*
X518820Y-213500D01*
X520340Y-213820D01*
X521640Y-214680D01*
X522520Y-215980D01*
X522819Y-217500D01*
X522819Y-219120D01*
X535820Y-219120D01*
X535820Y-216600D01*
X536120Y-215060D01*
X536980Y-213760D01*
X538280Y-212900D01*
X539820Y-212600D01*
X560200Y-212600D01*
X561300Y-212760D01*
X562600Y-213380D01*
X564740Y-214120D01*
X567220Y-214400D01*
X606160Y-214400D01*
X608640Y-214120D01*
X610780Y-213380D01*
X612720Y-212160D01*
X614320Y-210560D01*
X615540Y-208619D01*
X616300Y-206480D01*
X616580Y-203980D01*
X616580Y-180820D01*
X616300Y-178320D01*
X615540Y-176180D01*
X614780Y-174440D01*
X614780Y-172960D01*
X615540Y-171220D01*
X616300Y-169080D01*
X616580Y-166580D01*
X616580Y-163400D01*
X599040Y-163400D01*
X599040Y-166380D01*
X598720Y-167920D01*
X597860Y-169220D01*
X596560Y-170080D01*
X595040Y-170380D01*
X578340Y-170380D01*
X576820Y-170080D01*
X575520Y-169220D01*
X574660Y-167920D01*
X574340Y-166380D01*
X574340Y-163400D01*
X556800Y-163400D01*
X556800Y-166580D01*
X556940Y-167740D01*
X556780Y-169400D01*
X555940Y-170859D01*
X554600Y-171840D01*
X552960Y-172200D01*
X539200Y-172200D01*
X537660Y-171900D01*
X536380Y-171020D01*
X535500Y-169720D01*
X535200Y-168200D01*
X535200Y-141800D01*
X535500Y-140280D01*
X536380Y-138980D01*
X537660Y-138100D01*
X539200Y-137800D01*
X552960Y-137800D01*
X554600Y-138160D01*
X555940Y-139140D01*
X556780Y-140600D01*
X556940Y-142260D01*
X556800Y-143420D01*
X556800Y-146600D01*
X574340Y-146600D01*
X574340Y-143620D01*
X574660Y-142080D01*
X575520Y-140780D01*
X576820Y-139920D01*
X578340Y-139620D01*
X595040Y-139620D01*
X596560Y-139920D01*
X597860Y-140780D01*
X598720Y-142080D01*
X599040Y-143620D01*
X599040Y-146600D01*
X616580Y-146600D01*
X616580Y-143420D01*
X616300Y-140920D01*
X615540Y-138780D01*
X614780Y-137040D01*
X614780Y-135560D01*
X615540Y-133820D01*
X616300Y-131680D01*
X616580Y-129179D01*
X616580Y-106020D01*
X616300Y-103520D01*
X615540Y-101380D01*
X614340Y-99440D01*
X612720Y-97840D01*
X610800Y-96620D01*
X608640Y-95879D01*
X606160Y-95600D01*
X567240Y-95600D01*
X564740Y-95879D01*
X561300Y-97240D01*
X560200Y-97400D01*
X421480Y-97400D01*
X419700Y-97480D01*
X416380Y-97980D01*
X399840Y-97980D01*
X397340Y-98260D01*
X395200Y-99019D01*
X393260Y-100239D01*
X391659Y-101840D01*
X390439Y-103780D01*
X389680Y-105920D01*
X389400Y-108420D01*
X389400Y-131580D01*
X389680Y-134080D01*
X390439Y-136220D01*
X391659Y-138160D01*
X393260Y-139760D01*
X395200Y-140980D01*
X397340Y-141740D01*
X399840Y-142020D01*
X438160Y-142020D01*
X440660Y-141740D01*
X442800Y-140980D01*
X444720Y-139760D01*
X445520Y-138980D01*
X446820Y-138100D01*
X448340Y-137800D01*
X490800Y-137800D01*
X492340Y-138100D01*
X493620Y-138980D01*
X494500Y-140280D01*
X494799Y-141800D01*
X494799Y-170600D01*
X494500Y-172120D01*
X493640Y-173420D01*
X492360Y-174280D01*
X490860Y-174600D01*
X459940Y-175000D01*
X456240Y-175400D01*
X452840Y-176400D01*
X451820Y-176880D01*
X449200Y-177780D01*
X447280Y-179000D01*
X445660Y-180600D01*
X444460Y-182540D01*
X443860Y-183960D01*
X442720Y-185859D01*
X441480Y-189180D01*
X440880Y-192680D01*
X440920Y-196220D01*
X441620Y-199680D01*
X442939Y-202960D01*
X443660Y-204540D01*
X443740Y-205880D01*
X443420Y-208760D01*
X443420Y-209660D01*
X446540Y-209660D01*
X447640Y-209820D01*
X449200Y-210620D01*
X452080Y-211640D01*
X453240Y-212160D01*
X456719Y-213100D01*
X460420Y-213400D01*
X490120Y-213020D01*
X491659Y-213299D01*
X492980Y-214180D01*
X493860Y-215479D01*
X494180Y-217020D01*
G37*
G36*
X653860Y-214420D02*
G01*
X692780Y-214420D01*
X695260Y-214140D01*
X697420Y-213380D01*
X699340Y-212160D01*
X700960Y-210560D01*
X702159Y-208619D01*
X702920Y-206480D01*
X703199Y-203980D01*
X703199Y-180820D01*
X702920Y-178320D01*
X702159Y-176180D01*
X700960Y-174240D01*
X699340Y-172640D01*
X697420Y-171420D01*
X695260Y-170680D01*
X692780Y-170400D01*
X653860Y-170400D01*
X651360Y-170680D01*
X649220Y-171420D01*
X647280Y-172640D01*
X645680Y-174240D01*
X644460Y-176180D01*
X643700Y-178320D01*
X643420Y-180820D01*
X643420Y-203980D01*
X643700Y-206480D01*
X644460Y-208619D01*
X645680Y-210560D01*
X647280Y-212160D01*
X649220Y-213380D01*
X651360Y-214140D01*
G37*
G36*
X57680Y-140840D02*
G01*
X61220Y-140840D01*
X61220Y-127820D01*
X47260Y-127820D01*
X47260Y-130399D01*
X47539Y-132900D01*
X48300Y-135040D01*
X49500Y-136980D01*
X51120Y-138580D01*
X53040Y-139800D01*
X55199Y-140540D01*
G37*
G36*
X47260Y-112180D02*
G01*
X61220Y-112180D01*
X61220Y-99179D01*
X57680Y-99179D01*
X55199Y-99460D01*
X53040Y-100200D01*
X51120Y-101420D01*
X49500Y-103020D01*
X48300Y-104960D01*
X47539Y-107100D01*
X47260Y-109600D01*
G37*
G36*
X1393779Y-110840D02*
G01*
X1397320Y-110840D01*
X1399800Y-110540D01*
X1401960Y-109800D01*
X1403880Y-108580D01*
X1405500Y-106980D01*
X1406699Y-105040D01*
X1407460Y-102899D01*
X1407740Y-100399D01*
X1407740Y-97820D01*
X1393779Y-97820D01*
G37*
G36*
X1393779Y-82180D02*
G01*
X1407740Y-82180D01*
X1407740Y-79600D01*
X1407460Y-77100D01*
X1406699Y-74960D01*
X1405500Y-73020D01*
X1403880Y-71420D01*
X1401960Y-70200D01*
X1399800Y-69460D01*
X1397320Y-69180D01*
X1393779Y-69180D01*
G37*

%LPD*%
D10*
X755000Y-193499D02*
G01*
X815000Y-194200D01*
X460000Y-194200D02*
G01*
X515000Y-193499D01*
D11*
X271745Y-120000D02*
G01*
X196255Y-120000D01*
X174000Y-120000D02*
G01*
X108519Y-120000D01*
D12*
X173150Y-323795D02*
G01*
X251204Y-323795D01*
X270000Y-305000D01*
X270000Y-120000D01*
X330999Y-120000D01*
D11*
X1176000Y-90000D02*
G01*
X1346477Y-90000D01*
X1130000Y-90000D02*
G01*
X1153999Y-90000D01*
D12*
X1275000Y-475000D02*
G01*
X1025000Y-475000D01*
X1010000Y-460000D01*
X1010000Y-117600D01*
X747523Y-117595D02*
G01*
X1087407Y-117595D01*
X1125000Y-90000D01*
X755000Y-193460D02*
G01*
X755000Y-120000D01*
X752595Y-117595D01*
X673312Y-117595D01*
X515000Y-193460D02*
G01*
X516064Y-192395D01*
X586693Y-192395D01*
X515000Y-193460D02*
G01*
X515000Y-117604D01*
X419000Y-120000D02*
G01*
X421395Y-117604D01*
X586693Y-117604D01*
D13*
G01*
X515000Y-193460D03*
G01*
X515000Y-226539D03*
G01*
X755000Y-193460D03*
G01*
X755000Y-226539D03*
D14*
G01*
X460000Y-194203D03*
D15*
G01*
X460000Y-215799D03*
D14*
G01*
X815000Y-194203D03*
D15*
G01*
X815000Y-215799D03*
D17*
G01*
X330999Y-120000D03*
G01*
X419000Y-120000D03*
D18*
G01*
X69990Y-120000D03*
G01*
X110009Y-120000D03*
D19*
G01*
X1385009Y-90000D03*
G01*
X1344990Y-90000D03*
D20*
G01*
X194510Y-120000D03*
G01*
X175489Y-120000D03*
D21*
G01*
X1155489Y-90000D03*
G01*
X1174510Y-90000D03*
D22*
G01*
X586693Y-154994D03*
G01*
X586693Y-192395D03*
G01*
X586693Y-117604D03*
G01*
X673312Y-192404D03*
G01*
X673312Y-117595D03*
D23*
G01*
X173150Y-374994D03*
G01*
X173150Y-400594D03*
G01*
X173150Y-426195D03*
G01*
X173150Y-349394D03*
G01*
X173150Y-323795D03*
D24*
G01*
X173150Y-473425D03*
G01*
X173150Y-276574D03*
D25*
G01*
X66849Y-237204D03*
G01*
X66849Y-512795D03*
D26*
G01*
X1275000Y-475000D03*
G01*
X1275000Y-275000D03*
D27*
G01*
X240000Y-425000D03*
G01*
X105000Y-425000D03*
G01*
X635000Y-155000D03*
G01*
X635000Y-245000D03*
G01*
X635000Y-60000D03*
G01*
X45000Y-45000D03*
G01*
X255000Y-45000D03*
G01*
X470000Y-45000D03*
G01*
X790000Y-45000D03*
G01*
X985000Y-45000D03*
G01*
X1215000Y-45000D03*
G01*
X1455000Y-45000D03*
G01*
X45000Y-710000D03*
G01*
X255000Y-710000D03*
G01*
X470000Y-710000D03*
G01*
X790000Y-710000D03*
G01*
X985000Y-710000D03*
G01*
X1215000Y-710000D03*
G01*
X1455000Y-710000D03*
M02*
