M48
INCH,LZ
;FILE_FORMAT=2:4
;TYPE=PLATED
;Layer: PTH_Through
;EasyEDA v6.5.51, 2026-05-14 19:13:19
;5172052daa6a446c8bedac2976265e0c,22248b453a0342f8802807d087257acb,10
;Gerber Generator version 0.2
;Holesize 1 = 0.0080 inch
T01C0.0080
;Holesize 2 = 0.0100 inch
T02C0.0100
;Holesize 3 = 0.0120 inch
T03C0.0120
;Holesize 4 = 0.0200 inch
T04C0.0200
;Holesize 5 = 0.0220 inch
T05C0.0220
;Holesize 6 = 0.0390 inch
T06C0.0390
;Holesize 7 = 0.0400 inch
T07C0.0400
;Holesize 8 = 0.0410 inch
T08C0.0410
%
G05
G90
T01
X004494Y-015477
X005544Y-015477
X006594Y-015477
X007644Y-015477
X007644Y-016327
X006594Y-016327
X005544Y-016327
X004494Y-016327
X004494Y-017177
X005544Y-017177
X006594Y-017177
X007644Y-017177
X007644Y-018027
X006594Y-018027
X005544Y-018027
X004494Y-018027
X008156Y-015477
X004494Y-015973
X008156Y-016327
X004494Y-016823
X008156Y-017177
X004494Y-017673
X005950Y-010250
X005950Y-011100
X005950Y-010700
X005500Y-010700
X006400Y-010700
X004650Y-006100
X004650Y-006650
T02
X003968Y-009180
X003900Y-009450
X003750Y-009700
X003830Y-010020
X003616Y-010718
X003792Y-010491
X006950Y-010150
X007700Y-010250
X007000Y-009850
X008150Y-009950
X008026Y-011322
X007850Y-012050
X006600Y-011700
X007000Y-011150
X008800Y-019800
X006100Y-011700
X006350Y-011650
X003750Y-019600
X003550Y-019400
X004695Y-014350
X008300Y-018750
X007200Y-002650
X006950Y-005050
X008150Y-005850
X007450Y-005606
X007750Y-005094
X006800Y-003850
X004500Y-003850
X008400Y-007350
X008200Y-009350
X006950Y-010500
X006250Y-009650
X004900Y-010050
X005750Y-011700
X004900Y-011000
X007780Y-011010
X008000Y-001845
X005700Y-002800
T03
X007650Y-013750
X007800Y-014250
X008450Y-012650
X008250Y-014250
X002150Y-019650
X002150Y-020250
X002650Y-020250
X003150Y-020250
X010250Y-020300
X009750Y-020300
X009250Y-020300
X010250Y-019650
X007750Y-006900
X007550Y-006500
X006750Y-006500
X008000Y-006500
X004950Y-005100
X004950Y-005450
X005650Y000350
X006650Y000350
X007550Y-007350
X003800Y-014600
X006750Y-001700
X006750Y-002400
X006750Y-003200
X006750Y-004550
X005900Y-003200
X005900Y-002400
X005900Y-001700
X005900Y-004350
X008000Y-003100
X007600Y-001150
X008800Y-002650
X008000Y-001400
X009100Y-001350
X005900Y-005800
X008900Y000550
X003400Y000550
X004050Y000550
X008250Y000550
X008100Y-013750
X008800Y-004400
X008800Y-005450
X008750Y-012950
X008800Y-006650
X008800Y-007600
X006750Y-005450
X008000Y-003450
X003400Y-011900
T04
X007528Y000459G85X007528Y000203
X004772Y000459G85X004772Y000203
T05
X005225Y-000732G85X005107Y-000732
X007193Y-000732G85X007075Y-000732
T06
X001650Y000150
X001650Y-000850
X001650Y-001850
X001650Y-002850
X001650Y-003850
X001650Y-004850
X001650Y-005850
X001650Y-006850
X001650Y-007850
X001650Y-008850
X001650Y-009850
X001650Y-010850
X001650Y-011850
X001650Y-012850
X001650Y-013850
X001650Y-014850
X001650Y-015850
X001650Y-016850
X001650Y-017850
X001650Y-018855
X010705Y000158
X010705Y-000842
X010705Y-001842
X010705Y-002842
X010705Y-003842
X010705Y-004842
X010705Y-005842
X010705Y-006842
X010705Y-007842
X010705Y-008842
X010705Y-009842
X010705Y-010842
X010705Y-011842
X010705Y-012842
X010705Y-013842
X010705Y-014842
X010705Y-015842
X010705Y-016842
X010705Y-017842
X010705Y-018842
X007650Y-018850
X006650Y-018850
X005650Y-018850
X004650Y-018850
T07
X005151Y-020050G85X005149Y-020050
X006151Y-020050G85X006149Y-020050
X007151Y-020050G85X007149Y-020050
T08
X009650Y-018850
X009650Y-017850
X009650Y-016850
X009650Y-015850
X009650Y-014850
X009650Y-013850
X009650Y-012850
X009650Y-011850
X009650Y-010850
X009650Y-009850
X009650Y-008850
X009650Y-007850
X009650Y-006850
X009650Y-005850
X009650Y-004850
X009650Y-003850
X009650Y-002850
X009650Y-001850
X009650Y-000850
X009650Y000150
X002650Y-018850
X002650Y-017850
X002650Y-016850
X002650Y-015850
X002650Y-014850
X002650Y-013850
X002650Y-012850
X002650Y-011850
X002650Y-010850
X002650Y-009850
X002650Y-008850
X002650Y-007850
X002650Y-006850
X002650Y-005850
X002650Y-004850
X002650Y-003850
X002650Y-002850
X002650Y-001850
X002650Y-000850
X002650Y000150
M30
