G04 Layer: TopPasteMaskLayer*
G04 EasyEDA v6.5.51, 2026-05-14 19:13:19*
G04 5172052daa6a446c8bedac2976265e0c,22248b453a0342f8802807d087257acb,10*
G04 Gerber Generator version 0.2*
G04 Scale: 100 percent, Rotated: No, Reflected: No *
G04 Dimensions in inches *
G04 leading zeros omitted , absolute positions ,3 integer and 6 decimal *
%FSLAX36Y36*%
%MOIN*%

%AMMACRO1*21,1,$1,$2,0,0,$3*%
%ADD10R,0.0197X0.0213*%
%ADD11R,0.0213X0.0197*%
%ADD12R,0.0236X0.0388*%
%ADD13R,0.0394X0.0630*%
%ADD14R,0.0157X0.0201*%
%ADD15R,0.0472X0.0256*%
%ADD16R,0.0315X0.0157*%
%ADD17R,0.0144X0.0157*%
%ADD18R,0.0906X0.1181*%
%ADD19R,0.0354X0.0276*%
%ADD20R,0.0472X0.0551*%
%ADD21MACRO1,0.0472X0.0551X0.0000*%
%ADD22R,0.0236X0.0394*%

%LPD*%
G36*
X360940Y2540D02*
G01*
X359360Y960D01*
X359360Y-21820D01*
X360940Y-23380D01*
X379060Y-23380D01*
X380640Y-21820D01*
X380640Y960D01*
X379060Y2540D01*
G37*
G36*
X360940Y-36620D02*
G01*
X359360Y-38180D01*
X359360Y-60960D01*
X360940Y-62539D01*
X379060Y-62539D01*
X380640Y-60960D01*
X380640Y-38180D01*
X379060Y-36620D01*
G37*
G36*
X743180Y-449360D02*
G01*
X741620Y-450940D01*
X741620Y-469060D01*
X743180Y-470620D01*
X765960Y-470620D01*
X767540Y-469060D01*
X767540Y-450940D01*
X765960Y-449360D01*
G37*
G36*
X704040Y-449360D02*
G01*
X702460Y-450940D01*
X702460Y-469060D01*
X704040Y-470620D01*
X726820Y-470620D01*
X728379Y-469060D01*
X728379Y-450940D01*
X726820Y-449360D01*
G37*
G36*
X833180Y-2019360D02*
G01*
X831620Y-2020940D01*
X831620Y-2039060D01*
X833180Y-2040640D01*
X855960Y-2040640D01*
X857540Y-2039060D01*
X857540Y-2020940D01*
X855960Y-2019360D01*
G37*
G36*
X794040Y-2019360D02*
G01*
X792460Y-2020940D01*
X792460Y-2039060D01*
X794040Y-2040640D01*
X816820Y-2040640D01*
X818379Y-2039060D01*
X818379Y-2020940D01*
X816820Y-2019360D01*
G37*
G36*
X752300Y63660D02*
G01*
X750340Y63500D01*
X748420Y63160D01*
X746520Y62640D01*
X744700Y61920D01*
X742960Y61020D01*
X741300Y59960D01*
X739760Y58740D01*
X738360Y57360D01*
X737099Y55860D01*
X736000Y54240D01*
X735060Y52520D01*
X734300Y50700D01*
X733720Y48840D01*
X733319Y46920D01*
X733139Y44960D01*
X733100Y22320D01*
X733199Y20360D01*
X733500Y18420D01*
X733980Y16520D01*
X734659Y14680D01*
X735500Y12900D01*
X736520Y11240D01*
X737720Y9680D01*
X739040Y8240D01*
X740520Y6939D01*
X742120Y5780D01*
X743820Y4800D01*
X745600Y4000D01*
X747460Y3380D01*
X749380Y2940D01*
X751320Y2700D01*
X753280Y2640D01*
X755240Y2800D01*
X757180Y3140D01*
X759060Y3660D01*
X760879Y4380D01*
X762640Y5280D01*
X764280Y6340D01*
X765819Y7560D01*
X767220Y8940D01*
X768480Y10440D01*
X769599Y12060D01*
X770520Y13779D01*
X771300Y15600D01*
X771860Y17460D01*
X772260Y19380D01*
X772460Y21340D01*
X772480Y43980D01*
X772380Y45940D01*
X772080Y47880D01*
X771600Y49780D01*
X770939Y51620D01*
X770080Y53400D01*
X769060Y55060D01*
X767880Y56640D01*
X766540Y58060D01*
X765060Y59360D01*
X763480Y60519D01*
X761780Y61500D01*
X759980Y62300D01*
X758120Y62920D01*
X756220Y63360D01*
X754260Y63600D01*
G37*
G36*
X476719Y63660D02*
G01*
X474760Y63500D01*
X472819Y63160D01*
X470940Y62640D01*
X469099Y61920D01*
X467360Y61020D01*
X465720Y59960D01*
X464180Y58740D01*
X462780Y57360D01*
X461520Y55860D01*
X460400Y54240D01*
X459460Y52520D01*
X458700Y50700D01*
X458120Y48840D01*
X457740Y46920D01*
X457540Y44960D01*
X457520Y22320D01*
X457620Y20360D01*
X457900Y18420D01*
X458400Y16520D01*
X459060Y14680D01*
X459920Y12900D01*
X460940Y11240D01*
X462120Y9680D01*
X463459Y8240D01*
X464940Y6939D01*
X466520Y5780D01*
X468220Y4800D01*
X470020Y4000D01*
X471880Y3380D01*
X473780Y2940D01*
X475740Y2700D01*
X477700Y2640D01*
X479660Y2800D01*
X481580Y3140D01*
X483480Y3660D01*
X485300Y4380D01*
X487040Y5280D01*
X488700Y6340D01*
X490220Y7560D01*
X491640Y8940D01*
X492900Y10440D01*
X494000Y12060D01*
X494940Y13779D01*
X495700Y15600D01*
X496280Y17460D01*
X496659Y19380D01*
X496860Y21340D01*
X496880Y43980D01*
X496800Y45940D01*
X496500Y47880D01*
X496019Y49780D01*
X495340Y51620D01*
X494500Y53400D01*
X493459Y55060D01*
X492280Y56640D01*
X490940Y58060D01*
X489480Y59360D01*
X487879Y60519D01*
X486180Y61500D01*
X484400Y62300D01*
X482540Y62920D01*
X480620Y63360D01*
X478680Y63600D01*
G37*
G36*
X707520Y-54440D02*
G01*
X705660Y-54540D01*
X703820Y-54820D01*
X702000Y-55279D01*
X700260Y-55920D01*
X698580Y-56720D01*
X696979Y-57699D01*
X695500Y-58820D01*
X694140Y-60100D01*
X692900Y-61480D01*
X691800Y-63000D01*
X690879Y-64620D01*
X690100Y-66320D01*
X689520Y-68080D01*
X689100Y-69900D01*
X688860Y-71760D01*
X688820Y-73620D01*
X688960Y-75480D01*
X689280Y-77320D01*
X689800Y-79100D01*
X690480Y-80840D01*
X691320Y-82500D01*
X692340Y-84060D01*
X693500Y-85520D01*
X694800Y-86860D01*
X696220Y-88059D01*
X697760Y-89100D01*
X699400Y-90000D01*
X701120Y-90719D01*
X702900Y-91280D01*
X704740Y-91640D01*
X706580Y-91820D01*
X719340Y-91860D01*
X721200Y-91760D01*
X723040Y-91480D01*
X724840Y-91020D01*
X726600Y-90380D01*
X728280Y-89580D01*
X729860Y-88600D01*
X731360Y-87480D01*
X732720Y-86199D01*
X733960Y-84820D01*
X735040Y-83300D01*
X735980Y-81679D01*
X736740Y-79980D01*
X737340Y-78220D01*
X737740Y-76400D01*
X737980Y-74540D01*
X738020Y-72680D01*
X737880Y-70820D01*
X737560Y-68980D01*
X737060Y-67200D01*
X736380Y-65460D01*
X735520Y-63800D01*
X734520Y-62240D01*
X733360Y-60780D01*
X732039Y-59440D01*
X730620Y-58240D01*
X729080Y-57200D01*
X727440Y-56300D01*
X725720Y-55580D01*
X723940Y-55020D01*
X722120Y-54660D01*
X720260Y-54480D01*
G37*
G36*
X510660Y-54440D02*
G01*
X508800Y-54540D01*
X506960Y-54820D01*
X505160Y-55279D01*
X503400Y-55920D01*
X501719Y-56720D01*
X500140Y-57699D01*
X498640Y-58820D01*
X497280Y-60100D01*
X496040Y-61480D01*
X494960Y-63000D01*
X494020Y-64620D01*
X493260Y-66320D01*
X492660Y-68080D01*
X492260Y-69900D01*
X492020Y-71760D01*
X491980Y-73620D01*
X492120Y-75480D01*
X492440Y-77320D01*
X492939Y-79100D01*
X493620Y-80840D01*
X494480Y-82500D01*
X495480Y-84060D01*
X496640Y-85520D01*
X497939Y-86860D01*
X499380Y-88059D01*
X500920Y-89100D01*
X502560Y-90000D01*
X504280Y-90719D01*
X506060Y-91280D01*
X507879Y-91640D01*
X509739Y-91820D01*
X522480Y-91860D01*
X524340Y-91760D01*
X526180Y-91480D01*
X528000Y-91020D01*
X529740Y-90380D01*
X531420Y-89580D01*
X533020Y-88600D01*
X534500Y-87480D01*
X535860Y-86199D01*
X537100Y-84820D01*
X538180Y-83300D01*
X539120Y-81679D01*
X539880Y-79980D01*
X540480Y-78220D01*
X540900Y-76400D01*
X541120Y-74540D01*
X541180Y-72680D01*
X541040Y-70820D01*
X540720Y-68980D01*
X540200Y-67200D01*
X539520Y-65460D01*
X538680Y-63800D01*
X537660Y-62240D01*
X536500Y-60780D01*
X535200Y-59440D01*
X533780Y-58240D01*
X532240Y-57200D01*
X530600Y-56300D01*
X528880Y-55580D01*
X527100Y-55020D01*
X525260Y-54660D01*
X523420Y-54480D01*
G37*
G36*
X658300Y-46540D02*
G01*
X658300Y-99740D01*
X674100Y-99740D01*
X674100Y-46540D01*
G37*
G36*
X632700Y-46540D02*
G01*
X632700Y-99740D01*
X648500Y-99740D01*
X648500Y-46540D01*
G37*
G36*
X607100Y-46560D02*
G01*
X607100Y-99740D01*
X622900Y-99740D01*
X622900Y-46560D01*
G37*
G36*
X581500Y-46560D02*
G01*
X581500Y-99740D01*
X597300Y-99740D01*
X597300Y-46560D01*
G37*
G36*
X555900Y-46540D02*
G01*
X555900Y-99740D01*
X571700Y-99740D01*
X571700Y-46540D01*
G37*
G36*
X832900Y-128620D02*
G01*
X831960Y-129560D01*
X831960Y-140440D01*
X832900Y-141380D01*
X845860Y-141380D01*
X846820Y-140440D01*
X846820Y-129560D01*
X845860Y-128620D01*
G37*
G36*
X854140Y-128620D02*
G01*
X853180Y-129560D01*
X853180Y-140440D01*
X854140Y-141380D01*
X867099Y-141380D01*
X868040Y-140440D01*
X868040Y-129560D01*
X867099Y-128620D01*
G37*
G36*
X829140Y-453620D02*
G01*
X828180Y-454560D01*
X828180Y-465439D01*
X829140Y-466380D01*
X842099Y-466380D01*
X843040Y-465439D01*
X843040Y-454560D01*
X842099Y-453620D01*
G37*
G36*
X807900Y-453620D02*
G01*
X806960Y-454560D01*
X806960Y-465439D01*
X807900Y-466380D01*
X820860Y-466380D01*
X821820Y-465439D01*
X821820Y-454560D01*
X820860Y-453620D01*
G37*
G36*
X537900Y-468620D02*
G01*
X536960Y-469560D01*
X536960Y-480439D01*
X537900Y-481380D01*
X550860Y-481380D01*
X551820Y-480439D01*
X551820Y-469560D01*
X550860Y-468620D01*
G37*
G36*
X559140Y-468620D02*
G01*
X558180Y-469560D01*
X558180Y-480439D01*
X559140Y-481380D01*
X572100Y-481380D01*
X573040Y-480439D01*
X573040Y-469560D01*
X572100Y-468620D01*
G37*
G36*
X794560Y-923180D02*
G01*
X793620Y-924140D01*
X793620Y-937099D01*
X794560Y-938040D01*
X805440Y-938040D01*
X806380Y-937099D01*
X806380Y-924140D01*
X805440Y-923180D01*
G37*
G36*
X794560Y-901960D02*
G01*
X793620Y-902900D01*
X793620Y-915860D01*
X794560Y-916820D01*
X805440Y-916820D01*
X806380Y-915860D01*
X806380Y-902900D01*
X805440Y-901960D01*
G37*
G36*
X852900Y-1163620D02*
G01*
X851960Y-1164560D01*
X851960Y-1175440D01*
X852900Y-1176380D01*
X865860Y-1176380D01*
X866820Y-1175440D01*
X866820Y-1164560D01*
X865860Y-1163620D01*
G37*
G36*
X874140Y-1163620D02*
G01*
X873180Y-1164560D01*
X873180Y-1175440D01*
X874140Y-1176380D01*
X887099Y-1176380D01*
X888040Y-1175440D01*
X888040Y-1164560D01*
X887099Y-1163620D01*
G37*
G36*
X757900Y-1243620D02*
G01*
X756960Y-1244560D01*
X756960Y-1255440D01*
X757900Y-1256380D01*
X770860Y-1256380D01*
X771820Y-1255440D01*
X771820Y-1244560D01*
X770860Y-1243620D01*
G37*
G36*
X779140Y-1243620D02*
G01*
X778180Y-1244560D01*
X778180Y-1255440D01*
X779140Y-1256380D01*
X792099Y-1256380D01*
X793040Y-1255440D01*
X793040Y-1244560D01*
X792099Y-1243620D01*
G37*
G36*
X419280Y-1343520D02*
G01*
X418340Y-1344460D01*
X418340Y-1357420D01*
X419280Y-1358380D01*
X430160Y-1358380D01*
X431100Y-1357420D01*
X431100Y-1344460D01*
X430160Y-1343520D01*
G37*
G36*
X419280Y-1364760D02*
G01*
X418340Y-1365700D01*
X418340Y-1378660D01*
X419280Y-1379620D01*
X430160Y-1379620D01*
X431100Y-1378660D01*
X431100Y-1365700D01*
X430160Y-1364760D01*
G37*
G36*
X852900Y-1118620D02*
G01*
X851960Y-1119560D01*
X851960Y-1130440D01*
X852900Y-1131380D01*
X865860Y-1131380D01*
X866820Y-1130440D01*
X866820Y-1119560D01*
X865860Y-1118620D01*
G37*
G36*
X874140Y-1118620D02*
G01*
X873180Y-1119560D01*
X873180Y-1130440D01*
X874140Y-1131380D01*
X887099Y-1131380D01*
X888040Y-1130440D01*
X888040Y-1119560D01*
X887099Y-1118620D01*
G37*
G36*
X682900Y-1318620D02*
G01*
X681960Y-1319560D01*
X681960Y-1330440D01*
X682900Y-1331380D01*
X695860Y-1331380D01*
X696820Y-1330440D01*
X696820Y-1319560D01*
X695860Y-1318620D01*
G37*
G36*
X704140Y-1318620D02*
G01*
X703180Y-1319560D01*
X703180Y-1330440D01*
X704140Y-1331380D01*
X717099Y-1331380D01*
X718040Y-1330440D01*
X718040Y-1319560D01*
X717099Y-1318620D01*
G37*
G36*
X374140Y-1018620D02*
G01*
X373180Y-1019560D01*
X373180Y-1030440D01*
X374140Y-1031380D01*
X387100Y-1031380D01*
X388040Y-1030440D01*
X388040Y-1019560D01*
X387100Y-1018620D01*
G37*
G36*
X352900Y-1018620D02*
G01*
X351960Y-1019560D01*
X351960Y-1030440D01*
X352900Y-1031380D01*
X365860Y-1031380D01*
X366820Y-1030440D01*
X366820Y-1019560D01*
X365860Y-1018620D01*
G37*
G36*
X709560Y-1443180D02*
G01*
X708620Y-1444139D01*
X708620Y-1457100D01*
X709560Y-1458040D01*
X720440Y-1458040D01*
X721380Y-1457100D01*
X721380Y-1444139D01*
X720440Y-1443180D01*
G37*
G36*
X709560Y-1421960D02*
G01*
X708620Y-1422900D01*
X708620Y-1435860D01*
X709560Y-1436819D01*
X720440Y-1436819D01*
X721380Y-1435860D01*
X721380Y-1422900D01*
X720440Y-1421960D01*
G37*
G36*
X464720Y-1343060D02*
G01*
X463780Y-1344000D01*
X463780Y-1356960D01*
X464720Y-1357920D01*
X475600Y-1357920D01*
X476540Y-1356960D01*
X476540Y-1344000D01*
X475600Y-1343060D01*
G37*
G36*
X464720Y-1364300D02*
G01*
X463780Y-1365240D01*
X463780Y-1378200D01*
X464720Y-1379160D01*
X475600Y-1379160D01*
X476540Y-1378200D01*
X476540Y-1365240D01*
X475600Y-1364300D01*
G37*
G36*
X699560Y-571960D02*
G01*
X698620Y-572900D01*
X698620Y-585860D01*
X699560Y-586820D01*
X710440Y-586820D01*
X711380Y-585860D01*
X711380Y-572900D01*
X710440Y-571960D01*
G37*
G36*
X699560Y-593180D02*
G01*
X698620Y-594140D01*
X698620Y-607100D01*
X699560Y-608040D01*
X710440Y-608040D01*
X711380Y-607100D01*
X711380Y-594140D01*
X710440Y-593180D01*
G37*
G36*
X414560Y-29520D02*
G01*
X413620Y-30460D01*
X413620Y-40860D01*
X414560Y-41820D01*
X425439Y-41820D01*
X426380Y-40860D01*
X426380Y-30460D01*
X425439Y-29520D01*
G37*
G36*
X414560Y-48179D02*
G01*
X413620Y-49140D01*
X413620Y-59540D01*
X414560Y-60480D01*
X425439Y-60480D01*
X426380Y-59540D01*
X426380Y-49140D01*
X425439Y-48179D01*
G37*
G36*
X749140Y-403620D02*
G01*
X748180Y-404560D01*
X748180Y-415439D01*
X749140Y-416380D01*
X759539Y-416380D01*
X760480Y-415439D01*
X760480Y-404560D01*
X759539Y-403620D01*
G37*
G36*
X730460Y-403620D02*
G01*
X729520Y-404560D01*
X729520Y-415439D01*
X730460Y-416380D01*
X740860Y-416380D01*
X741820Y-415439D01*
X741820Y-404560D01*
X740860Y-403620D01*
G37*
G36*
X409560Y-2003180D02*
G01*
X408620Y-2004139D01*
X408620Y-2014540D01*
X409560Y-2015480D01*
X420439Y-2015480D01*
X421380Y-2014540D01*
X421380Y-2004139D01*
X420439Y-2003180D01*
G37*
G36*
X409560Y-1984520D02*
G01*
X408620Y-1985460D01*
X408620Y-1995860D01*
X409560Y-1996819D01*
X420439Y-1996819D01*
X421380Y-1995860D01*
X421380Y-1985460D01*
X420439Y-1984520D01*
G37*
G36*
X369560Y-2003180D02*
G01*
X368620Y-2004139D01*
X368620Y-2014540D01*
X369560Y-2015480D01*
X380439Y-2015480D01*
X381380Y-2014540D01*
X381380Y-2004139D01*
X380439Y-2003180D01*
G37*
G36*
X369560Y-1984520D02*
G01*
X368620Y-1985460D01*
X368620Y-1995860D01*
X369560Y-1996819D01*
X380439Y-1996819D01*
X381380Y-1995860D01*
X381380Y-1985460D01*
X380439Y-1984520D01*
G37*
G36*
X819140Y-1973620D02*
G01*
X818180Y-1974560D01*
X818180Y-1985440D01*
X819140Y-1986380D01*
X829539Y-1986380D01*
X830480Y-1985440D01*
X830480Y-1974560D01*
X829539Y-1973620D01*
G37*
G36*
X800460Y-1973620D02*
G01*
X799520Y-1974560D01*
X799520Y-1985440D01*
X800460Y-1986380D01*
X810860Y-1986380D01*
X811820Y-1985440D01*
X811820Y-1974560D01*
X810860Y-1973620D01*
G37*
G36*
X515460Y-273620D02*
G01*
X514520Y-274560D01*
X514520Y-285440D01*
X515460Y-286380D01*
X525860Y-286380D01*
X526820Y-285440D01*
X526820Y-274560D01*
X525860Y-273620D01*
G37*
G36*
X534140Y-273620D02*
G01*
X533180Y-274560D01*
X533180Y-285440D01*
X534140Y-286380D01*
X544540Y-286380D01*
X545480Y-285440D01*
X545480Y-274560D01*
X544540Y-273620D01*
G37*
G36*
X754560Y-178180D02*
G01*
X753620Y-179140D01*
X753620Y-189540D01*
X754560Y-190479D01*
X765440Y-190479D01*
X766380Y-189540D01*
X766380Y-179140D01*
X765440Y-178180D01*
G37*
G36*
X754560Y-159520D02*
G01*
X753620Y-160460D01*
X753620Y-170859D01*
X754560Y-171820D01*
X765440Y-171820D01*
X766380Y-170859D01*
X766380Y-160460D01*
X765440Y-159520D01*
G37*
G36*
X414140Y-513620D02*
G01*
X413180Y-514560D01*
X413180Y-525440D01*
X414140Y-526380D01*
X424540Y-526380D01*
X425480Y-525440D01*
X425480Y-514560D01*
X424540Y-513620D01*
G37*
G36*
X395460Y-513620D02*
G01*
X394520Y-514560D01*
X394520Y-525440D01*
X395460Y-526380D01*
X405860Y-526380D01*
X406820Y-525440D01*
X406820Y-514560D01*
X405860Y-513620D01*
G37*
G36*
X445460Y-273620D02*
G01*
X444520Y-274560D01*
X444520Y-285440D01*
X445460Y-286380D01*
X455860Y-286380D01*
X456820Y-285440D01*
X456820Y-274560D01*
X455860Y-273620D01*
G37*
G36*
X464140Y-273620D02*
G01*
X463180Y-274560D01*
X463180Y-285440D01*
X464140Y-286380D01*
X474540Y-286380D01*
X475480Y-285440D01*
X475480Y-274560D01*
X474540Y-273620D01*
G37*
G36*
X739560Y-514520D02*
G01*
X738620Y-515460D01*
X738620Y-525860D01*
X739560Y-526820D01*
X750440Y-526820D01*
X751380Y-525860D01*
X751380Y-515460D01*
X750440Y-514520D01*
G37*
G36*
X739560Y-533180D02*
G01*
X738620Y-534140D01*
X738620Y-544540D01*
X739560Y-545480D01*
X750440Y-545480D01*
X751380Y-544540D01*
X751380Y-534140D01*
X750440Y-533180D01*
G37*
G36*
X739560Y-574520D02*
G01*
X738620Y-575460D01*
X738620Y-585860D01*
X739560Y-586820D01*
X750440Y-586820D01*
X751380Y-585860D01*
X751380Y-575460D01*
X750440Y-574520D01*
G37*
G36*
X739560Y-593180D02*
G01*
X738620Y-594140D01*
X738620Y-604540D01*
X739560Y-605480D01*
X750440Y-605480D01*
X751380Y-604540D01*
X751380Y-594140D01*
X750440Y-593180D01*
G37*
G36*
X779560Y-574520D02*
G01*
X778620Y-575460D01*
X778620Y-585860D01*
X779560Y-586820D01*
X790440Y-586820D01*
X791380Y-585860D01*
X791380Y-575460D01*
X790440Y-574520D01*
G37*
G36*
X779560Y-593180D02*
G01*
X778620Y-594140D01*
X778620Y-604540D01*
X779560Y-605480D01*
X790440Y-605480D01*
X791380Y-604540D01*
X791380Y-594140D01*
X790440Y-593180D01*
G37*
G36*
X414140Y-468620D02*
G01*
X413180Y-469560D01*
X413180Y-480439D01*
X414140Y-481380D01*
X424540Y-481380D01*
X425480Y-480439D01*
X425480Y-469560D01*
X424540Y-468620D01*
G37*
G36*
X395460Y-468620D02*
G01*
X394520Y-469560D01*
X394520Y-480439D01*
X395460Y-481380D01*
X405860Y-481380D01*
X406820Y-480439D01*
X406820Y-469560D01*
X405860Y-468620D01*
G37*
G36*
X445460Y-1458620D02*
G01*
X444520Y-1459560D01*
X444520Y-1470440D01*
X445460Y-1471380D01*
X455860Y-1471380D01*
X456820Y-1470440D01*
X456820Y-1459560D01*
X455860Y-1458620D01*
G37*
G36*
X464140Y-1458620D02*
G01*
X463180Y-1459560D01*
X463180Y-1470440D01*
X464140Y-1471380D01*
X474540Y-1471380D01*
X475480Y-1470440D01*
X475480Y-1459560D01*
X474540Y-1458620D01*
G37*
G36*
X664560Y-1424520D02*
G01*
X663620Y-1425460D01*
X663620Y-1435860D01*
X664560Y-1436819D01*
X675440Y-1436819D01*
X676380Y-1435860D01*
X676380Y-1425460D01*
X675440Y-1424520D01*
G37*
G36*
X664560Y-1443180D02*
G01*
X663620Y-1444139D01*
X663620Y-1454540D01*
X664560Y-1455480D01*
X675440Y-1455480D01*
X676380Y-1454540D01*
X676380Y-1444139D01*
X675440Y-1443180D01*
G37*
G36*
X845460Y-973620D02*
G01*
X844520Y-974560D01*
X844520Y-985440D01*
X845460Y-986380D01*
X855860Y-986380D01*
X856820Y-985440D01*
X856820Y-974560D01*
X855860Y-973620D01*
G37*
G36*
X864140Y-973620D02*
G01*
X863180Y-974560D01*
X863180Y-985440D01*
X864140Y-986380D01*
X874539Y-986380D01*
X875480Y-985440D01*
X875480Y-974560D01*
X874539Y-973620D01*
G37*
G36*
X814560Y-823180D02*
G01*
X813620Y-824140D01*
X813620Y-834539D01*
X814560Y-835480D01*
X825440Y-835480D01*
X826380Y-834539D01*
X826380Y-824140D01*
X825440Y-823180D01*
G37*
G36*
X814560Y-804520D02*
G01*
X813620Y-805460D01*
X813620Y-815860D01*
X814560Y-816820D01*
X825440Y-816820D01*
X826380Y-815860D01*
X826380Y-805460D01*
X825440Y-804520D01*
G37*
G36*
X709560Y-159520D02*
G01*
X708620Y-160460D01*
X708620Y-170859D01*
X709560Y-171820D01*
X720440Y-171820D01*
X721380Y-170859D01*
X721380Y-160460D01*
X720440Y-159520D01*
G37*
G36*
X709560Y-178180D02*
G01*
X708620Y-179140D01*
X708620Y-189540D01*
X709560Y-190479D01*
X720440Y-190479D01*
X721380Y-189540D01*
X721380Y-179140D01*
X720440Y-178180D01*
G37*
G36*
X604560Y-794520D02*
G01*
X603620Y-795460D01*
X603620Y-805860D01*
X604560Y-806800D01*
X615440Y-806800D01*
X616380Y-805860D01*
X616380Y-795460D01*
X615440Y-794520D01*
G37*
G36*
X604560Y-813180D02*
G01*
X603620Y-814140D01*
X603620Y-824539D01*
X604560Y-825480D01*
X615440Y-825480D01*
X616380Y-824539D01*
X616380Y-814140D01*
X615440Y-813180D01*
G37*
G36*
X564560Y-794520D02*
G01*
X563620Y-795460D01*
X563620Y-805860D01*
X564560Y-806800D01*
X575440Y-806800D01*
X576380Y-805860D01*
X576380Y-795460D01*
X575440Y-794520D01*
G37*
G36*
X564560Y-813180D02*
G01*
X563620Y-814140D01*
X563620Y-824539D01*
X564560Y-825480D01*
X575440Y-825480D01*
X576380Y-824539D01*
X576380Y-814140D01*
X575440Y-813180D01*
G37*
G36*
X864140Y-1018620D02*
G01*
X863180Y-1019560D01*
X863180Y-1030440D01*
X864140Y-1031380D01*
X874539Y-1031380D01*
X875480Y-1030440D01*
X875480Y-1019560D01*
X874539Y-1018620D01*
G37*
G36*
X845460Y-1018620D02*
G01*
X844520Y-1019560D01*
X844520Y-1030440D01*
X845460Y-1031380D01*
X855860Y-1031380D01*
X856820Y-1030440D01*
X856820Y-1019560D01*
X855860Y-1018620D01*
G37*
G36*
X362900Y-883620D02*
G01*
X361960Y-884560D01*
X361960Y-895440D01*
X362900Y-896380D01*
X375860Y-896380D01*
X376820Y-895440D01*
X376820Y-884560D01*
X375860Y-883620D01*
G37*
G36*
X384140Y-883620D02*
G01*
X383180Y-884560D01*
X383180Y-895440D01*
X384140Y-896380D01*
X397100Y-896380D01*
X398040Y-895440D01*
X398040Y-884560D01*
X397100Y-883620D01*
G37*
G36*
X524560Y-813180D02*
G01*
X523620Y-814140D01*
X523620Y-827099D01*
X524560Y-828040D01*
X535440Y-828040D01*
X536380Y-827099D01*
X536380Y-814140D01*
X535440Y-813180D01*
G37*
G36*
X524560Y-791940D02*
G01*
X523620Y-792900D01*
X523620Y-805860D01*
X524560Y-806800D01*
X535440Y-806800D01*
X536380Y-805860D01*
X536380Y-792900D01*
X535440Y-791940D01*
G37*
G36*
X532000Y-1007020D02*
G01*
X532000Y-1133000D01*
X658000Y-1133000D01*
X658000Y-1007020D01*
G37*
G36*
X718520Y-955819D02*
G01*
X718520Y-963700D01*
X752980Y-963700D01*
X752980Y-955819D01*
G37*
G36*
X718520Y-971580D02*
G01*
X718520Y-979460D01*
X752980Y-979460D01*
X752980Y-971580D01*
G37*
G36*
X718520Y-987340D02*
G01*
X718520Y-995220D01*
X752980Y-995220D01*
X752980Y-987340D01*
G37*
G36*
X718520Y-1003060D02*
G01*
X718520Y-1010939D01*
X752980Y-1010939D01*
X752980Y-1003060D01*
G37*
G36*
X718520Y-1018820D02*
G01*
X718520Y-1026680D01*
X752980Y-1026680D01*
X752980Y-1018820D01*
G37*
G36*
X718520Y-1034560D02*
G01*
X718520Y-1042440D01*
X752980Y-1042440D01*
X752980Y-1034560D01*
G37*
G36*
X718520Y-1050320D02*
G01*
X718520Y-1058180D01*
X752980Y-1058180D01*
X752980Y-1050320D01*
G37*
G36*
X718520Y-1066080D02*
G01*
X718520Y-1073940D01*
X752980Y-1073940D01*
X752980Y-1066080D01*
G37*
G36*
X718520Y-1081800D02*
G01*
X718520Y-1089680D01*
X752980Y-1089680D01*
X752980Y-1081800D01*
G37*
G36*
X718520Y-1097560D02*
G01*
X718520Y-1105440D01*
X752980Y-1105440D01*
X752980Y-1097560D01*
G37*
G36*
X718520Y-1113300D02*
G01*
X718520Y-1121180D01*
X752980Y-1121180D01*
X752980Y-1113300D01*
G37*
G36*
X718520Y-1129060D02*
G01*
X718520Y-1136940D01*
X752980Y-1136940D01*
X752980Y-1129060D01*
G37*
G36*
X718520Y-1144820D02*
G01*
X718520Y-1152680D01*
X752980Y-1152680D01*
X752980Y-1144820D01*
G37*
G36*
X718520Y-1160540D02*
G01*
X718520Y-1168420D01*
X752980Y-1168420D01*
X752980Y-1160540D01*
G37*
G36*
X718520Y-1176300D02*
G01*
X718520Y-1184160D01*
X752980Y-1184160D01*
X752980Y-1176300D01*
G37*
G36*
X480840Y-912020D02*
G01*
X480840Y-946480D01*
X488700Y-946480D01*
X488700Y-912020D01*
G37*
G36*
X701300Y-912020D02*
G01*
X701300Y-946480D01*
X709180Y-946480D01*
X709180Y-912020D01*
G37*
G36*
X591060Y-912020D02*
G01*
X591060Y-946480D01*
X598940Y-946480D01*
X598940Y-912020D01*
G37*
G36*
X575320Y-912020D02*
G01*
X575320Y-946480D01*
X583180Y-946480D01*
X583180Y-912020D01*
G37*
G36*
X685560Y-912020D02*
G01*
X685560Y-946480D01*
X693420Y-946480D01*
X693420Y-912020D01*
G37*
G36*
X559580Y-912020D02*
G01*
X559580Y-946480D01*
X567440Y-946480D01*
X567440Y-912020D01*
G37*
G36*
X669800Y-912020D02*
G01*
X669800Y-946480D01*
X677680Y-946480D01*
X677680Y-912020D01*
G37*
G36*
X606820Y-912020D02*
G01*
X606820Y-946480D01*
X614680Y-946480D01*
X614680Y-912020D01*
G37*
G36*
X543820Y-912020D02*
G01*
X543820Y-946480D01*
X551700Y-946480D01*
X551700Y-912020D01*
G37*
G36*
X496580Y-912020D02*
G01*
X496580Y-946480D01*
X504440Y-946480D01*
X504440Y-912020D01*
G37*
G36*
X654060Y-912020D02*
G01*
X654060Y-946480D01*
X661919Y-946480D01*
X661919Y-912020D01*
G37*
G36*
X528080Y-912020D02*
G01*
X528080Y-946480D01*
X535940Y-946480D01*
X535940Y-912020D01*
G37*
G36*
X638320Y-912020D02*
G01*
X638320Y-946480D01*
X646180Y-946480D01*
X646180Y-912020D01*
G37*
G36*
X512320Y-912020D02*
G01*
X512320Y-946480D01*
X520200Y-946480D01*
X520200Y-912020D01*
G37*
G36*
X622560Y-912020D02*
G01*
X622560Y-946480D01*
X630440Y-946480D01*
X630440Y-912020D01*
G37*
G36*
X437020Y-955819D02*
G01*
X437020Y-963700D01*
X471480Y-963700D01*
X471480Y-955819D01*
G37*
G36*
X437020Y-971580D02*
G01*
X437020Y-979460D01*
X471480Y-979460D01*
X471480Y-971580D01*
G37*
G36*
X437020Y-987320D02*
G01*
X437020Y-995200D01*
X471480Y-995200D01*
X471480Y-987320D01*
G37*
G36*
X437020Y-1003080D02*
G01*
X437020Y-1010939D01*
X471480Y-1010939D01*
X471480Y-1003080D01*
G37*
G36*
X437020Y-1018820D02*
G01*
X437020Y-1026680D01*
X471480Y-1026680D01*
X471480Y-1018820D01*
G37*
G36*
X437020Y-1034560D02*
G01*
X437020Y-1042440D01*
X471480Y-1042440D01*
X471480Y-1034560D01*
G37*
G36*
X437020Y-1050320D02*
G01*
X437020Y-1058180D01*
X471480Y-1058180D01*
X471480Y-1050320D01*
G37*
G36*
X437020Y-1066060D02*
G01*
X437020Y-1073940D01*
X471480Y-1073940D01*
X471480Y-1066060D01*
G37*
G36*
X437020Y-1081800D02*
G01*
X437020Y-1089680D01*
X471480Y-1089680D01*
X471480Y-1081800D01*
G37*
G36*
X437020Y-1097560D02*
G01*
X437020Y-1105440D01*
X471480Y-1105440D01*
X471480Y-1097560D01*
G37*
G36*
X437020Y-1113300D02*
G01*
X437020Y-1121180D01*
X471480Y-1121180D01*
X471480Y-1113300D01*
G37*
G36*
X437020Y-1129060D02*
G01*
X437020Y-1136940D01*
X471480Y-1136940D01*
X471480Y-1129060D01*
G37*
G36*
X437020Y-1144800D02*
G01*
X437020Y-1152680D01*
X471480Y-1152680D01*
X471480Y-1144800D01*
G37*
G36*
X437020Y-1160560D02*
G01*
X437020Y-1168420D01*
X471480Y-1168420D01*
X471480Y-1160560D01*
G37*
G36*
X437020Y-1176300D02*
G01*
X437020Y-1184160D01*
X471480Y-1184160D01*
X471480Y-1176300D01*
G37*
G36*
X701300Y-1193520D02*
G01*
X701300Y-1227960D01*
X709180Y-1227960D01*
X709180Y-1193520D01*
G37*
G36*
X480840Y-1193520D02*
G01*
X480840Y-1227960D01*
X488700Y-1227960D01*
X488700Y-1193520D01*
G37*
G36*
X591060Y-1193520D02*
G01*
X591060Y-1227960D01*
X598940Y-1227960D01*
X598940Y-1193520D01*
G37*
G36*
X606820Y-1193520D02*
G01*
X606820Y-1227960D01*
X614680Y-1227960D01*
X614680Y-1193520D01*
G37*
G36*
X496580Y-1193520D02*
G01*
X496580Y-1227960D01*
X504440Y-1227960D01*
X504440Y-1193520D01*
G37*
G36*
X622560Y-1193520D02*
G01*
X622560Y-1227960D01*
X630440Y-1227960D01*
X630440Y-1193520D01*
G37*
G36*
X512320Y-1193520D02*
G01*
X512320Y-1227960D01*
X520200Y-1227960D01*
X520200Y-1193520D01*
G37*
G36*
X575320Y-1193520D02*
G01*
X575320Y-1227960D01*
X583180Y-1227960D01*
X583180Y-1193520D01*
G37*
G36*
X638320Y-1193520D02*
G01*
X638320Y-1227960D01*
X646180Y-1227960D01*
X646180Y-1193520D01*
G37*
G36*
X685560Y-1193520D02*
G01*
X685560Y-1227960D01*
X693420Y-1227960D01*
X693420Y-1193520D01*
G37*
G36*
X528080Y-1193520D02*
G01*
X528080Y-1227960D01*
X535940Y-1227960D01*
X535940Y-1193520D01*
G37*
G36*
X654060Y-1193520D02*
G01*
X654060Y-1227960D01*
X661919Y-1227960D01*
X661919Y-1193520D01*
G37*
G36*
X543820Y-1193520D02*
G01*
X543820Y-1227960D01*
X551700Y-1227960D01*
X551700Y-1193520D01*
G37*
G36*
X669800Y-1193520D02*
G01*
X669800Y-1227960D01*
X677680Y-1227960D01*
X677680Y-1193520D01*
G37*
G36*
X559580Y-1193520D02*
G01*
X559580Y-1227960D01*
X567440Y-1227960D01*
X567440Y-1193520D01*
G37*
D10*
G01*
X838460Y-180000D03*
G01*
X871529Y-180000D03*
G01*
X836529Y-410000D03*
G01*
X803460Y-410000D03*
G01*
X543460Y-520000D03*
G01*
X576529Y-520000D03*
D11*
G01*
X865000Y-808460D03*
G01*
X865000Y-841540D03*
D10*
G01*
X688460Y-1375000D03*
G01*
X721540Y-1375000D03*
D11*
G01*
X400000Y-1546540D03*
G01*
X400000Y-1513460D03*
G01*
X400000Y-1631540D03*
G01*
X400000Y-1598460D03*
G01*
X400000Y-1716540D03*
G01*
X400000Y-1683460D03*
G01*
X400000Y-1801540D03*
G01*
X400000Y-1768460D03*
G01*
X845000Y-931540D03*
G01*
X845000Y-898460D03*
D10*
G01*
X851540Y-1074279D03*
G01*
X884619Y-1074279D03*
G01*
X683460Y-735000D03*
G01*
X716540Y-735000D03*
D12*
G01*
X840000Y4000D03*
G01*
X840000Y-84000D03*
D13*
G01*
X655630Y-805000D03*
G01*
X734369Y-805000D03*
D14*
G01*
X815000Y-560590D03*
G01*
X834690Y-509409D03*
G01*
X795320Y-509409D03*
D15*
G01*
X531779Y-332350D03*
G01*
X368460Y-332689D03*
G01*
X531799Y-417640D03*
G01*
X368200Y-417339D03*
G01*
X531779Y-142350D03*
G01*
X368460Y-142689D03*
G01*
X531799Y-227640D03*
G01*
X368200Y-227339D03*
D16*
G01*
X390199Y-587750D03*
G01*
X390199Y-619250D03*
G01*
X390199Y-650749D03*
G01*
X390199Y-682240D03*
G01*
X539800Y-682240D03*
G01*
X539800Y-650749D03*
G01*
X539800Y-619250D03*
G01*
X539800Y-587750D03*
D18*
G01*
X465000Y-635000D03*
D19*
G01*
X500590Y-1512289D03*
G01*
X500590Y-1547719D03*
G01*
X449409Y-1512289D03*
G01*
X449409Y-1547719D03*
G01*
X605590Y-1512289D03*
G01*
X605590Y-1547719D03*
G01*
X554409Y-1512289D03*
G01*
X554409Y-1547719D03*
G01*
X710590Y-1512280D03*
G01*
X710590Y-1547719D03*
G01*
X659409Y-1512280D03*
G01*
X659409Y-1547719D03*
G01*
X815590Y-1512289D03*
G01*
X815590Y-1547719D03*
G01*
X764409Y-1512289D03*
G01*
X764409Y-1547719D03*
G01*
X815590Y-1597280D03*
G01*
X815590Y-1632719D03*
G01*
X764409Y-1597280D03*
G01*
X764409Y-1632719D03*
G01*
X710590Y-1597280D03*
G01*
X710590Y-1632719D03*
G01*
X659409Y-1597280D03*
G01*
X659409Y-1632719D03*
G01*
X605590Y-1597280D03*
G01*
X605590Y-1632719D03*
G01*
X554409Y-1597280D03*
G01*
X554409Y-1632719D03*
G01*
X500590Y-1597280D03*
G01*
X500590Y-1632719D03*
G01*
X449409Y-1597280D03*
G01*
X449409Y-1632719D03*
G01*
X815590Y-1682289D03*
G01*
X815590Y-1717719D03*
G01*
X764409Y-1682289D03*
G01*
X764409Y-1717719D03*
G01*
X710590Y-1682280D03*
G01*
X710590Y-1717719D03*
G01*
X659409Y-1682280D03*
G01*
X659409Y-1717719D03*
G01*
X605590Y-1682289D03*
G01*
X605590Y-1717719D03*
G01*
X554409Y-1682289D03*
G01*
X554409Y-1717719D03*
G01*
X500590Y-1682289D03*
G01*
X500590Y-1717719D03*
G01*
X449409Y-1682289D03*
G01*
X449409Y-1717719D03*
G01*
X815590Y-1767280D03*
G01*
X815590Y-1802719D03*
G01*
X764409Y-1767280D03*
G01*
X764409Y-1802719D03*
G01*
X710590Y-1767280D03*
G01*
X710590Y-1802719D03*
G01*
X659409Y-1767280D03*
G01*
X659409Y-1802719D03*
G01*
X605590Y-1767280D03*
G01*
X605590Y-1802719D03*
G01*
X554409Y-1767280D03*
G01*
X554409Y-1802719D03*
G01*
X500590Y-1767280D03*
G01*
X500590Y-1802719D03*
G01*
X449409Y-1767280D03*
G01*
X449409Y-1802719D03*
D20*
G01*
X541540Y-1351689D03*
D21*
G01*
X541540Y-1438306D03*
G01*
X608469Y-1438306D03*
G01*
X608469Y-1351693D03*
D22*
G01*
X800000Y-261689D03*
G01*
X762600Y-261689D03*
G01*
X837399Y-261689D03*
G01*
X762600Y-348310D03*
G01*
X837399Y-348310D03*
M02*
