G04 Layer: BottomSolderMaskLayer*
G04 EasyEDA v6.5.51, 2026-05-14 19:13:19*
G04 5172052daa6a446c8bedac2976265e0c,22248b453a0342f8802807d087257acb,10*
G04 Gerber Generator version 0.2*
G04 Scale: 100 percent, Rotated: No, Reflected: No *
G04 Dimensions in inches *
G04 leading zeros omitted , absolute positions ,3 integer and 6 decimal *
%FSLAX36Y36*%
%MOIN*%

%AMMACRO1*4,1,8,-0.0323,-0.0335,-0.0335,-0.0323,-0.0335,0.0323,-0.0323,0.0335,0.0323,0.0335,0.0335,0.0323,0.0335,-0.0323,0.0323,-0.0335,-0.0323,-0.0335,0*%
%ADD10C,0.0670*%
%ADD11MACRO1*%
%ADD12O,0.053213X0.041401*%
%ADD13O,0.04337X0.065024*%
%ADD14O,0.0123X0.065024*%

%LPD*%
D10*
G01*
X965000Y-1885000D03*
G01*
X965000Y-1785000D03*
G01*
X965000Y-1685000D03*
G01*
X965000Y-1585000D03*
G01*
X965000Y-1485000D03*
G01*
X965000Y-1385000D03*
G01*
X965000Y-1285000D03*
G01*
X965000Y-1185000D03*
G01*
X965000Y-1085000D03*
G01*
X965000Y-985000D03*
G01*
X965000Y-885000D03*
G01*
X965000Y-785000D03*
G01*
X965000Y-685000D03*
G01*
X965000Y-585000D03*
G01*
X965000Y-485000D03*
G01*
X965000Y-385000D03*
G01*
X965000Y-285000D03*
G01*
X965000Y-185000D03*
G01*
X965000Y-85000D03*
D11*
G01*
X964998Y15001D03*
G01*
X514998Y-2004996D03*
D10*
G01*
X615000Y-2005000D03*
G01*
X715000Y-2005000D03*
G01*
X265000Y-1885000D03*
G01*
X265000Y-1785000D03*
G01*
X265000Y-1685000D03*
G01*
X265000Y-1585000D03*
G01*
X265000Y-1485000D03*
G01*
X265000Y-1385000D03*
G01*
X265000Y-1285000D03*
G01*
X265000Y-1185000D03*
G01*
X265000Y-1085000D03*
G01*
X265000Y-985000D03*
G01*
X265000Y-885000D03*
G01*
X265000Y-785000D03*
G01*
X265000Y-685000D03*
G01*
X265000Y-585000D03*
G01*
X265000Y-485000D03*
G01*
X265000Y-385000D03*
G01*
X265000Y-285000D03*
G01*
X265000Y-185000D03*
G01*
X265000Y-85000D03*
D11*
G01*
X265000Y15001D03*
D12*
G01*
X516570Y-73150D03*
G01*
X713420Y-73150D03*
D13*
G01*
X752790Y33150D03*
G01*
X477199Y33150D03*
D10*
G01*
X165000Y15000D03*
G01*
X165000Y-85000D03*
G01*
X165000Y-185000D03*
G01*
X165000Y-285000D03*
G01*
X165000Y-385000D03*
G01*
X165000Y-485000D03*
G01*
X165000Y-585000D03*
G01*
X165000Y-685000D03*
G01*
X165000Y-785000D03*
G01*
X165000Y-885000D03*
G01*
X165000Y-985000D03*
G01*
X165000Y-1085000D03*
G01*
X165000Y-1185000D03*
G01*
X165000Y-1285000D03*
G01*
X165000Y-1385000D03*
G01*
X165000Y-1485000D03*
G01*
X165000Y-1585000D03*
G01*
X165000Y-1685000D03*
G01*
X165000Y-1785000D03*
G01*
X165000Y-1885489D03*
G01*
X1070500Y15830D03*
G01*
X1070500Y-84169D03*
G01*
X1070500Y-184169D03*
G01*
X1070500Y-284169D03*
G01*
X1070500Y-384169D03*
G01*
X1070500Y-484169D03*
G01*
X1070500Y-584169D03*
G01*
X1070500Y-684169D03*
G01*
X1070500Y-784169D03*
G01*
X1070500Y-884169D03*
G01*
X1070500Y-984169D03*
G01*
X1070500Y-1084169D03*
G01*
X1070500Y-1184169D03*
G01*
X1070500Y-1284169D03*
G01*
X1070500Y-1384169D03*
G01*
X1070500Y-1484169D03*
G01*
X1070500Y-1584169D03*
G01*
X1070500Y-1684169D03*
G01*
X1070500Y-1784169D03*
G01*
X1070500Y-1884169D03*
G01*
X765000Y-1885000D03*
G01*
X665000Y-1885000D03*
G01*
X565000Y-1885000D03*
G01*
X465000Y-1885000D03*
M02*
