G04 Layer: TopSilkscreenLayer*
G04 EasyEDA v6.5.51, 2026-05-14 19:13:19*
G04 5172052daa6a446c8bedac2976265e0c,22248b453a0342f8802807d087257acb,10*
G04 Gerber Generator version 0.2*
G04 Scale: 100 percent, Rotated: No, Reflected: No *
G04 Dimensions in inches *
G04 leading zeros omitted , absolute positions ,3 integer and 6 decimal *
%FSLAX36Y36*%
%MOIN*%

%ADD10C,0.0080*%
%ADD11C,0.0060*%
%ADD12C,0.0060*%
%ADD13C,0.0100*%
%ADD14C,0.0075*%
%ADD15C,0.0079*%
%ADD16C,0.0039*%
%ADD17C,0.0030*%
%ADD18C,0.0129*%
%ADD19C,0.0118*%

%LPD*%
D10*
X560000Y-359699D02*
G01*
X560000Y-388400D01*
X560000Y-359699D02*
G01*
X572300Y-359699D01*
X576399Y-361100D01*
X577699Y-362500D01*
X579099Y-365199D01*
X579099Y-367899D01*
X577699Y-370599D01*
X576399Y-371999D01*
X572300Y-373400D01*
X560000Y-373400D02*
G01*
X572300Y-373400D01*
X576399Y-374699D01*
X577699Y-376100D01*
X579099Y-378800D01*
X579099Y-382899D01*
X577699Y-385599D01*
X576399Y-386999D01*
X572300Y-388400D01*
X560000Y-388400D01*
X596300Y-359699D02*
G01*
X593499Y-361100D01*
X590799Y-363800D01*
X589499Y-366500D01*
X588099Y-370599D01*
X588099Y-377500D01*
X589499Y-381500D01*
X590799Y-384299D01*
X593499Y-386999D01*
X596300Y-388400D01*
X601700Y-388400D01*
X604499Y-386999D01*
X607199Y-384299D01*
X608499Y-381500D01*
X609899Y-377500D01*
X609899Y-370599D01*
X608499Y-366500D01*
X607199Y-363800D01*
X604499Y-361100D01*
X601700Y-359699D01*
X596300Y-359699D01*
X627100Y-359699D02*
G01*
X624400Y-361100D01*
X621599Y-363800D01*
X620300Y-366500D01*
X618899Y-370599D01*
X618899Y-377500D01*
X620300Y-381500D01*
X621599Y-384299D01*
X624400Y-386999D01*
X627100Y-388400D01*
X632500Y-388400D01*
X635300Y-386999D01*
X638000Y-384299D01*
X639400Y-381500D01*
X640700Y-377500D01*
X640700Y-370599D01*
X639400Y-366500D01*
X638000Y-363800D01*
X635300Y-361100D01*
X632500Y-359699D01*
X627100Y-359699D01*
X659299Y-359699D02*
G01*
X659299Y-388400D01*
X649699Y-359699D02*
G01*
X668800Y-359699D01*
X575000Y-189731D02*
G01*
X575000Y-218332D01*
X575000Y-189731D02*
G01*
X587300Y-189731D01*
X591399Y-191131D01*
X592699Y-192431D01*
X594099Y-195131D01*
X594099Y-197932D01*
X592699Y-200632D01*
X591399Y-202031D01*
X587300Y-203332D01*
X575000Y-203332D01*
X584499Y-203332D02*
G01*
X594099Y-218332D01*
X622199Y-193832D02*
G01*
X619499Y-191131D01*
X615399Y-189731D01*
X609899Y-189731D01*
X605799Y-191131D01*
X603099Y-193832D01*
X603099Y-196532D01*
X604499Y-199232D01*
X605799Y-200632D01*
X608499Y-202031D01*
X616700Y-204731D01*
X619499Y-206131D01*
X620799Y-207431D01*
X622199Y-210131D01*
X622199Y-214232D01*
X619499Y-217031D01*
X615399Y-218332D01*
X609899Y-218332D01*
X605799Y-217031D01*
X603099Y-214232D01*
X640700Y-189731D02*
G01*
X640700Y-218332D01*
X631199Y-189731D02*
G01*
X650300Y-189731D01*
X905000Y-1979699D02*
G01*
X905000Y-2008400D01*
X905000Y-2008400D02*
G01*
X921399Y-2008400D01*
X930399Y-1979699D02*
G01*
X930399Y-2008400D01*
X930399Y-1979699D02*
G01*
X948100Y-1979699D01*
X930399Y-1993400D02*
G01*
X941300Y-1993400D01*
X930399Y-2008400D02*
G01*
X948100Y-2008400D01*
X957100Y-1979699D02*
G01*
X957100Y-2008400D01*
X957100Y-1979699D02*
G01*
X966599Y-1979699D01*
X970699Y-1981100D01*
X973500Y-1983800D01*
X974799Y-1986500D01*
X976199Y-1990599D01*
X976199Y-1997500D01*
X974799Y-2001500D01*
X973500Y-2004299D01*
X970699Y-2006999D01*
X966599Y-2008400D01*
X957100Y-2008400D01*
X361399Y-79699D02*
G01*
X347699Y-79699D01*
X346399Y-91999D01*
X347699Y-90599D01*
X351799Y-89299D01*
X355900Y-89299D01*
X360000Y-90599D01*
X362699Y-93400D01*
X364099Y-97500D01*
X364099Y-100199D01*
X362699Y-104299D01*
X360000Y-106999D01*
X355900Y-108400D01*
X351799Y-108400D01*
X347699Y-106999D01*
X346399Y-105599D01*
X345000Y-102899D01*
X373099Y-79699D02*
G01*
X384000Y-108400D01*
X394899Y-79699D02*
G01*
X384000Y-108400D01*
X597699Y-469699D02*
G01*
X612699Y-469699D01*
X604499Y-480599D01*
X608600Y-480599D01*
X611399Y-481999D01*
X612699Y-483400D01*
X614099Y-487500D01*
X614099Y-490199D01*
X612699Y-494299D01*
X610000Y-496999D01*
X605900Y-498400D01*
X601799Y-498400D01*
X597699Y-496999D01*
X596399Y-495599D01*
X595000Y-492899D01*
X624499Y-491500D02*
G01*
X623099Y-492899D01*
X624499Y-494299D01*
X625799Y-492899D01*
X624499Y-491500D01*
X637500Y-469699D02*
G01*
X652500Y-469699D01*
X644400Y-480599D01*
X648499Y-480599D01*
X651199Y-481999D01*
X652500Y-483400D01*
X653899Y-487500D01*
X653899Y-490199D01*
X652500Y-494299D01*
X649800Y-496999D01*
X645700Y-498400D01*
X641599Y-498400D01*
X637500Y-496999D01*
X636199Y-495599D01*
X634800Y-492899D01*
X662899Y-469699D02*
G01*
X673800Y-498400D01*
X684699Y-469699D02*
G01*
X673800Y-498400D01*
X810000Y-1910199D02*
G01*
X812699Y-1908800D01*
X816799Y-1904699D01*
X816799Y-1933400D01*
G36*
X356380Y24720D02*
G01*
X356380Y18720D01*
X383620Y18720D01*
X383620Y24720D01*
G37*
G36*
X783720Y-446360D02*
G01*
X783720Y-473620D01*
X789720Y-473620D01*
X789720Y-446360D01*
G37*
G36*
X873720Y-2016380D02*
G01*
X873720Y-2043620D01*
X879720Y-2043620D01*
X879720Y-2016380D01*
G37*
G36*
X475000Y-1526060D02*
G01*
X475000Y-1533940D01*
X478940Y-1530000D01*
G37*
G36*
X413960Y-1559560D02*
G01*
X413960Y-1563500D01*
X425760Y-1563500D01*
X425760Y-1559560D01*
G37*
G36*
X417900Y-1555620D02*
G01*
X417900Y-1567440D01*
X421840Y-1567440D01*
X421840Y-1555620D01*
G37*
G36*
X580000Y-1526060D02*
G01*
X580000Y-1533940D01*
X583940Y-1530000D01*
G37*
G36*
X518960Y-1559560D02*
G01*
X518960Y-1563500D01*
X530760Y-1563500D01*
X530760Y-1559560D01*
G37*
G36*
X522900Y-1555620D02*
G01*
X522900Y-1567440D01*
X526840Y-1567440D01*
X526840Y-1555620D01*
G37*
G36*
X685000Y-1526060D02*
G01*
X685000Y-1533940D01*
X688940Y-1530000D01*
G37*
G36*
X623960Y-1559560D02*
G01*
X623960Y-1563500D01*
X635760Y-1563500D01*
X635760Y-1559560D01*
G37*
G36*
X627900Y-1555620D02*
G01*
X627900Y-1567440D01*
X631840Y-1567440D01*
X631840Y-1555620D01*
G37*
G36*
X790000Y-1526060D02*
G01*
X790000Y-1533940D01*
X793940Y-1530000D01*
G37*
G36*
X728960Y-1559560D02*
G01*
X728960Y-1563500D01*
X740759Y-1563500D01*
X740759Y-1559560D01*
G37*
G36*
X732900Y-1555620D02*
G01*
X732900Y-1567440D01*
X736840Y-1567440D01*
X736840Y-1555620D01*
G37*
G36*
X790000Y-1611060D02*
G01*
X790000Y-1618940D01*
X793940Y-1615000D01*
G37*
G36*
X728960Y-1644560D02*
G01*
X728960Y-1648500D01*
X740759Y-1648500D01*
X740759Y-1644560D01*
G37*
G36*
X732900Y-1640620D02*
G01*
X732900Y-1652440D01*
X736840Y-1652440D01*
X736840Y-1640620D01*
G37*
G36*
X685000Y-1611060D02*
G01*
X685000Y-1618940D01*
X688940Y-1615000D01*
G37*
G36*
X623960Y-1644560D02*
G01*
X623960Y-1648500D01*
X635760Y-1648500D01*
X635760Y-1644560D01*
G37*
G36*
X627900Y-1640620D02*
G01*
X627900Y-1652440D01*
X631840Y-1652440D01*
X631840Y-1640620D01*
G37*
G36*
X580000Y-1611060D02*
G01*
X580000Y-1618940D01*
X583940Y-1615000D01*
G37*
G36*
X518960Y-1644560D02*
G01*
X518960Y-1648500D01*
X530760Y-1648500D01*
X530760Y-1644560D01*
G37*
G36*
X522900Y-1640620D02*
G01*
X522900Y-1652440D01*
X526840Y-1652440D01*
X526840Y-1640620D01*
G37*
G36*
X475000Y-1611060D02*
G01*
X475000Y-1618940D01*
X478940Y-1615000D01*
G37*
G36*
X413960Y-1644560D02*
G01*
X413960Y-1648500D01*
X425760Y-1648500D01*
X425760Y-1644560D01*
G37*
G36*
X417900Y-1640620D02*
G01*
X417900Y-1652440D01*
X421840Y-1652440D01*
X421840Y-1640620D01*
G37*
G36*
X790000Y-1696060D02*
G01*
X790000Y-1703940D01*
X793940Y-1700000D01*
G37*
G36*
X728960Y-1729560D02*
G01*
X728960Y-1733500D01*
X740759Y-1733500D01*
X740759Y-1729560D01*
G37*
G36*
X732900Y-1725620D02*
G01*
X732900Y-1737440D01*
X736840Y-1737440D01*
X736840Y-1725620D01*
G37*
G36*
X685000Y-1696060D02*
G01*
X685000Y-1703940D01*
X688940Y-1700000D01*
G37*
G36*
X623960Y-1729560D02*
G01*
X623960Y-1733500D01*
X635760Y-1733500D01*
X635760Y-1729560D01*
G37*
G36*
X627900Y-1725620D02*
G01*
X627900Y-1737440D01*
X631840Y-1737440D01*
X631840Y-1725620D01*
G37*
G36*
X580000Y-1696060D02*
G01*
X580000Y-1703940D01*
X583940Y-1700000D01*
G37*
G36*
X518960Y-1729560D02*
G01*
X518960Y-1733500D01*
X530760Y-1733500D01*
X530760Y-1729560D01*
G37*
G36*
X522900Y-1725620D02*
G01*
X522900Y-1737440D01*
X526840Y-1737440D01*
X526840Y-1725620D01*
G37*
G36*
X475000Y-1696060D02*
G01*
X475000Y-1703940D01*
X478940Y-1700000D01*
G37*
G36*
X413960Y-1729560D02*
G01*
X413960Y-1733500D01*
X425760Y-1733500D01*
X425760Y-1729560D01*
G37*
G36*
X417900Y-1725620D02*
G01*
X417900Y-1737440D01*
X421840Y-1737440D01*
X421840Y-1725620D01*
G37*
G36*
X790000Y-1781060D02*
G01*
X790000Y-1788940D01*
X793940Y-1785000D01*
G37*
G36*
X728960Y-1814560D02*
G01*
X728960Y-1818500D01*
X740759Y-1818500D01*
X740759Y-1814560D01*
G37*
G36*
X732900Y-1810620D02*
G01*
X732900Y-1822440D01*
X736840Y-1822440D01*
X736840Y-1810620D01*
G37*
G36*
X685000Y-1781060D02*
G01*
X685000Y-1788940D01*
X688940Y-1785000D01*
G37*
G36*
X623960Y-1814560D02*
G01*
X623960Y-1818500D01*
X635760Y-1818500D01*
X635760Y-1814560D01*
G37*
G36*
X627900Y-1810620D02*
G01*
X627900Y-1822440D01*
X631840Y-1822440D01*
X631840Y-1810620D01*
G37*
G36*
X580000Y-1781060D02*
G01*
X580000Y-1788940D01*
X583940Y-1785000D01*
G37*
G36*
X518960Y-1814560D02*
G01*
X518960Y-1818500D01*
X530760Y-1818500D01*
X530760Y-1814560D01*
G37*
G36*
X522900Y-1810620D02*
G01*
X522900Y-1822440D01*
X526840Y-1822440D01*
X526840Y-1810620D01*
G37*
G36*
X475000Y-1781060D02*
G01*
X475000Y-1788940D01*
X478940Y-1785000D01*
G37*
G36*
X413960Y-1814560D02*
G01*
X413960Y-1818500D01*
X425760Y-1818500D01*
X425760Y-1814560D01*
G37*
G36*
X417900Y-1810620D02*
G01*
X417900Y-1822440D01*
X421840Y-1822440D01*
X421840Y-1810620D01*
G37*
X1014997Y-1934998D02*
G01*
X1019997Y-1934998D01*
X1019997Y65001D01*
X914998Y65001D01*
X914998Y-1934998D01*
X1014997Y-1934998D01*
D11*
X883400Y-199587D02*
G01*
X863715Y-199587D01*
X889400Y-166327D02*
G01*
X889400Y-193587D01*
X863715Y-160327D02*
G01*
X883400Y-160327D01*
X826597Y-160412D02*
G01*
X846282Y-160412D01*
X846282Y-199668D02*
G01*
X826597Y-199668D01*
X820596Y-193670D02*
G01*
X820596Y-166410D01*
X791597Y-390410D02*
G01*
X811282Y-390410D01*
X785596Y-423670D02*
G01*
X785596Y-396410D01*
X811282Y-429670D02*
G01*
X791597Y-429670D01*
X848400Y-429585D02*
G01*
X828715Y-429585D01*
X828715Y-390329D02*
G01*
X848400Y-390329D01*
X854400Y-396327D02*
G01*
X854400Y-423587D01*
X588400Y-539587D02*
G01*
X568715Y-539587D01*
X594400Y-506327D02*
G01*
X594400Y-533587D01*
X568715Y-500327D02*
G01*
X588400Y-500327D01*
X531597Y-500412D02*
G01*
X551282Y-500412D01*
X551282Y-539668D02*
G01*
X531597Y-539668D01*
X525596Y-533670D02*
G01*
X525596Y-506410D01*
X845412Y-853400D02*
G01*
X845412Y-833715D01*
X878670Y-859402D02*
G01*
X851410Y-859402D01*
X884670Y-833715D02*
G01*
X884670Y-853400D01*
X884587Y-796599D02*
G01*
X884587Y-816284D01*
X845329Y-816284D02*
G01*
X845329Y-796599D01*
X851327Y-790598D02*
G01*
X878589Y-790598D01*
X733400Y-1394587D02*
G01*
X713715Y-1394587D01*
X739402Y-1361329D02*
G01*
X739402Y-1388589D01*
X713715Y-1355329D02*
G01*
X733400Y-1355329D01*
X676599Y-1355412D02*
G01*
X696284Y-1355412D01*
X696284Y-1394670D02*
G01*
X676599Y-1394670D01*
X670598Y-1388672D02*
G01*
X670598Y-1361410D01*
X419587Y-1501599D02*
G01*
X419587Y-1521284D01*
X386327Y-1495598D02*
G01*
X413587Y-1495598D01*
X380327Y-1521284D02*
G01*
X380327Y-1501599D01*
X380412Y-1558400D02*
G01*
X380412Y-1538715D01*
X419668Y-1538715D02*
G01*
X419668Y-1558400D01*
X413670Y-1564402D02*
G01*
X386410Y-1564402D01*
X419587Y-1586599D02*
G01*
X419587Y-1606284D01*
X386327Y-1580598D02*
G01*
X413587Y-1580598D01*
X380327Y-1606284D02*
G01*
X380327Y-1586599D01*
X380412Y-1643400D02*
G01*
X380412Y-1623715D01*
X419668Y-1623715D02*
G01*
X419668Y-1643400D01*
X413670Y-1649402D02*
G01*
X386410Y-1649402D01*
X419587Y-1671599D02*
G01*
X419587Y-1691284D01*
X386327Y-1665598D02*
G01*
X413587Y-1665598D01*
X380327Y-1691284D02*
G01*
X380327Y-1671599D01*
X380412Y-1728400D02*
G01*
X380412Y-1708715D01*
X419668Y-1708715D02*
G01*
X419668Y-1728400D01*
X413670Y-1734402D02*
G01*
X386410Y-1734402D01*
X419587Y-1756599D02*
G01*
X419587Y-1776284D01*
X386327Y-1750598D02*
G01*
X413587Y-1750598D01*
X380327Y-1776284D02*
G01*
X380327Y-1756599D01*
X380412Y-1813400D02*
G01*
X380412Y-1793715D01*
X419668Y-1793715D02*
G01*
X419668Y-1813400D01*
X413670Y-1819402D02*
G01*
X386410Y-1819402D01*
X864587Y-886599D02*
G01*
X864587Y-906284D01*
X831329Y-880598D02*
G01*
X858589Y-880598D01*
X825329Y-906284D02*
G01*
X825329Y-886599D01*
X825412Y-943400D02*
G01*
X825412Y-923715D01*
X864670Y-923715D02*
G01*
X864670Y-943400D01*
X858672Y-949402D02*
G01*
X831410Y-949402D01*
X896480Y-1093868D02*
G01*
X876795Y-1093868D01*
X902482Y-1060608D02*
G01*
X902482Y-1087869D01*
X876795Y-1054609D02*
G01*
X896480Y-1054609D01*
X839679Y-1054693D02*
G01*
X859364Y-1054693D01*
X859364Y-1093949D02*
G01*
X839679Y-1093949D01*
X833677Y-1087952D02*
G01*
X833677Y-1060691D01*
X728400Y-754587D02*
G01*
X708715Y-754587D01*
X734402Y-721329D02*
G01*
X734402Y-748589D01*
X708715Y-715329D02*
G01*
X728400Y-715329D01*
X671599Y-715412D02*
G01*
X691284Y-715412D01*
X691284Y-754670D02*
G01*
X671599Y-754670D01*
X665598Y-748672D02*
G01*
X665598Y-721410D01*
D12*
X821095Y-75480D02*
G01*
X821095Y-85275D01*
X821095Y-75480D02*
G01*
X811408Y-75480D01*
X858901Y-75480D02*
G01*
X858901Y-85279D01*
X858901Y-75480D02*
G01*
X868589Y-75480D01*
X858901Y-79706D02*
G01*
X868598Y-79706D01*
X811408Y-79706D02*
G01*
X821095Y-79706D01*
X858899Y-85279D02*
G01*
X868598Y-85279D01*
X868598Y-75479D01*
X811408Y-75480D02*
G01*
X811408Y-85275D01*
X821095Y-85275D01*
D11*
X868589Y-58380D02*
G01*
X811408Y-58380D01*
X811408Y-4519D02*
G01*
X811408Y-75480D01*
X868589Y-4519D02*
G01*
X857645Y-4519D01*
X811408Y-4519D02*
G01*
X822352Y-4519D01*
X868589Y-4519D02*
G01*
X868589Y-75480D01*
D13*
X464996Y-2054996D02*
G01*
X764998Y-2054996D01*
X764998Y-1954996D01*
X464996Y-1954996D01*
X464996Y-2054996D01*
D10*
X315000Y-1934998D02*
G01*
X320000Y-1934998D01*
X320000Y65001D01*
X215000Y65001D01*
X215000Y-1934998D01*
X315000Y-1934998D01*
D13*
X705585Y-773503D02*
G01*
X684414Y-773503D01*
X705585Y-836496D02*
G01*
X684414Y-836496D01*
D11*
X350369Y-41660D02*
G01*
X350369Y-72719D01*
X389630Y-72719D01*
X389630Y-41660D01*
X350369Y-18339D02*
G01*
X350369Y6720D01*
X356370Y12719D01*
X383629Y12719D01*
X389630Y6720D01*
X389630Y-18339D01*
X723337Y-440369D02*
G01*
X692278Y-440369D01*
X692278Y-479628D01*
X723337Y-479628D01*
X746660Y-440369D02*
G01*
X771718Y-440369D01*
X777719Y-446368D01*
X777719Y-473629D01*
X771718Y-479628D01*
X746660Y-479628D01*
X813339Y-2010369D02*
G01*
X782280Y-2010369D01*
X782280Y-2049630D01*
X813339Y-2049630D01*
X836660Y-2010369D02*
G01*
X861720Y-2010369D01*
X867719Y-2016370D01*
X867719Y-2043629D01*
X861720Y-2049630D01*
X836660Y-2049630D01*
D14*
X818971Y-517283D02*
G01*
X811028Y-517283D01*
X850432Y-517283D02*
G01*
X850399Y-517283D01*
X799286Y-552716D02*
G01*
X779567Y-552716D01*
X850432Y-552716D02*
G01*
X830713Y-552716D01*
X850432Y-552716D02*
G01*
X850432Y-517283D01*
X779567Y-552716D02*
G01*
X779567Y-517283D01*
X779600Y-517283D02*
G01*
X779567Y-517283D01*
D15*
X371259Y-438175D02*
G01*
X371259Y-443895D01*
X528739Y-443895D01*
X371259Y-353526D02*
G01*
X371259Y-396511D01*
X528739Y-311520D02*
G01*
X528739Y-306100D01*
X371259Y-306100D01*
X371259Y-311860D01*
X528739Y-396810D02*
G01*
X528739Y-353186D01*
X528739Y-443895D02*
G01*
X528739Y-438476D01*
X371259Y-248175D02*
G01*
X371259Y-253895D01*
X528739Y-253895D01*
X371259Y-163526D02*
G01*
X371259Y-206511D01*
X528739Y-121520D02*
G01*
X528739Y-116100D01*
X371259Y-116100D01*
X371259Y-121860D01*
X528739Y-206810D02*
G01*
X528739Y-163186D01*
X528739Y-253895D02*
G01*
X528739Y-248476D01*
D13*
X386259Y-570781D02*
G01*
X386259Y-556259D01*
X543739Y-699216D02*
G01*
X543739Y-713739D01*
X386259Y-713739D01*
X386259Y-699216D01*
X386259Y-556259D02*
G01*
X543739Y-556259D01*
X543739Y-570781D01*
D16*
X513971Y-1492600D02*
G01*
X435232Y-1492600D01*
X513975Y-1567795D02*
G01*
X436808Y-1567795D01*
X618971Y-1492600D02*
G01*
X540232Y-1492600D01*
X618975Y-1567795D02*
G01*
X541808Y-1567795D01*
X723973Y-1492600D02*
G01*
X645232Y-1492600D01*
X723975Y-1567795D02*
G01*
X646810Y-1567795D01*
X828971Y-1492600D02*
G01*
X750232Y-1492600D01*
X828975Y-1567795D02*
G01*
X751808Y-1567795D01*
X828973Y-1577600D02*
G01*
X750234Y-1577600D01*
X828976Y-1652795D02*
G01*
X751810Y-1652795D01*
X723975Y-1577599D02*
G01*
X645234Y-1577599D01*
X723978Y-1652793D02*
G01*
X646811Y-1652793D01*
X618973Y-1577600D02*
G01*
X540234Y-1577600D01*
X618976Y-1652795D02*
G01*
X541810Y-1652795D01*
X513973Y-1577600D02*
G01*
X435234Y-1577600D01*
X513976Y-1652795D02*
G01*
X436810Y-1652795D01*
X828971Y-1662600D02*
G01*
X750230Y-1662600D01*
X828973Y-1737795D02*
G01*
X751808Y-1737795D01*
X723971Y-1662600D02*
G01*
X645232Y-1662600D01*
X723975Y-1737795D02*
G01*
X646808Y-1737795D01*
X618971Y-1662600D02*
G01*
X540230Y-1662600D01*
X618973Y-1737795D02*
G01*
X541808Y-1737795D01*
X513971Y-1662600D02*
G01*
X435230Y-1662600D01*
X513973Y-1737795D02*
G01*
X436808Y-1737795D01*
X828973Y-1747600D02*
G01*
X750232Y-1747600D01*
X828975Y-1822795D02*
G01*
X751810Y-1822795D01*
X723973Y-1747599D02*
G01*
X645234Y-1747599D01*
X723976Y-1822793D02*
G01*
X646810Y-1822793D01*
X618973Y-1747600D02*
G01*
X540232Y-1747600D01*
X618975Y-1822795D02*
G01*
X541810Y-1822795D01*
X513973Y-1747600D02*
G01*
X435232Y-1747600D01*
X513975Y-1822795D02*
G01*
X436810Y-1822795D01*
D11*
X508917Y-1315133D02*
G01*
X641091Y-1315133D01*
X641091Y-1474866D01*
X508917Y-1474866D01*
X508917Y-1315133D01*
X565162Y-1306134D02*
G01*
X499917Y-1306134D01*
X499917Y-1379252D01*
D16*
X453604Y12166D02*
G01*
X453604Y-55450D01*
X453604Y117750D02*
G01*
X453604Y54133D01*
X746903Y-82950D02*
G01*
X764603Y-82950D01*
X776404Y-69250D01*
X776404Y-57449D01*
X776404Y12190D02*
G01*
X776404Y-57449D01*
X776404Y119749D02*
G01*
X776404Y54110D01*
X750803Y141449D02*
G01*
X464998Y141449D01*
X776404Y119749D02*
G01*
X776404Y141449D01*
X750803Y141449D01*
X453604Y117750D02*
G01*
X453604Y141449D01*
X469304Y141449D01*
X473303Y-82950D02*
G01*
X453604Y-82950D01*
X453604Y-55450D01*
D13*
X859998Y-332498D02*
G01*
X860000Y-277500D01*
X745000Y-321631D02*
G01*
X745000Y-288371D01*
X814998Y-340000D02*
G01*
X785000Y-340000D01*
D11*
X828949Y-150378D02*
G01*
X843456Y-150378D01*
X843456Y-119621D02*
G01*
X828949Y-119621D01*
X822950Y-125621D02*
G01*
X822950Y-144378D01*
X871048Y-150378D02*
G01*
X856541Y-150378D01*
X856541Y-119621D02*
G01*
X871048Y-119621D01*
X877047Y-125621D02*
G01*
X877047Y-144378D01*
X846048Y-444621D02*
G01*
X831543Y-444621D01*
X831543Y-475378D02*
G01*
X846048Y-475378D01*
X852049Y-469378D02*
G01*
X852049Y-450621D01*
X803951Y-444621D02*
G01*
X818456Y-444621D01*
X818456Y-475378D02*
G01*
X803951Y-475378D01*
X797950Y-469378D02*
G01*
X797950Y-450621D01*
X533949Y-490376D02*
G01*
X548456Y-490376D01*
X548456Y-459621D02*
G01*
X533949Y-459621D01*
X527950Y-465621D02*
G01*
X527950Y-484376D01*
X576048Y-490376D02*
G01*
X561541Y-490376D01*
X561541Y-459621D02*
G01*
X576048Y-459621D01*
X582047Y-465621D02*
G01*
X582047Y-484376D01*
X815378Y-941048D02*
G01*
X815378Y-926543D01*
X784621Y-926543D02*
G01*
X784621Y-941048D01*
X790621Y-947049D02*
G01*
X809378Y-947049D01*
X815378Y-898951D02*
G01*
X815378Y-913456D01*
X784621Y-913456D02*
G01*
X784621Y-898951D01*
X790621Y-892950D02*
G01*
X809378Y-892950D01*
X848951Y-1185378D02*
G01*
X863456Y-1185378D01*
X863456Y-1154621D02*
G01*
X848951Y-1154621D01*
X842950Y-1160621D02*
G01*
X842950Y-1179378D01*
X891048Y-1185378D02*
G01*
X876543Y-1185378D01*
X876543Y-1154621D02*
G01*
X891048Y-1154621D01*
X897049Y-1160621D02*
G01*
X897049Y-1179378D01*
X753951Y-1265378D02*
G01*
X768456Y-1265378D01*
X768456Y-1234621D02*
G01*
X753951Y-1234621D01*
X747950Y-1240621D02*
G01*
X747950Y-1259378D01*
X796048Y-1265378D02*
G01*
X781543Y-1265378D01*
X781543Y-1234621D02*
G01*
X796048Y-1234621D01*
X802049Y-1240621D02*
G01*
X802049Y-1259378D01*
X409342Y-1340513D02*
G01*
X409342Y-1355019D01*
X440099Y-1355019D02*
G01*
X440099Y-1340513D01*
X434099Y-1334513D02*
G01*
X415342Y-1334513D01*
X409342Y-1382611D02*
G01*
X409342Y-1368105D01*
X440099Y-1368105D02*
G01*
X440099Y-1382611D01*
X434099Y-1388611D02*
G01*
X415342Y-1388611D01*
X848951Y-1140378D02*
G01*
X863456Y-1140378D01*
X863456Y-1109621D02*
G01*
X848951Y-1109621D01*
X842950Y-1115621D02*
G01*
X842950Y-1134378D01*
X891048Y-1140378D02*
G01*
X876543Y-1140378D01*
X876543Y-1109621D02*
G01*
X891048Y-1109621D01*
X897049Y-1115621D02*
G01*
X897049Y-1134378D01*
X678951Y-1340378D02*
G01*
X693456Y-1340378D01*
X693456Y-1309621D02*
G01*
X678951Y-1309621D01*
X672950Y-1315621D02*
G01*
X672950Y-1334378D01*
X721048Y-1340378D02*
G01*
X706543Y-1340378D01*
X706543Y-1309621D02*
G01*
X721048Y-1309621D01*
X727049Y-1315621D02*
G01*
X727049Y-1334378D01*
X391048Y-1009621D02*
G01*
X376543Y-1009621D01*
X376543Y-1040378D02*
G01*
X391048Y-1040378D01*
X397049Y-1034378D02*
G01*
X397049Y-1015621D01*
X348951Y-1009621D02*
G01*
X363456Y-1009621D01*
X363456Y-1040378D02*
G01*
X348951Y-1040378D01*
X342950Y-1034378D02*
G01*
X342950Y-1015621D01*
X730378Y-1461048D02*
G01*
X730378Y-1446543D01*
X699621Y-1446543D02*
G01*
X699621Y-1461048D01*
X705621Y-1467049D02*
G01*
X724378Y-1467049D01*
X730378Y-1418951D02*
G01*
X730378Y-1433456D01*
X699621Y-1433456D02*
G01*
X699621Y-1418951D01*
X705621Y-1412950D02*
G01*
X724378Y-1412950D01*
X454780Y-1340054D02*
G01*
X454780Y-1354560D01*
X485536Y-1354560D02*
G01*
X485536Y-1340054D01*
X479535Y-1334054D02*
G01*
X460779Y-1334054D01*
X454780Y-1382152D02*
G01*
X454780Y-1367645D01*
X485536Y-1367645D02*
G01*
X485536Y-1382152D01*
X479535Y-1388152D02*
G01*
X460779Y-1388152D01*
X689621Y-568951D02*
G01*
X689621Y-583456D01*
X720378Y-583456D02*
G01*
X720378Y-568951D01*
X714378Y-562950D02*
G01*
X695621Y-562950D01*
X689621Y-611048D02*
G01*
X689621Y-596543D01*
X720378Y-596543D02*
G01*
X720378Y-611048D01*
X714378Y-617049D02*
G01*
X695621Y-617049D01*
X435378Y-38456D02*
G01*
X435378Y-20522D01*
X404621Y-20522D01*
X404621Y-38456D01*
X435378Y-51543D02*
G01*
X435378Y-69477D01*
X404621Y-69477D01*
X404621Y-51543D01*
X751541Y-425376D02*
G01*
X769475Y-425376D01*
X769475Y-394621D01*
X751541Y-394621D01*
X738456Y-425376D02*
G01*
X720522Y-425376D01*
X720522Y-394621D01*
X738456Y-394621D01*
X399621Y-2006543D02*
G01*
X399621Y-2024477D01*
X430378Y-2024477D01*
X430378Y-2006543D01*
X399621Y-1993456D02*
G01*
X399621Y-1975522D01*
X430378Y-1975522D01*
X430378Y-1993456D01*
X359621Y-2006543D02*
G01*
X359621Y-2024477D01*
X390378Y-2024477D01*
X390378Y-2006543D01*
X359621Y-1993456D02*
G01*
X359621Y-1975522D01*
X390378Y-1975522D01*
X390378Y-1993456D01*
X821543Y-1995378D02*
G01*
X839477Y-1995378D01*
X839477Y-1964621D01*
X821543Y-1964621D01*
X808456Y-1995378D02*
G01*
X790522Y-1995378D01*
X790522Y-1964621D01*
X808456Y-1964621D01*
X523456Y-264621D02*
G01*
X505522Y-264621D01*
X505522Y-295376D01*
X523456Y-295376D01*
X536541Y-264621D02*
G01*
X554475Y-264621D01*
X554475Y-295376D01*
X536541Y-295376D01*
X744621Y-181541D02*
G01*
X744621Y-199475D01*
X775376Y-199475D01*
X775376Y-181541D01*
X744621Y-168456D02*
G01*
X744621Y-150522D01*
X775376Y-150522D01*
X775376Y-168456D01*
X416543Y-535376D02*
G01*
X434477Y-535376D01*
X434477Y-504621D01*
X416543Y-504621D01*
X403456Y-535376D02*
G01*
X385522Y-535376D01*
X385522Y-504621D01*
X403456Y-504621D01*
X453456Y-264621D02*
G01*
X435522Y-264621D01*
X435522Y-295376D01*
X453456Y-295376D01*
X466541Y-264621D02*
G01*
X484475Y-264621D01*
X484475Y-295376D01*
X466541Y-295376D01*
X760378Y-523456D02*
G01*
X760378Y-505522D01*
X729621Y-505522D01*
X729621Y-523456D01*
X760378Y-536543D02*
G01*
X760378Y-554477D01*
X729621Y-554477D01*
X729621Y-536543D01*
X760378Y-583456D02*
G01*
X760378Y-565522D01*
X729621Y-565522D01*
X729621Y-583456D01*
X760378Y-596543D02*
G01*
X760378Y-614477D01*
X729621Y-614477D01*
X729621Y-596543D01*
X800378Y-583456D02*
G01*
X800378Y-565522D01*
X769621Y-565522D01*
X769621Y-583456D01*
X800378Y-596543D02*
G01*
X800378Y-614477D01*
X769621Y-614477D01*
X769621Y-596543D01*
X416543Y-490376D02*
G01*
X434477Y-490376D01*
X434477Y-459621D01*
X416543Y-459621D01*
X403456Y-490376D02*
G01*
X385522Y-490376D01*
X385522Y-459621D01*
X403456Y-459621D01*
X453456Y-1449621D02*
G01*
X435522Y-1449621D01*
X435522Y-1480378D01*
X453456Y-1480378D01*
X466541Y-1449621D02*
G01*
X484475Y-1449621D01*
X484475Y-1480378D01*
X466541Y-1480378D01*
X685378Y-1433456D02*
G01*
X685378Y-1415522D01*
X654621Y-1415522D01*
X654621Y-1433456D01*
X685378Y-1446543D02*
G01*
X685378Y-1464477D01*
X654621Y-1464477D01*
X654621Y-1446543D01*
X853456Y-964621D02*
G01*
X835522Y-964621D01*
X835522Y-995378D01*
X853456Y-995378D01*
X866543Y-964621D02*
G01*
X884477Y-964621D01*
X884477Y-995378D01*
X866543Y-995378D01*
X804621Y-826543D02*
G01*
X804621Y-844477D01*
X835378Y-844477D01*
X835378Y-826543D01*
X804621Y-813456D02*
G01*
X804621Y-795522D01*
X835378Y-795522D01*
X835378Y-813456D01*
X730376Y-168456D02*
G01*
X730376Y-150522D01*
X699621Y-150522D01*
X699621Y-168456D01*
X730376Y-181541D02*
G01*
X730376Y-199475D01*
X699621Y-199475D01*
X699621Y-181541D01*
X625376Y-803454D02*
G01*
X625376Y-785520D01*
X594621Y-785520D01*
X594621Y-803454D01*
X625376Y-816541D02*
G01*
X625376Y-834475D01*
X594621Y-834475D01*
X594621Y-816541D01*
X585376Y-803454D02*
G01*
X585376Y-785520D01*
X554621Y-785520D01*
X554621Y-803454D01*
X585376Y-816541D02*
G01*
X585376Y-834475D01*
X554621Y-834475D01*
X554621Y-816541D01*
X866543Y-1040378D02*
G01*
X884477Y-1040378D01*
X884477Y-1009621D01*
X866543Y-1009621D01*
X853456Y-1040378D02*
G01*
X835522Y-1040378D01*
X835522Y-1009621D01*
X853456Y-1009621D01*
X358951Y-905378D02*
G01*
X373456Y-905378D01*
X373456Y-874621D02*
G01*
X358951Y-874621D01*
X352950Y-880621D02*
G01*
X352950Y-899378D01*
X401048Y-905378D02*
G01*
X386543Y-905378D01*
X386543Y-874621D02*
G01*
X401048Y-874621D01*
X407049Y-880621D02*
G01*
X407049Y-899378D01*
X545376Y-831046D02*
G01*
X545376Y-816541D01*
X514621Y-816541D02*
G01*
X514621Y-831046D01*
X520621Y-837046D02*
G01*
X539376Y-837046D01*
X545376Y-788948D02*
G01*
X545376Y-803454D01*
X514621Y-803454D02*
G01*
X514621Y-788948D01*
X520621Y-782948D02*
G01*
X539376Y-782948D01*
D13*
X471727Y-928267D02*
G01*
X469018Y-928267D01*
X736732Y-946727D02*
G01*
X736732Y-928267D01*
X718272Y-928267D01*
X718272Y-1211732D02*
G01*
X736732Y-1211732D01*
X736732Y-1193272D01*
X453267Y-1193272D02*
G01*
X453267Y-1211732D01*
X471727Y-1211732D01*
X469018Y-928267D02*
G01*
X453267Y-928267D01*
X453267Y-946727D01*
D11*
G75*
G01*
X826598Y-199670D02*
G02*
X820598Y-193670I0J6000D01*
G75*
G01*
X820598Y-166410D02*
G02*
X826598Y-160410I6000J0D01*
G75*
G01*
X883400Y-160328D02*
G02*
X889400Y-166328I0J-6000D01*
G75*
G01*
X889400Y-193588D02*
G02*
X883400Y-199588I-6000J0D01*
G75*
G01*
X848400Y-390328D02*
G02*
X854400Y-396328I0J-6000D01*
G75*
G01*
X854400Y-423588D02*
G02*
X848400Y-429588I-6000J0D01*
G75*
G01*
X791598Y-429670D02*
G02*
X785598Y-423670I0J6000D01*
G75*
G01*
X785598Y-396410D02*
G02*
X791598Y-390410I6000J0D01*
G75*
G01*
X531598Y-539670D02*
G02*
X525598Y-533670I0J6000D01*
G75*
G01*
X525598Y-506410D02*
G02*
X531598Y-500410I6000J0D01*
G75*
G01*
X588400Y-500328D02*
G02*
X594400Y-506328I0J-6000D01*
G75*
G01*
X594400Y-533588D02*
G02*
X588400Y-539588I-6000J0D01*
G75*
G01*
X845329Y-796599D02*
G02*
X851329Y-790599I6000J0D01*
G75*
G01*
X878589Y-790599D02*
G02*
X884589Y-796599I0J-6000D01*
G75*
G01*
X884671Y-853401D02*
G02*
X878671Y-859401I-6000J0D01*
G75*
G01*
X851411Y-859401D02*
G02*
X845411Y-853401I0J6000D01*
G75*
G01*
X676599Y-1394671D02*
G02*
X670599Y-1388671I0J6000D01*
G75*
G01*
X670599Y-1361411D02*
G02*
X676599Y-1355411I6000J0D01*
G75*
G01*
X733401Y-1355329D02*
G02*
X739401Y-1361329I0J-6000D01*
G75*
G01*
X739401Y-1388589D02*
G02*
X733401Y-1394589I-6000J0D01*
G75*
G01*
X419670Y-1558401D02*
G02*
X413670Y-1564401I-6000J0D01*
G75*
G01*
X386410Y-1564401D02*
G02*
X380410Y-1558401I0J6000D01*
G75*
G01*
X380328Y-1501599D02*
G02*
X386328Y-1495599I6000J0D01*
G75*
G01*
X413588Y-1495599D02*
G02*
X419588Y-1501599I0J-6000D01*
G75*
G01*
X419670Y-1643401D02*
G02*
X413670Y-1649401I-6000J0D01*
G75*
G01*
X386410Y-1649401D02*
G02*
X380410Y-1643401I0J6000D01*
G75*
G01*
X380328Y-1586599D02*
G02*
X386328Y-1580599I6000J0D01*
G75*
G01*
X413588Y-1580599D02*
G02*
X419588Y-1586599I0J-6000D01*
G75*
G01*
X419670Y-1728401D02*
G02*
X413670Y-1734401I-6000J0D01*
G75*
G01*
X386410Y-1734401D02*
G02*
X380410Y-1728401I0J6000D01*
G75*
G01*
X380328Y-1671599D02*
G02*
X386328Y-1665599I6000J0D01*
G75*
G01*
X413588Y-1665599D02*
G02*
X419588Y-1671599I0J-6000D01*
G75*
G01*
X419670Y-1813401D02*
G02*
X413670Y-1819401I-6000J0D01*
G75*
G01*
X386410Y-1819401D02*
G02*
X380410Y-1813401I0J6000D01*
G75*
G01*
X380328Y-1756599D02*
G02*
X386328Y-1750599I6000J0D01*
G75*
G01*
X413588Y-1750599D02*
G02*
X419588Y-1756599I0J-6000D01*
G75*
G01*
X864671Y-943401D02*
G02*
X858671Y-949401I-6000J0D01*
G75*
G01*
X831411Y-949401D02*
G02*
X825411Y-943401I0J6000D01*
G75*
G01*
X825329Y-886599D02*
G02*
X831329Y-880599I6000J0D01*
G75*
G01*
X858589Y-880599D02*
G02*
X864589Y-886599I0J-6000D01*
G75*
G01*
X839679Y-1093951D02*
G02*
X833679Y-1087951I0J6000D01*
G75*
G01*
X833679Y-1060691D02*
G02*
X839679Y-1054691I6000J0D01*
G75*
G01*
X896481Y-1054609D02*
G02*
X902481Y-1060609I0J-6000D01*
G75*
G01*
X902481Y-1087869D02*
G02*
X896481Y-1093869I-6000J0D01*
G75*
G01*
X671599Y-754671D02*
G02*
X665599Y-748671I0J6000D01*
G75*
G01*
X665599Y-721411D02*
G02*
X671599Y-715411I6000J0D01*
G75*
G01*
X728401Y-715329D02*
G02*
X734401Y-721329I0J-6000D01*
G75*
G01*
X734401Y-748589D02*
G02*
X728401Y-754589I-6000J0D01*
G75*
G01*
X828950Y-119622D02*
G03*
X822950Y-125622I0J-6000D01*
G75*
G01*
X822950Y-144378D02*
G03*
X828950Y-150378I6000J0D01*
G75*
G01*
X871048Y-119622D02*
G02*
X877048Y-125622I0J-6000D01*
G75*
G01*
X877048Y-144378D02*
G02*
X871048Y-150378I-6000J0D01*
G75*
G01*
X846049Y-475378D02*
G03*
X852049Y-469378I0J6000D01*
G75*
G01*
X852049Y-450622D02*
G03*
X846049Y-444622I-6000J0D01*
G75*
G01*
X803951Y-475378D02*
G02*
X797951Y-469378I0J6000D01*
G75*
G01*
X797951Y-450622D02*
G02*
X803951Y-444622I6000J0D01*
G75*
G01*
X533950Y-459621D02*
G03*
X527950Y-465621I0J-6000D01*
G75*
G01*
X527950Y-484377D02*
G03*
X533950Y-490377I6000J0D01*
G75*
G01*
X576048Y-459621D02*
G02*
X582048Y-465621I0J-6000D01*
G75*
G01*
X582048Y-484377D02*
G02*
X576048Y-490377I-6000J0D01*
G75*
G01*
X784622Y-941049D02*
G03*
X790622Y-947049I6000J0D01*
G75*
G01*
X809378Y-947049D02*
G03*
X815378Y-941049I0J6000D01*
G75*
G01*
X784622Y-898951D02*
G02*
X790622Y-892951I6000J0D01*
G75*
G01*
X809378Y-892951D02*
G02*
X815378Y-898951I0J-6000D01*
G75*
G01*
X848951Y-1154622D02*
G03*
X842951Y-1160622I0J-6000D01*
G75*
G01*
X842951Y-1179378D02*
G03*
X848951Y-1185378I6000J0D01*
G75*
G01*
X891049Y-1154622D02*
G02*
X897049Y-1160622I0J-6000D01*
G75*
G01*
X897049Y-1179378D02*
G02*
X891049Y-1185378I-6000J0D01*
G75*
G01*
X753951Y-1234622D02*
G03*
X747951Y-1240622I0J-6000D01*
G75*
G01*
X747951Y-1259378D02*
G03*
X753951Y-1265378I6000J0D01*
G75*
G01*
X796049Y-1234622D02*
G02*
X802049Y-1240622I0J-6000D01*
G75*
G01*
X802049Y-1259378D02*
G02*
X796049Y-1265378I-6000J0D01*
G75*
G01*
X440099Y-1340514D02*
G03*
X434099Y-1334514I-6000J0D01*
G75*
G01*
X415343Y-1334514D02*
G03*
X409343Y-1340514I0J-6000D01*
G75*
G01*
X440099Y-1382612D02*
G02*
X434099Y-1388612I-6000J0D01*
G75*
G01*
X415343Y-1388612D02*
G02*
X409343Y-1382612I0J6000D01*
G75*
G01*
X848951Y-1109622D02*
G03*
X842951Y-1115622I0J-6000D01*
G75*
G01*
X842951Y-1134378D02*
G03*
X848951Y-1140378I6000J0D01*
G75*
G01*
X891049Y-1109622D02*
G02*
X897049Y-1115622I0J-6000D01*
G75*
G01*
X897049Y-1134378D02*
G02*
X891049Y-1140378I-6000J0D01*
G75*
G01*
X678951Y-1309622D02*
G03*
X672951Y-1315622I0J-6000D01*
G75*
G01*
X672951Y-1334378D02*
G03*
X678951Y-1340378I6000J0D01*
G75*
G01*
X721049Y-1309622D02*
G02*
X727049Y-1315622I0J-6000D01*
G75*
G01*
X727049Y-1334378D02*
G02*
X721049Y-1340378I-6000J0D01*
G75*
G01*
X391049Y-1040378D02*
G03*
X397049Y-1034378I0J6000D01*
G75*
G01*
X397049Y-1015622D02*
G03*
X391049Y-1009622I-6000J0D01*
G75*
G01*
X348951Y-1040378D02*
G02*
X342951Y-1034378I0J6000D01*
G75*
G01*
X342951Y-1015622D02*
G02*
X348951Y-1009622I6000J0D01*
G75*
G01*
X699622Y-1461049D02*
G03*
X705622Y-1467049I6000J0D01*
G75*
G01*
X724378Y-1467049D02*
G03*
X730378Y-1461049I0J6000D01*
G75*
G01*
X699622Y-1418951D02*
G02*
X705622Y-1412951I6000J0D01*
G75*
G01*
X724378Y-1412951D02*
G02*
X730378Y-1418951I0J-6000D01*
G75*
G01*
X485536Y-1340054D02*
G03*
X479536Y-1334054I-6000J0D01*
G75*
G01*
X460780Y-1334054D02*
G03*
X454780Y-1340054I0J-6000D01*
G75*
G01*
X485536Y-1382152D02*
G02*
X479536Y-1388152I-6000J0D01*
G75*
G01*
X460780Y-1388152D02*
G02*
X454780Y-1382152I0J6000D01*
G75*
G01*
X720378Y-568951D02*
G03*
X714378Y-562951I-6000J0D01*
G75*
G01*
X695622Y-562951D02*
G03*
X689622Y-568951I0J-6000D01*
G75*
G01*
X720378Y-611049D02*
G02*
X714378Y-617049I-6000J0D01*
G75*
G01*
X695622Y-617049D02*
G02*
X689622Y-611049I0J6000D01*
G75*
G01*
X358951Y-874622D02*
G03*
X352951Y-880622I0J-6000D01*
G75*
G01*
X352951Y-899378D02*
G03*
X358951Y-905378I6000J0D01*
G75*
G01*
X401049Y-874622D02*
G02*
X407049Y-880622I0J-6000D01*
G75*
G01*
X407049Y-899378D02*
G02*
X401049Y-905378I-6000J0D01*
G75*
G01*
X514621Y-831047D02*
G03*
X520621Y-837047I6000J0D01*
G75*
G01*
X539377Y-837047D02*
G03*
X545377Y-831047I0J6000D01*
G75*
G01*
X514621Y-788949D02*
G02*
X520621Y-782949I6000J0D01*
G75*
G01*
X539377Y-782949D02*
G02*
X545377Y-788949I0J-6000D01*
D13*
G75*
G01
X664570Y-848310D02*
G03X664570Y-848310I-5000J0D01*
D17*
G75*
G01
X391130Y-30000D02*
G03X391130Y-30000I-1500J0D01*
G75*
G01
X351870Y-30000D02*
G03X351870Y-30000I-1500J0D01*
G75*
G01
X736500Y-479630D02*
G03X736500Y-479630I-1500J0D01*
G75*
G01
X736500Y-440370D02*
G03X736500Y-440370I-1500J0D01*
G75*
G01
X826500Y-2049630D02*
G03X826500Y-2049630I-1500J0D01*
G75*
G01
X826500Y-2010370D02*
G03X826500Y-2010370I-1500J0D01*
D14*
G75*
G01
X857400Y-505080D02*
G03X857400Y-505080I-2640J0D01*
D13*
G75*
G01
X489370Y-374990D02*
G03X489370Y-374990I-39370J0D01*
G75*
G01
X489370Y-184990D02*
G03X489370Y-184990I-39370J0D01*
D19*
G75*
G01
X364610Y-587760D02*
G03X364610Y-587760I-5910J0D01*
G75*
G01
X843710Y-225870D02*
G03X843710Y-225870I-5910J0D01*
D13*
G75*
G01
X435000Y-930000D02*
G03X435000Y-930000I-5000J0D01*
M02*
