G04 Layer: TopSolderMaskLayer*
G04 EasyEDA v6.5.51, 2026-05-14 19:13:19*
G04 5172052daa6a446c8bedac2976265e0c,22248b453a0342f8802807d087257acb,10*
G04 Gerber Generator version 0.2*
G04 Scale: 100 percent, Rotated: No, Reflected: No *
G04 Dimensions in inches *
G04 leading zeros omitted , absolute positions ,3 integer and 6 decimal *
%FSLAX36Y36*%
%MOIN*%

%AMMACRO1*4,1,8,-0.0323,-0.0335,-0.0335,-0.0323,-0.0335,0.0323,-0.0323,0.0335,0.0323,0.0335,0.0335,0.0323,0.0335,-0.0323,0.0323,-0.0335,-0.0323,-0.0335,0*%
%AMMACRO2*4,1,8,-0.0107,-0.0126,-0.0118,-0.0115,-0.0118,0.0115,-0.0107,0.0126,0.0107,0.0126,0.0118,0.0115,0.0118,-0.0115,0.0107,-0.0126,-0.0107,-0.0126,0*%
%AMMACRO3*4,1,8,-0.0115,-0.0118,-0.0126,-0.0107,-0.0126,0.0107,-0.0115,0.0118,0.0115,0.0118,0.0126,0.0107,0.0126,-0.0107,0.0115,-0.0118,-0.0115,-0.0118,0*%
%AMMACRO4*4,1,8,-0.0126,-0.0214,-0.0138,-0.0202,-0.0138,0.0202,-0.0126,0.0214,0.0126,0.0214,0.0138,0.0202,0.0138,-0.0202,0.0126,-0.0214,-0.0126,-0.0214,0*%
%AMMACRO5*4,1,8,-0.0205,-0.0335,-0.0217,-0.0323,-0.0217,0.0323,-0.0205,0.0335,0.0205,0.0335,0.0217,0.0323,0.0217,-0.0323,0.0205,-0.0335,-0.0205,-0.0335,0*%
%AMMACRO6*4,1,8,-0.0115,-0.0145,-0.0126,-0.0134,-0.0126,0.0134,-0.0115,0.0145,0.0115,0.0145,0.0126,0.0134,0.0126,-0.0134,0.0115,-0.0145,-0.0115,-0.0145,0*%
%AMMACRO7*4,1,8,-0.0134,-0.0126,-0.0145,-0.0115,-0.0145,0.0115,-0.0134,0.0126,0.0134,0.0126,0.0145,0.0115,0.0145,-0.0115,0.0134,-0.0126,-0.0134,-0.0126,0*%
%AMMACRO8*4,1,8,-0.0087,-0.012,-0.0099,-0.0109,-0.0099,0.0109,-0.0087,0.012,0.0087,0.012,0.0099,0.0109,0.0099,-0.0109,0.0087,-0.012,-0.0087,-0.012,0*%
%AMMACRO9*4,1,8,-0.0245,-0.0148,-0.0256,-0.0136,-0.0256,0.0136,-0.0245,0.0148,0.0244,0.0148,0.0256,0.0136,0.0256,-0.0136,0.0244,-0.0148,-0.0245,-0.0148,0*%
%AMMACRO10*4,1,8,-0.0245,-0.0148,-0.0256,-0.0136,-0.0256,0.0136,-0.0245,0.0148,0.0245,0.0148,0.0256,0.0136,0.0256,-0.0136,0.0245,-0.0148,-0.0245,-0.0148,0*%
%AMMACRO11*4,1,8,-0.0166,-0.0098,-0.0177,-0.0087,-0.0177,0.0087,-0.0166,0.0098,0.0166,0.0098,0.0177,0.0087,0.0177,-0.0087,0.0166,-0.0098,-0.0166,-0.0098,0*%
%AMMACRO12*4,1,8,-0.0461,-0.061,-0.0472,-0.0599,-0.0472,0.0599,-0.0461,0.061,0.0461,0.061,0.0472,0.0599,0.0472,-0.0599,0.0461,-0.061,-0.0461,-0.061,0*%
%AMMACRO13*4,1,8,-0.0185,-0.0157,-0.0197,-0.0146,-0.0197,0.0146,-0.0185,0.0157,0.0185,0.0157,0.0197,0.0146,0.0197,-0.0146,0.0185,-0.0157,-0.0185,-0.0157,0*%
%AMMACRO14*4,1,8,-0.0245,-0.0296,-0.0256,-0.0284,-0.0256,0.0284,-0.0245,0.0296,0.0245,0.0296,0.0256,0.0284,0.0256,-0.0284,0.0245,-0.0296,-0.0245,-0.0296,0*%
%AMMACRO15*4,1,8,-0.0245,-0.0296,-0.0256,-0.0284,-0.0256,0.0284,-0.0245,0.0296,0.0244,0.0296,0.0256,0.0284,0.0256,-0.0284,0.0244,-0.0296,-0.0245,-0.0296,0*%
%AMMACRO16*4,1,8,-0.0087,-0.0286,-0.0099,-0.0274,-0.0099,0.0274,-0.0087,0.0286,0.0087,0.0286,0.0099,0.0274,0.0099,-0.0274,0.0087,-0.0286,-0.0087,-0.0286,0*%
%AMMACRO17*4,1,8,-0.0126,-0.0217,-0.0138,-0.0205,-0.0138,0.0205,-0.0126,0.0217,0.0126,0.0217,0.0138,0.0205,0.0138,-0.0205,0.0126,-0.0217,-0.0126,-0.0217,0*%
%AMMACRO18*4,1,8,0.0126,-0.0217,-0.0126,-0.0217,-0.0138,-0.0205,-0.0138,0.0205,-0.0126,0.0217,0.0126,0.0217,0.0138,0.0205,0.0138,-0.0205,0.0126,-0.0217,0*%
%AMMACRO19*4,1,8,-0.0081,-0.0084,-0.0093,-0.0072,-0.0093,0.0072,-0.0081,0.0084,0.0081,0.0084,0.0093,0.0072,0.0093,-0.0072,0.0081,-0.0084,-0.0081,-0.0084,0*%
%AMMACRO20*4,1,8,-0.0072,-0.0093,-0.0084,-0.0081,-0.0084,0.0081,-0.0072,0.0093,0.0072,0.0093,0.0084,0.0081,0.0084,-0.0081,0.0072,-0.0093,-0.0072,-0.0093,0*%
%AMMACRO21*4,1,8,-0.0072,-0.008,-0.0084,-0.0068,-0.0084,0.0068,-0.0072,0.008,0.0072,0.008,0.0084,0.0068,0.0084,-0.0068,0.0072,-0.008,-0.0072,-0.008,0*%
%AMMACRO22*4,1,8,-0.0068,-0.0084,-0.008,-0.0072,-0.008,0.0072,-0.0068,0.0084,0.0068,0.0084,0.008,0.0072,0.008,-0.0072,0.0068,-0.0084,-0.0068,-0.0084,0*%
%AMMACRO23*4,1,8,-0.0678,-0.0689,-0.0689,-0.0678,-0.0689,0.0678,-0.0678,0.0689,0.0678,0.0689,0.0689,0.0678,0.0689,-0.0678,0.0678,-0.0689,-0.0678,-0.0689,0*%
%AMMACRO24*4,1,8,-0.0048,-0.0192,-0.0059,-0.0181,-0.0059,0.0181,-0.0048,0.0192,0.0048,0.0192,0.0059,0.0181,0.0059,-0.0181,0.0048,-0.0192,-0.0048,-0.0192,0*%
%AMMACRO25*4,1,8,-0.0181,-0.0059,-0.0192,-0.0048,-0.0192,0.0048,-0.0181,0.0059,0.0181,0.0059,0.0192,0.0048,0.0192,-0.0048,0.0181,-0.0059,-0.0181,-0.0059,0*%
%ADD10C,0.0670*%
%ADD11MACRO1*%
%ADD12MACRO2*%
%ADD13MACRO3*%
%ADD14MACRO4*%
%ADD15MACRO5*%
%ADD16MACRO6*%
%ADD17MACRO7*%
%ADD18C,0.0110*%
%ADD19MACRO8*%
%ADD20MACRO9*%
%ADD21MACRO10*%
%ADD22MACRO11*%
%ADD23MACRO12*%
%ADD24MACRO13*%
%ADD25MACRO14*%
%ADD26MACRO15*%
%ADD27MACRO16*%
%ADD28O,0.053213X0.041401*%
%ADD29O,0.04337X0.065024*%
%ADD30MACRO17*%
%ADD31MACRO18*%
%ADD32MACRO19*%
%ADD33MACRO20*%
%ADD34MACRO21*%
%ADD35MACRO22*%
%ADD36MACRO23*%
%ADD37MACRO24*%
%ADD38MACRO25*%

%LPD*%
D10*
G01*
X965000Y-1885000D03*
G01*
X965000Y-1785000D03*
G01*
X965000Y-1685000D03*
G01*
X965000Y-1585000D03*
G01*
X965000Y-1485000D03*
G01*
X965000Y-1385000D03*
G01*
X965000Y-1285000D03*
G01*
X965000Y-1185000D03*
G01*
X965000Y-1085000D03*
G01*
X965000Y-985000D03*
G01*
X965000Y-885000D03*
G01*
X965000Y-785000D03*
G01*
X965000Y-685000D03*
G01*
X965000Y-585000D03*
G01*
X965000Y-485000D03*
G01*
X965000Y-385000D03*
G01*
X965000Y-285000D03*
G01*
X965000Y-185000D03*
G01*
X965000Y-85000D03*
D11*
G01*
X964998Y15001D03*
D12*
G01*
X838463Y-179999D03*
G01*
X871534Y-179999D03*
G01*
X836534Y-409999D03*
G01*
X803463Y-409999D03*
G01*
X543463Y-519999D03*
G01*
X576534Y-519999D03*
D13*
G01*
X865000Y-808464D03*
G01*
X865000Y-841535D03*
D12*
G01*
X688464Y-1375000D03*
G01*
X721535Y-1375000D03*
D13*
G01*
X399999Y-1546535D03*
G01*
X399999Y-1513464D03*
G01*
X399999Y-1631535D03*
G01*
X399999Y-1598464D03*
G01*
X399999Y-1716535D03*
G01*
X399999Y-1683464D03*
G01*
X399999Y-1801535D03*
G01*
X399999Y-1768464D03*
G01*
X845000Y-931535D03*
G01*
X845000Y-898464D03*
D12*
G01*
X851544Y-1074279D03*
G01*
X884615Y-1074279D03*
G01*
X683464Y-735000D03*
G01*
X716535Y-735000D03*
D14*
G01*
X839999Y4000D03*
G01*
X839999Y-84000D03*
D11*
G01*
X514998Y-2004996D03*
D10*
G01*
X615000Y-2005000D03*
G01*
X715000Y-2005000D03*
G01*
X265000Y-1885000D03*
G01*
X265000Y-1785000D03*
G01*
X265000Y-1685000D03*
G01*
X265000Y-1585000D03*
G01*
X265000Y-1485000D03*
G01*
X265000Y-1385000D03*
G01*
X265000Y-1285000D03*
G01*
X265000Y-1185000D03*
G01*
X265000Y-1085000D03*
G01*
X265000Y-985000D03*
G01*
X265000Y-885000D03*
G01*
X265000Y-785000D03*
G01*
X265000Y-685000D03*
G01*
X265000Y-585000D03*
G01*
X265000Y-485000D03*
G01*
X265000Y-385000D03*
G01*
X265000Y-285000D03*
G01*
X265000Y-185000D03*
G01*
X265000Y-85000D03*
D11*
G01*
X265000Y15001D03*
D15*
G01*
X655630Y-805000D03*
G01*
X734370Y-805000D03*
D16*
G01*
X370000Y-9990D03*
G01*
X370000Y-50009D03*
D17*
G01*
X755008Y-459999D03*
G01*
X714989Y-459999D03*
G01*
X845009Y-2030000D03*
G01*
X804990Y-2030000D03*
D19*
G01*
X815000Y-560590D03*
G01*
X834684Y-509409D03*
G01*
X795315Y-509409D03*
D20*
G01*
X531778Y-332353D03*
G01*
X368459Y-332693D03*
G01*
X531798Y-417643D03*
D21*
G01*
X368198Y-417343D03*
D20*
G01*
X531778Y-142353D03*
G01*
X368459Y-142693D03*
G01*
X531798Y-227643D03*
D21*
G01*
X368198Y-227343D03*
D22*
G01*
X390195Y-587754D03*
G01*
X390195Y-619250D03*
G01*
X390195Y-650747D03*
G01*
X390195Y-682242D03*
G01*
X539802Y-682242D03*
G01*
X539802Y-650747D03*
G01*
X539802Y-619250D03*
G01*
X539802Y-587754D03*
D23*
G01*
X464999Y-634999D03*
D24*
G01*
X500588Y-1512285D03*
G01*
X500588Y-1547719D03*
G01*
X449407Y-1512285D03*
G01*
X449407Y-1547719D03*
G01*
X605589Y-1512285D03*
G01*
X605589Y-1547719D03*
G01*
X554407Y-1512285D03*
G01*
X554407Y-1547719D03*
G01*
X710589Y-1512284D03*
G01*
X710589Y-1547718D03*
G01*
X659408Y-1512284D03*
G01*
X659408Y-1547718D03*
G01*
X815589Y-1512285D03*
G01*
X815589Y-1547719D03*
G01*
X764407Y-1512285D03*
G01*
X764407Y-1547719D03*
G01*
X815590Y-1597284D03*
G01*
X815590Y-1632718D03*
G01*
X764409Y-1597284D03*
G01*
X764409Y-1632718D03*
G01*
X710592Y-1597283D03*
G01*
X710592Y-1632717D03*
G01*
X659410Y-1597283D03*
G01*
X659410Y-1632717D03*
G01*
X605590Y-1597284D03*
G01*
X605590Y-1632718D03*
G01*
X554409Y-1597284D03*
G01*
X554409Y-1632718D03*
G01*
X500590Y-1597284D03*
G01*
X500590Y-1632718D03*
G01*
X449409Y-1597284D03*
G01*
X449409Y-1632718D03*
G01*
X815588Y-1682285D03*
G01*
X815588Y-1717719D03*
G01*
X764406Y-1682285D03*
G01*
X764406Y-1717719D03*
G01*
X710589Y-1682284D03*
G01*
X710589Y-1717718D03*
G01*
X659407Y-1682284D03*
G01*
X659407Y-1717718D03*
G01*
X605588Y-1682285D03*
G01*
X605588Y-1717719D03*
G01*
X554406Y-1682285D03*
G01*
X554406Y-1717719D03*
G01*
X500588Y-1682285D03*
G01*
X500588Y-1717719D03*
G01*
X449406Y-1682285D03*
G01*
X449406Y-1717719D03*
G01*
X815589Y-1767284D03*
G01*
X815589Y-1802718D03*
G01*
X764408Y-1767284D03*
G01*
X764408Y-1802718D03*
G01*
X710590Y-1767283D03*
G01*
X710590Y-1802717D03*
G01*
X659409Y-1767283D03*
G01*
X659409Y-1802717D03*
G01*
X605589Y-1767284D03*
G01*
X605589Y-1802718D03*
G01*
X554408Y-1767284D03*
G01*
X554408Y-1802718D03*
G01*
X500589Y-1767284D03*
G01*
X500589Y-1802718D03*
G01*
X449408Y-1767284D03*
G01*
X449408Y-1802718D03*
D25*
G01*
X541540Y-1351693D03*
G01*
X541540Y-1438306D03*
D26*
G01*
X608469Y-1438306D03*
G01*
X608469Y-1351693D03*
D27*
G01*
X615004Y-73150D03*
G01*
X589404Y-73150D03*
G01*
X563804Y-73150D03*
G01*
X640604Y-73150D03*
G01*
X666204Y-73150D03*
D28*
G01*
X516570Y-73150D03*
G01*
X713420Y-73150D03*
D29*
G01*
X752790Y33150D03*
G01*
X477199Y33150D03*
D30*
G01*
X799999Y-261687D03*
G01*
X762600Y-261686D03*
G01*
X837397Y-261690D03*
D31*
G01*
X762595Y-348307D03*
D30*
G01*
X837400Y-348307D03*
D32*
G01*
X839203Y-135000D03*
G01*
X860795Y-135000D03*
G01*
X835796Y-460000D03*
G01*
X814203Y-460000D03*
G01*
X544203Y-474999D03*
G01*
X565795Y-474999D03*
D33*
G01*
X800000Y-930796D03*
G01*
X800000Y-909203D03*
D32*
G01*
X859203Y-1170000D03*
G01*
X880796Y-1170000D03*
G01*
X764203Y-1250000D03*
G01*
X785796Y-1250000D03*
D33*
G01*
X424721Y-1350767D03*
G01*
X424721Y-1372358D03*
D32*
G01*
X859203Y-1125000D03*
G01*
X880796Y-1125000D03*
G01*
X689203Y-1325000D03*
G01*
X710796Y-1325000D03*
G01*
X380796Y-1025000D03*
G01*
X359203Y-1025000D03*
D33*
G01*
X715000Y-1450796D03*
G01*
X715000Y-1429203D03*
G01*
X470157Y-1350307D03*
G01*
X470157Y-1371899D03*
G01*
X705000Y-579203D03*
G01*
X705000Y-600796D03*
D34*
G01*
X420000Y-35489D03*
G01*
X420000Y-54510D03*
D35*
G01*
X754509Y-409999D03*
G01*
X735489Y-409999D03*
D34*
G01*
X415000Y-2009510D03*
G01*
X415000Y-1990489D03*
G01*
X375000Y-2009510D03*
G01*
X375000Y-1990489D03*
D35*
G01*
X824510Y-1980000D03*
G01*
X805489Y-1980000D03*
G01*
X520489Y-279999D03*
G01*
X539509Y-279999D03*
D34*
G01*
X759999Y-184509D03*
G01*
X759999Y-165489D03*
D35*
G01*
X419510Y-519999D03*
G01*
X400489Y-519999D03*
G01*
X450489Y-279999D03*
G01*
X469509Y-279999D03*
D34*
G01*
X745000Y-520489D03*
G01*
X745000Y-539510D03*
G01*
X745000Y-580489D03*
G01*
X745000Y-599510D03*
G01*
X785000Y-580489D03*
G01*
X785000Y-599510D03*
D35*
G01*
X419510Y-474999D03*
G01*
X400489Y-474999D03*
G01*
X450489Y-1465000D03*
G01*
X469509Y-1465000D03*
D34*
G01*
X670000Y-1430489D03*
G01*
X670000Y-1449510D03*
D35*
G01*
X850489Y-980000D03*
G01*
X869510Y-980000D03*
D34*
G01*
X820000Y-829510D03*
G01*
X820000Y-810489D03*
G01*
X714999Y-165489D03*
G01*
X714999Y-184509D03*
G01*
X609999Y-800488D03*
G01*
X609999Y-819508D03*
G01*
X569999Y-800488D03*
G01*
X569999Y-819508D03*
D35*
G01*
X869510Y-1025000D03*
G01*
X850489Y-1025000D03*
D32*
G01*
X369203Y-890000D03*
G01*
X390796Y-890000D03*
D33*
G01*
X529999Y-820794D03*
G01*
X529999Y-799202D03*
D36*
G01*
X594999Y-1070002D03*
D37*
G01*
X484769Y-929252D03*
G01*
X500508Y-929252D03*
G01*
X516259Y-929252D03*
G01*
X532009Y-929252D03*
G01*
X547759Y-929252D03*
G01*
X563508Y-929252D03*
G01*
X579248Y-929252D03*
G01*
X594999Y-929252D03*
G01*
X610749Y-929252D03*
G01*
X626498Y-929252D03*
G01*
X642248Y-929252D03*
G01*
X657989Y-929252D03*
G01*
X673739Y-929252D03*
G01*
X689489Y-929252D03*
G01*
X705238Y-929252D03*
D38*
G01*
X735749Y-959763D03*
G01*
X735749Y-975513D03*
G01*
X735749Y-991273D03*
G01*
X735749Y-1007002D03*
G01*
X735749Y-1022753D03*
G01*
X735749Y-1038503D03*
G01*
X735749Y-1054252D03*
G01*
X735749Y-1070012D03*
G01*
X735749Y-1085743D03*
G01*
X735749Y-1101493D03*
G01*
X735749Y-1117243D03*
G01*
X735749Y-1132992D03*
G01*
X735749Y-1148752D03*
G01*
X735749Y-1164483D03*
G01*
X735749Y-1180233D03*
D37*
G01*
X705238Y-1210743D03*
G01*
X689489Y-1210743D03*
G01*
X673739Y-1210743D03*
G01*
X657989Y-1210743D03*
G01*
X642248Y-1210743D03*
G01*
X626498Y-1210743D03*
G01*
X610749Y-1210743D03*
G01*
X594999Y-1210743D03*
G01*
X579248Y-1210743D03*
G01*
X563508Y-1210743D03*
G01*
X547759Y-1210743D03*
G01*
X532009Y-1210743D03*
G01*
X516259Y-1210743D03*
G01*
X500508Y-1210743D03*
G01*
X484769Y-1210743D03*
D38*
G01*
X454248Y-1180233D03*
G01*
X454248Y-1164493D03*
G01*
X454248Y-1148742D03*
G01*
X454248Y-1132992D03*
G01*
X454248Y-1117243D03*
G01*
X454248Y-1101493D03*
G01*
X454248Y-1085743D03*
G01*
X454248Y-1070002D03*
G01*
X454248Y-1054252D03*
G01*
X454248Y-1038503D03*
G01*
X454248Y-1022753D03*
G01*
X454248Y-1007012D03*
G01*
X454248Y-991262D03*
G01*
X454248Y-975513D03*
G01*
X454248Y-959763D03*
D10*
G01*
X165000Y15000D03*
G01*
X165000Y-85000D03*
G01*
X165000Y-185000D03*
G01*
X165000Y-285000D03*
G01*
X165000Y-385000D03*
G01*
X165000Y-485000D03*
G01*
X165000Y-585000D03*
G01*
X165000Y-685000D03*
G01*
X165000Y-785000D03*
G01*
X165000Y-885000D03*
G01*
X165000Y-985000D03*
G01*
X165000Y-1085000D03*
G01*
X165000Y-1185000D03*
G01*
X165000Y-1285000D03*
G01*
X165000Y-1385000D03*
G01*
X165000Y-1485000D03*
G01*
X165000Y-1585000D03*
G01*
X165000Y-1685000D03*
G01*
X165000Y-1785000D03*
G01*
X165000Y-1885489D03*
G01*
X1070500Y15830D03*
G01*
X1070500Y-84169D03*
G01*
X1070500Y-184169D03*
G01*
X1070500Y-284169D03*
G01*
X1070500Y-384169D03*
G01*
X1070500Y-484169D03*
G01*
X1070500Y-584169D03*
G01*
X1070500Y-684169D03*
G01*
X1070500Y-784169D03*
G01*
X1070500Y-884169D03*
G01*
X1070500Y-984169D03*
G01*
X1070500Y-1084169D03*
G01*
X1070500Y-1184169D03*
G01*
X1070500Y-1284169D03*
G01*
X1070500Y-1384169D03*
G01*
X1070500Y-1484169D03*
G01*
X1070500Y-1584169D03*
G01*
X1070500Y-1684169D03*
G01*
X1070500Y-1784169D03*
G01*
X1070500Y-1884169D03*
G01*
X765000Y-1885000D03*
G01*
X665000Y-1885000D03*
G01*
X565000Y-1885000D03*
G01*
X465000Y-1885000D03*
M02*
