G04 Layer: BottomSilkscreenLayer*
G04 EasyEDA v6.5.51, 2026-05-14 19:13:19*
G04 5172052daa6a446c8bedac2976265e0c,22248b453a0342f8802807d087257acb,10*
G04 Gerber Generator version 0.2*
G04 Scale: 100 percent, Rotated: No, Reflected: No *
G04 Dimensions in inches *
G04 leading zeros omitted , absolute positions ,3 integer and 6 decimal *
%FSLAX36Y36*%
%MOIN*%

%ADD10C,0.0080*%
%ADD11C,0.0100*%
%ADD12C,0.0153*%

%LPD*%
G36*
X556540Y-613200D02*
G01*
X556400Y-613360D01*
X556420Y-622320D01*
X556500Y-622440D01*
X574600Y-622440D01*
X574600Y-631380D01*
X556500Y-631380D01*
X556420Y-631500D01*
X556420Y-640440D01*
X547440Y-640460D01*
X547360Y-640520D01*
X547360Y-658640D01*
X547480Y-658720D01*
X556380Y-658720D01*
X556560Y-658600D01*
X556580Y-640699D01*
X556640Y-640600D01*
X565360Y-640600D01*
X565500Y-640720D01*
X565500Y-649500D01*
X583740Y-649500D01*
X583740Y-640620D01*
X592680Y-640580D01*
X592660Y-649479D01*
X583840Y-649560D01*
X583740Y-649500D01*
X565500Y-649500D01*
X565500Y-676860D01*
X592680Y-676880D01*
X592680Y-685780D01*
X583780Y-685819D01*
X583740Y-676860D01*
X565500Y-676860D01*
X565500Y-685620D01*
X565580Y-685740D01*
X565400Y-685800D01*
X556640Y-685819D01*
X556560Y-685720D01*
X556560Y-667840D01*
X556420Y-667680D01*
X547480Y-667680D01*
X547360Y-667800D01*
X547360Y-685780D01*
X547480Y-685939D01*
X556420Y-685980D01*
X556420Y-694880D01*
X556540Y-695000D01*
X574600Y-695040D01*
X574600Y-703960D01*
X556560Y-703960D01*
X556420Y-704060D01*
X556400Y-713000D01*
X556560Y-713139D01*
X583600Y-713180D01*
X583740Y-712980D01*
X583740Y-704080D01*
X592780Y-704080D01*
X592880Y-703800D01*
X592800Y-703620D01*
X592820Y-695080D01*
X592900Y-695020D01*
X601900Y-695020D01*
X601940Y-685980D01*
X610720Y-685960D01*
X610880Y-686060D01*
X610900Y-694940D01*
X610960Y-695000D01*
X620040Y-694980D01*
X620040Y-685920D01*
X619900Y-685759D01*
X618300Y-685840D01*
X611060Y-685819D01*
X610980Y-685740D01*
X610980Y-676820D01*
X610900Y-676740D01*
X601940Y-676740D01*
X601940Y-649680D01*
X610900Y-649659D01*
X611000Y-649599D01*
X610960Y-640699D01*
X611040Y-640600D01*
X619880Y-640600D01*
X620040Y-640460D01*
X620040Y-631520D01*
X619920Y-631380D01*
X610900Y-631460D01*
X610880Y-640360D01*
X610720Y-640460D01*
X600760Y-640380D01*
X600740Y-631460D01*
X600600Y-631380D01*
X592800Y-631380D01*
X592800Y-622440D01*
X592640Y-622340D01*
X583860Y-622340D01*
X583740Y-622200D01*
X583740Y-613340D01*
X583620Y-613200D01*
X583280Y-613320D01*
X581020Y-613240D01*
X559120Y-613260D01*
G37*
D10*
X402726Y26273D02*
G01*
X404544Y29908D01*
X408182Y33544D01*
X411817Y35363D01*
X419090Y35363D01*
X422726Y33544D01*
X426363Y29908D01*
X428182Y26273D01*
X430000Y20817D01*
X430000Y11727D01*
X428182Y6273D01*
X426363Y2636D01*
X422726Y-999D01*
X419090Y-2818D01*
X411817Y-2818D01*
X408182Y-999D01*
X404544Y2636D01*
X402726Y6273D01*
X402726Y11727D01*
X411817Y11727D02*
G01*
X402726Y11727D01*
X390727Y35363D02*
G01*
X390727Y-2818D01*
X390727Y35363D02*
G01*
X374364Y35363D01*
X368908Y33544D01*
X367091Y31727D01*
X365273Y28090D01*
X365273Y22636D01*
X367091Y19000D01*
X368908Y17181D01*
X374364Y15363D01*
X390727Y15363D01*
X342363Y35363D02*
G01*
X347818Y33544D01*
X351455Y28090D01*
X353272Y19000D01*
X353272Y13544D01*
X351455Y4454D01*
X347818Y-999D01*
X342363Y-2818D01*
X338726Y-2818D01*
X333272Y-999D01*
X329636Y4454D01*
X327818Y13544D01*
X327818Y19000D01*
X329636Y28090D01*
X333272Y33544D01*
X338726Y35363D01*
X342363Y35363D01*
X402726Y-73726D02*
G01*
X404544Y-70091D01*
X408182Y-66455D01*
X411817Y-64636D01*
X419090Y-64636D01*
X422726Y-66455D01*
X426363Y-70091D01*
X428182Y-73726D01*
X430000Y-79182D01*
X430000Y-88272D01*
X428182Y-93726D01*
X426363Y-97363D01*
X422726Y-100999D01*
X419090Y-102818D01*
X411817Y-102818D01*
X408182Y-100999D01*
X404544Y-97363D01*
X402726Y-93726D01*
X402726Y-88272D01*
X411817Y-88272D02*
G01*
X402726Y-88272D01*
X390727Y-64636D02*
G01*
X390727Y-102818D01*
X390727Y-64636D02*
G01*
X374364Y-64636D01*
X368908Y-66455D01*
X367091Y-68272D01*
X365273Y-71909D01*
X365273Y-77363D01*
X367091Y-80999D01*
X368908Y-82818D01*
X374364Y-84636D01*
X390727Y-84636D01*
X353272Y-71909D02*
G01*
X349636Y-70091D01*
X344182Y-64636D01*
X344182Y-102818D01*
X402726Y-173726D02*
G01*
X404544Y-170091D01*
X408182Y-166455D01*
X411817Y-164636D01*
X419090Y-164636D01*
X422726Y-166455D01*
X426363Y-170091D01*
X428182Y-173726D01*
X430000Y-179182D01*
X430000Y-188272D01*
X428182Y-193726D01*
X426363Y-197363D01*
X422726Y-200999D01*
X419090Y-202818D01*
X411817Y-202818D01*
X408182Y-200999D01*
X404544Y-197363D01*
X402726Y-193726D01*
X402726Y-188272D01*
X411817Y-188272D02*
G01*
X402726Y-188272D01*
X390727Y-164636D02*
G01*
X390727Y-202818D01*
X390727Y-164636D02*
G01*
X365273Y-202818D01*
X365273Y-164636D02*
G01*
X365273Y-202818D01*
X353272Y-164636D02*
G01*
X353272Y-202818D01*
X353272Y-164636D02*
G01*
X340545Y-164636D01*
X335091Y-166455D01*
X331455Y-170091D01*
X329636Y-173726D01*
X327818Y-179182D01*
X327818Y-188272D01*
X329636Y-193726D01*
X331455Y-197363D01*
X335091Y-200999D01*
X340545Y-202818D01*
X353272Y-202818D01*
X402726Y-273726D02*
G01*
X404544Y-270091D01*
X408182Y-266455D01*
X411817Y-264636D01*
X419090Y-264636D01*
X422726Y-266455D01*
X426363Y-270091D01*
X428182Y-273726D01*
X430000Y-279182D01*
X430000Y-288272D01*
X428182Y-293726D01*
X426363Y-297363D01*
X422726Y-300999D01*
X419090Y-302818D01*
X411817Y-302818D01*
X408182Y-300999D01*
X404544Y-297363D01*
X402726Y-293726D01*
X402726Y-288272D01*
X411817Y-288272D02*
G01*
X402726Y-288272D01*
X390727Y-264636D02*
G01*
X390727Y-302818D01*
X390727Y-264636D02*
G01*
X374364Y-264636D01*
X368908Y-266455D01*
X367091Y-268272D01*
X365273Y-271909D01*
X365273Y-277363D01*
X367091Y-280999D01*
X368908Y-282818D01*
X374364Y-284636D01*
X390727Y-284636D01*
X351455Y-273726D02*
G01*
X351455Y-271909D01*
X349636Y-268272D01*
X347818Y-266455D01*
X344182Y-264636D01*
X336909Y-264636D01*
X333272Y-266455D01*
X331455Y-268272D01*
X329636Y-271909D01*
X329636Y-275545D01*
X331455Y-279182D01*
X335091Y-284636D01*
X353272Y-302818D01*
X327818Y-302818D01*
X402726Y-373726D02*
G01*
X404544Y-370091D01*
X408182Y-366455D01*
X411817Y-364636D01*
X419090Y-364636D01*
X422726Y-366455D01*
X426363Y-370091D01*
X428182Y-373726D01*
X430000Y-379182D01*
X430000Y-388272D01*
X428182Y-393726D01*
X426363Y-397363D01*
X422726Y-400999D01*
X419090Y-402818D01*
X411817Y-402818D01*
X408182Y-400999D01*
X404544Y-397363D01*
X402726Y-393726D01*
X402726Y-388272D01*
X411817Y-388272D02*
G01*
X402726Y-388272D01*
X390727Y-364636D02*
G01*
X390727Y-402818D01*
X390727Y-364636D02*
G01*
X374364Y-364636D01*
X368908Y-366455D01*
X367091Y-368272D01*
X365273Y-371909D01*
X365273Y-377363D01*
X367091Y-380999D01*
X368908Y-382818D01*
X374364Y-384636D01*
X390727Y-384636D01*
X349636Y-364636D02*
G01*
X329636Y-364636D01*
X340545Y-379182D01*
X335091Y-379182D01*
X331455Y-380999D01*
X329636Y-382818D01*
X327818Y-388272D01*
X327818Y-391909D01*
X329636Y-397363D01*
X333272Y-400999D01*
X338726Y-402818D01*
X344182Y-402818D01*
X349636Y-400999D01*
X351455Y-399182D01*
X353272Y-395545D01*
X402726Y-478726D02*
G01*
X404544Y-475091D01*
X408182Y-471455D01*
X411817Y-469636D01*
X419090Y-469636D01*
X422726Y-471455D01*
X426363Y-475091D01*
X428182Y-478726D01*
X430000Y-484182D01*
X430000Y-493272D01*
X428182Y-498726D01*
X426363Y-502363D01*
X422726Y-505999D01*
X419090Y-507818D01*
X411817Y-507818D01*
X408182Y-505999D01*
X404544Y-502363D01*
X402726Y-498726D01*
X402726Y-493272D01*
X411817Y-493272D02*
G01*
X402726Y-493272D01*
X390727Y-469636D02*
G01*
X390727Y-507818D01*
X390727Y-469636D02*
G01*
X374364Y-469636D01*
X368908Y-471455D01*
X367091Y-473272D01*
X365273Y-476909D01*
X365273Y-482363D01*
X367091Y-485999D01*
X368908Y-487818D01*
X374364Y-489636D01*
X390727Y-489636D01*
X335091Y-469636D02*
G01*
X353272Y-495091D01*
X325999Y-495091D01*
X335091Y-469636D02*
G01*
X335091Y-507818D01*
X402726Y-573726D02*
G01*
X404544Y-570091D01*
X408182Y-566455D01*
X411817Y-564636D01*
X419090Y-564636D01*
X422726Y-566455D01*
X426363Y-570091D01*
X428182Y-573726D01*
X430000Y-579182D01*
X430000Y-588272D01*
X428182Y-593726D01*
X426363Y-597363D01*
X422726Y-600999D01*
X419090Y-602818D01*
X411817Y-602818D01*
X408182Y-600999D01*
X404544Y-597363D01*
X402726Y-593726D01*
X402726Y-588272D01*
X411817Y-588272D02*
G01*
X402726Y-588272D01*
X390727Y-564636D02*
G01*
X390727Y-602818D01*
X390727Y-564636D02*
G01*
X374364Y-564636D01*
X368908Y-566455D01*
X367091Y-568272D01*
X365273Y-571909D01*
X365273Y-577363D01*
X367091Y-580999D01*
X368908Y-582818D01*
X374364Y-584636D01*
X390727Y-584636D01*
X331455Y-564636D02*
G01*
X349636Y-564636D01*
X351455Y-580999D01*
X349636Y-579182D01*
X344182Y-577363D01*
X338726Y-577363D01*
X333272Y-579182D01*
X329636Y-582818D01*
X327818Y-588272D01*
X327818Y-591909D01*
X329636Y-597363D01*
X333272Y-600999D01*
X338726Y-602818D01*
X344182Y-602818D01*
X349636Y-600999D01*
X351455Y-599182D01*
X353272Y-595545D01*
X402726Y-673726D02*
G01*
X404544Y-670091D01*
X408182Y-666455D01*
X411817Y-664636D01*
X419090Y-664636D01*
X422726Y-666455D01*
X426363Y-670091D01*
X428182Y-673726D01*
X430000Y-679182D01*
X430000Y-688272D01*
X428182Y-693726D01*
X426363Y-697363D01*
X422726Y-700999D01*
X419090Y-702818D01*
X411817Y-702818D01*
X408182Y-700999D01*
X404544Y-697363D01*
X402726Y-693726D01*
X402726Y-688272D01*
X411817Y-688272D02*
G01*
X402726Y-688272D01*
X390727Y-664636D02*
G01*
X390727Y-702818D01*
X390727Y-664636D02*
G01*
X365273Y-702818D01*
X365273Y-664636D02*
G01*
X365273Y-702818D01*
X353272Y-664636D02*
G01*
X353272Y-702818D01*
X353272Y-664636D02*
G01*
X340545Y-664636D01*
X335091Y-666455D01*
X331455Y-670091D01*
X329636Y-673726D01*
X327818Y-679182D01*
X327818Y-688272D01*
X329636Y-693726D01*
X331455Y-697363D01*
X335091Y-700999D01*
X340545Y-702818D01*
X353272Y-702818D01*
X402726Y-773726D02*
G01*
X404544Y-770091D01*
X408182Y-766455D01*
X411817Y-764636D01*
X419090Y-764636D01*
X422726Y-766455D01*
X426363Y-770091D01*
X428182Y-773726D01*
X430000Y-779182D01*
X430000Y-788272D01*
X428182Y-793726D01*
X426363Y-797363D01*
X422726Y-800999D01*
X419090Y-802818D01*
X411817Y-802818D01*
X408182Y-800999D01*
X404544Y-797363D01*
X402726Y-793726D01*
X402726Y-788272D01*
X411817Y-788272D02*
G01*
X402726Y-788272D01*
X390727Y-764636D02*
G01*
X390727Y-802818D01*
X390727Y-764636D02*
G01*
X374364Y-764636D01*
X368908Y-766455D01*
X367091Y-768272D01*
X365273Y-771909D01*
X365273Y-777363D01*
X367091Y-780999D01*
X368908Y-782818D01*
X374364Y-784636D01*
X390727Y-784636D01*
X331455Y-770091D02*
G01*
X333272Y-766455D01*
X338726Y-764636D01*
X342363Y-764636D01*
X347818Y-766455D01*
X351455Y-771909D01*
X353272Y-780999D01*
X353272Y-790091D01*
X351455Y-797363D01*
X347818Y-800999D01*
X342363Y-802818D01*
X340545Y-802818D01*
X335091Y-800999D01*
X331455Y-797363D01*
X329636Y-791909D01*
X329636Y-790091D01*
X331455Y-784636D01*
X335091Y-780999D01*
X340545Y-779182D01*
X342363Y-779182D01*
X347818Y-780999D01*
X351455Y-784636D01*
X353272Y-790091D01*
X402726Y-868726D02*
G01*
X404544Y-865091D01*
X408182Y-861455D01*
X411817Y-859636D01*
X419090Y-859636D01*
X422726Y-861455D01*
X426363Y-865091D01*
X428182Y-868726D01*
X430000Y-874182D01*
X430000Y-883272D01*
X428182Y-888726D01*
X426363Y-892363D01*
X422726Y-895999D01*
X419090Y-897818D01*
X411817Y-897818D01*
X408182Y-895999D01*
X404544Y-892363D01*
X402726Y-888726D01*
X402726Y-883272D01*
X411817Y-883272D02*
G01*
X402726Y-883272D01*
X390727Y-859636D02*
G01*
X390727Y-897818D01*
X390727Y-859636D02*
G01*
X374364Y-859636D01*
X368908Y-861455D01*
X367091Y-863272D01*
X365273Y-866909D01*
X365273Y-872363D01*
X367091Y-875999D01*
X368908Y-877818D01*
X374364Y-879636D01*
X390727Y-879636D01*
X327818Y-859636D02*
G01*
X345999Y-897818D01*
X353272Y-859636D02*
G01*
X327818Y-859636D01*
X402726Y-973726D02*
G01*
X404544Y-970091D01*
X408182Y-966455D01*
X411817Y-964636D01*
X419090Y-964636D01*
X422726Y-966455D01*
X426363Y-970091D01*
X428182Y-973726D01*
X430000Y-979182D01*
X430000Y-988272D01*
X428182Y-993726D01*
X426363Y-997363D01*
X422726Y-1000999D01*
X419090Y-1002818D01*
X411817Y-1002818D01*
X408182Y-1000999D01*
X404544Y-997363D01*
X402726Y-993726D01*
X402726Y-988272D01*
X411817Y-988272D02*
G01*
X402726Y-988272D01*
X390727Y-964636D02*
G01*
X390727Y-1002818D01*
X390727Y-964636D02*
G01*
X374364Y-964636D01*
X368908Y-966455D01*
X367091Y-968272D01*
X365273Y-971909D01*
X365273Y-977363D01*
X367091Y-980999D01*
X368908Y-982818D01*
X374364Y-984636D01*
X390727Y-984636D01*
X344182Y-964636D02*
G01*
X349636Y-966455D01*
X351455Y-970091D01*
X351455Y-973726D01*
X349636Y-977363D01*
X345999Y-979182D01*
X338726Y-980999D01*
X333272Y-982818D01*
X329636Y-986455D01*
X327818Y-990091D01*
X327818Y-995545D01*
X329636Y-999182D01*
X331455Y-1000999D01*
X336909Y-1002818D01*
X344182Y-1002818D01*
X349636Y-1000999D01*
X351455Y-999182D01*
X353272Y-995545D01*
X353272Y-990091D01*
X351455Y-986455D01*
X347818Y-982818D01*
X342363Y-980999D01*
X335091Y-979182D01*
X331455Y-977363D01*
X329636Y-973726D01*
X329636Y-970091D01*
X331455Y-966455D01*
X336909Y-964636D01*
X344182Y-964636D01*
X397726Y-1098726D02*
G01*
X399544Y-1095091D01*
X403182Y-1091455D01*
X406817Y-1089636D01*
X414090Y-1089636D01*
X417726Y-1091455D01*
X421363Y-1095091D01*
X423182Y-1098726D01*
X425000Y-1104182D01*
X425000Y-1113272D01*
X423182Y-1118726D01*
X421363Y-1122363D01*
X417726Y-1125999D01*
X414090Y-1127818D01*
X406817Y-1127818D01*
X403182Y-1125999D01*
X399544Y-1122363D01*
X397726Y-1118726D01*
X397726Y-1113272D01*
X406817Y-1113272D02*
G01*
X397726Y-1113272D01*
X385727Y-1089636D02*
G01*
X385727Y-1127818D01*
X385727Y-1089636D02*
G01*
X369364Y-1089636D01*
X363908Y-1091455D01*
X362091Y-1093272D01*
X360273Y-1096909D01*
X360273Y-1102363D01*
X362091Y-1105999D01*
X363908Y-1107818D01*
X369364Y-1109636D01*
X385727Y-1109636D01*
X324636Y-1102363D02*
G01*
X326455Y-1107818D01*
X330091Y-1111455D01*
X335545Y-1113272D01*
X337363Y-1113272D01*
X342818Y-1111455D01*
X346455Y-1107818D01*
X348272Y-1102363D01*
X348272Y-1100545D01*
X346455Y-1095091D01*
X342818Y-1091455D01*
X337363Y-1089636D01*
X335545Y-1089636D01*
X330091Y-1091455D01*
X326455Y-1095091D01*
X324636Y-1102363D01*
X324636Y-1111455D01*
X326455Y-1120545D01*
X330091Y-1125999D01*
X335545Y-1127818D01*
X339182Y-1127818D01*
X344636Y-1125999D01*
X346455Y-1122363D01*
X392726Y-1178726D02*
G01*
X394544Y-1175091D01*
X398182Y-1171455D01*
X401817Y-1169636D01*
X409090Y-1169636D01*
X412726Y-1171455D01*
X416363Y-1175091D01*
X418182Y-1178726D01*
X420000Y-1184182D01*
X420000Y-1193272D01*
X418182Y-1198726D01*
X416363Y-1202363D01*
X412726Y-1205999D01*
X409090Y-1207818D01*
X401817Y-1207818D01*
X398182Y-1205999D01*
X394544Y-1202363D01*
X392726Y-1198726D01*
X392726Y-1193272D01*
X401817Y-1193272D02*
G01*
X392726Y-1193272D01*
X380727Y-1169636D02*
G01*
X380727Y-1207818D01*
X380727Y-1169636D02*
G01*
X355273Y-1207818D01*
X355273Y-1169636D02*
G01*
X355273Y-1207818D01*
X343272Y-1169636D02*
G01*
X343272Y-1207818D01*
X343272Y-1169636D02*
G01*
X330545Y-1169636D01*
X325091Y-1171455D01*
X321455Y-1175091D01*
X319636Y-1178726D01*
X317818Y-1184182D01*
X317818Y-1193272D01*
X319636Y-1198726D01*
X321455Y-1202363D01*
X325091Y-1205999D01*
X330545Y-1207818D01*
X343272Y-1207818D01*
X407726Y-1278726D02*
G01*
X409544Y-1275091D01*
X413182Y-1271455D01*
X416817Y-1269636D01*
X424090Y-1269636D01*
X427726Y-1271455D01*
X431363Y-1275091D01*
X433182Y-1278726D01*
X435000Y-1284182D01*
X435000Y-1293272D01*
X433182Y-1298726D01*
X431363Y-1302363D01*
X427726Y-1305999D01*
X424090Y-1307818D01*
X416817Y-1307818D01*
X413182Y-1305999D01*
X409544Y-1302363D01*
X407726Y-1298726D01*
X407726Y-1293272D01*
X416817Y-1293272D02*
G01*
X407726Y-1293272D01*
X395727Y-1269636D02*
G01*
X395727Y-1307818D01*
X395727Y-1269636D02*
G01*
X379364Y-1269636D01*
X373908Y-1271455D01*
X372091Y-1273272D01*
X370273Y-1276909D01*
X370273Y-1282363D01*
X372091Y-1285999D01*
X373908Y-1287818D01*
X379364Y-1289636D01*
X395727Y-1289636D01*
X358272Y-1276909D02*
G01*
X354636Y-1275091D01*
X349182Y-1269636D01*
X349182Y-1307818D01*
X326273Y-1269636D02*
G01*
X331727Y-1271455D01*
X335363Y-1276909D01*
X337181Y-1285999D01*
X337181Y-1291455D01*
X335363Y-1300545D01*
X331727Y-1305999D01*
X326273Y-1307818D01*
X322636Y-1307818D01*
X317181Y-1305999D01*
X313544Y-1300545D01*
X311727Y-1291455D01*
X311727Y-1285999D01*
X313544Y-1276909D01*
X317181Y-1271455D01*
X322636Y-1269636D01*
X326273Y-1269636D01*
X402726Y-1373726D02*
G01*
X404544Y-1370091D01*
X408182Y-1366455D01*
X411817Y-1364636D01*
X419090Y-1364636D01*
X422726Y-1366455D01*
X426363Y-1370091D01*
X428182Y-1373726D01*
X430000Y-1379182D01*
X430000Y-1388272D01*
X428182Y-1393726D01*
X426363Y-1397363D01*
X422726Y-1400999D01*
X419090Y-1402818D01*
X411817Y-1402818D01*
X408182Y-1400999D01*
X404544Y-1397363D01*
X402726Y-1393726D01*
X402726Y-1388272D01*
X411817Y-1388272D02*
G01*
X402726Y-1388272D01*
X390727Y-1364636D02*
G01*
X390727Y-1402818D01*
X390727Y-1364636D02*
G01*
X374364Y-1364636D01*
X368908Y-1366455D01*
X367091Y-1368272D01*
X365273Y-1371909D01*
X365273Y-1377363D01*
X367091Y-1380999D01*
X368908Y-1382818D01*
X374364Y-1384636D01*
X390727Y-1384636D01*
X353272Y-1371909D02*
G01*
X349636Y-1370091D01*
X344182Y-1364636D01*
X344182Y-1402818D01*
X332181Y-1371909D02*
G01*
X328544Y-1370091D01*
X323090Y-1364636D01*
X323090Y-1402818D01*
X407726Y-1488726D02*
G01*
X409544Y-1485091D01*
X413182Y-1481455D01*
X416817Y-1479636D01*
X424090Y-1479636D01*
X427726Y-1481455D01*
X431363Y-1485091D01*
X433182Y-1488726D01*
X435000Y-1494182D01*
X435000Y-1503272D01*
X433182Y-1508726D01*
X431363Y-1512363D01*
X427726Y-1515999D01*
X424090Y-1517818D01*
X416817Y-1517818D01*
X413182Y-1515999D01*
X409544Y-1512363D01*
X407726Y-1508726D01*
X407726Y-1503272D01*
X416817Y-1503272D02*
G01*
X407726Y-1503272D01*
X395727Y-1479636D02*
G01*
X395727Y-1517818D01*
X395727Y-1479636D02*
G01*
X379364Y-1479636D01*
X373908Y-1481455D01*
X372091Y-1483272D01*
X370273Y-1486909D01*
X370273Y-1492363D01*
X372091Y-1495999D01*
X373908Y-1497818D01*
X379364Y-1499636D01*
X395727Y-1499636D01*
X358272Y-1486909D02*
G01*
X354636Y-1485091D01*
X349182Y-1479636D01*
X349182Y-1517818D01*
X335363Y-1488726D02*
G01*
X335363Y-1486909D01*
X333544Y-1483272D01*
X331727Y-1481455D01*
X328090Y-1479636D01*
X320817Y-1479636D01*
X317181Y-1481455D01*
X315363Y-1483272D01*
X313544Y-1486909D01*
X313544Y-1490545D01*
X315363Y-1494182D01*
X319000Y-1499636D01*
X337181Y-1517818D01*
X311727Y-1517818D01*
X407726Y-1573726D02*
G01*
X409544Y-1570091D01*
X413182Y-1566455D01*
X416817Y-1564636D01*
X424090Y-1564636D01*
X427726Y-1566455D01*
X431363Y-1570091D01*
X433182Y-1573726D01*
X435000Y-1579182D01*
X435000Y-1588272D01*
X433182Y-1593726D01*
X431363Y-1597363D01*
X427726Y-1600999D01*
X424090Y-1602818D01*
X416817Y-1602818D01*
X413182Y-1600999D01*
X409544Y-1597363D01*
X407726Y-1593726D01*
X407726Y-1588272D01*
X416817Y-1588272D02*
G01*
X407726Y-1588272D01*
X395727Y-1564636D02*
G01*
X395727Y-1602818D01*
X395727Y-1564636D02*
G01*
X379364Y-1564636D01*
X373908Y-1566455D01*
X372091Y-1568272D01*
X370273Y-1571909D01*
X370273Y-1577363D01*
X372091Y-1580999D01*
X373908Y-1582818D01*
X379364Y-1584636D01*
X395727Y-1584636D01*
X358272Y-1571909D02*
G01*
X354636Y-1570091D01*
X349182Y-1564636D01*
X349182Y-1602818D01*
X333544Y-1564636D02*
G01*
X313544Y-1564636D01*
X324454Y-1579182D01*
X319000Y-1579182D01*
X315363Y-1580999D01*
X313544Y-1582818D01*
X311727Y-1588272D01*
X311727Y-1591909D01*
X313544Y-1597363D01*
X317181Y-1600999D01*
X322636Y-1602818D01*
X328090Y-1602818D01*
X333544Y-1600999D01*
X335363Y-1599182D01*
X337181Y-1595545D01*
X392726Y-1673726D02*
G01*
X394544Y-1670091D01*
X398182Y-1666455D01*
X401817Y-1664636D01*
X409090Y-1664636D01*
X412726Y-1666455D01*
X416363Y-1670091D01*
X418182Y-1673726D01*
X420000Y-1679182D01*
X420000Y-1688272D01*
X418182Y-1693726D01*
X416363Y-1697363D01*
X412726Y-1700999D01*
X409090Y-1702818D01*
X401817Y-1702818D01*
X398182Y-1700999D01*
X394544Y-1697363D01*
X392726Y-1693726D01*
X392726Y-1688272D01*
X401817Y-1688272D02*
G01*
X392726Y-1688272D01*
X380727Y-1664636D02*
G01*
X380727Y-1702818D01*
X380727Y-1664636D02*
G01*
X355273Y-1702818D01*
X355273Y-1664636D02*
G01*
X355273Y-1702818D01*
X343272Y-1664636D02*
G01*
X343272Y-1702818D01*
X343272Y-1664636D02*
G01*
X330545Y-1664636D01*
X325091Y-1666455D01*
X321455Y-1670091D01*
X319636Y-1673726D01*
X317818Y-1679182D01*
X317818Y-1688272D01*
X319636Y-1693726D01*
X321455Y-1697363D01*
X325091Y-1700999D01*
X330545Y-1702818D01*
X343272Y-1702818D01*
X407726Y-1773726D02*
G01*
X409544Y-1770091D01*
X413182Y-1766455D01*
X416817Y-1764636D01*
X424090Y-1764636D01*
X427726Y-1766455D01*
X431363Y-1770091D01*
X433182Y-1773726D01*
X435000Y-1779182D01*
X435000Y-1788272D01*
X433182Y-1793726D01*
X431363Y-1797363D01*
X427726Y-1800999D01*
X424090Y-1802818D01*
X416817Y-1802818D01*
X413182Y-1800999D01*
X409544Y-1797363D01*
X407726Y-1793726D01*
X407726Y-1788272D01*
X416817Y-1788272D02*
G01*
X407726Y-1788272D01*
X395727Y-1764636D02*
G01*
X395727Y-1802818D01*
X395727Y-1764636D02*
G01*
X379364Y-1764636D01*
X373908Y-1766455D01*
X372091Y-1768272D01*
X370273Y-1771909D01*
X370273Y-1777363D01*
X372091Y-1780999D01*
X373908Y-1782818D01*
X379364Y-1784636D01*
X395727Y-1784636D01*
X358272Y-1771909D02*
G01*
X354636Y-1770091D01*
X349182Y-1764636D01*
X349182Y-1802818D01*
X319000Y-1764636D02*
G01*
X337181Y-1790091D01*
X309908Y-1790091D01*
X319000Y-1764636D02*
G01*
X319000Y-1802818D01*
X396136Y-1877636D02*
G01*
X397726Y-1874454D01*
X400909Y-1871273D01*
X404090Y-1869681D01*
X410455Y-1869681D01*
X413636Y-1871273D01*
X416817Y-1874454D01*
X418409Y-1877636D01*
X420000Y-1882408D01*
X420000Y-1890363D01*
X418409Y-1895136D01*
X416817Y-1898317D01*
X413636Y-1901500D01*
X410455Y-1903090D01*
X404090Y-1903090D01*
X400909Y-1901500D01*
X397726Y-1898317D01*
X396136Y-1895136D01*
X396136Y-1890363D01*
X404090Y-1890363D02*
G01*
X396136Y-1890363D01*
X385635Y-1869681D02*
G01*
X385635Y-1903090D01*
X385635Y-1869681D02*
G01*
X371318Y-1869681D01*
X366545Y-1871273D01*
X364954Y-1872863D01*
X363364Y-1876044D01*
X363364Y-1880817D01*
X364954Y-1884000D01*
X366545Y-1885590D01*
X371318Y-1887181D01*
X385635Y-1887181D01*
X352863Y-1876044D02*
G01*
X349681Y-1874454D01*
X344908Y-1869681D01*
X344908Y-1903090D01*
X315318Y-1869681D02*
G01*
X331226Y-1869681D01*
X332818Y-1884000D01*
X331226Y-1882408D01*
X326455Y-1880817D01*
X321682Y-1880817D01*
X316909Y-1882408D01*
X313726Y-1885590D01*
X312136Y-1890363D01*
X312136Y-1893544D01*
X313726Y-1898317D01*
X316909Y-1901500D01*
X321682Y-1903090D01*
X326455Y-1903090D01*
X331226Y-1901500D01*
X332818Y-1899908D01*
X334409Y-1896727D01*
X910000Y25318D02*
G01*
X897273Y-8090D01*
X884544Y25318D02*
G01*
X897273Y-8090D01*
X874045Y25318D02*
G01*
X874045Y-8090D01*
X874045Y25318D02*
G01*
X859726Y25318D01*
X854954Y23726D01*
X853364Y22136D01*
X851772Y18955D01*
X851772Y15772D01*
X853364Y12591D01*
X854954Y10999D01*
X859726Y9409D01*
X874045Y9409D02*
G01*
X859726Y9409D01*
X854954Y7818D01*
X853364Y6226D01*
X851772Y3045D01*
X851772Y-1727D01*
X853364Y-4908D01*
X854954Y-6500D01*
X859726Y-8090D01*
X874045Y-8090D01*
X841273Y25318D02*
G01*
X841273Y1455D01*
X839681Y-3317D01*
X836500Y-6500D01*
X831727Y-8090D01*
X828544Y-8090D01*
X823773Y-6500D01*
X820590Y-3317D01*
X819000Y1455D01*
X819000Y25318D01*
X786226Y20545D02*
G01*
X789409Y23726D01*
X794182Y25318D01*
X800545Y25318D01*
X805318Y23726D01*
X808499Y20545D01*
X808499Y17363D01*
X806909Y14182D01*
X805318Y12591D01*
X802136Y10999D01*
X792591Y7818D01*
X789409Y6226D01*
X787818Y4636D01*
X786226Y1455D01*
X786226Y-3317D01*
X789409Y-6500D01*
X794182Y-8090D01*
X800545Y-8090D01*
X805318Y-6500D01*
X808499Y-3317D01*
X915000Y-64636D02*
G01*
X900455Y-102818D01*
X885909Y-64636D02*
G01*
X900455Y-102818D01*
X848454Y-70091D02*
G01*
X852091Y-66455D01*
X857545Y-64636D01*
X864818Y-64636D01*
X870273Y-66455D01*
X873908Y-70091D01*
X873908Y-73726D01*
X872091Y-77363D01*
X870273Y-79182D01*
X866635Y-80999D01*
X855727Y-84636D01*
X852091Y-86455D01*
X850273Y-88272D01*
X848454Y-91909D01*
X848454Y-97363D01*
X852091Y-100999D01*
X857545Y-102818D01*
X864818Y-102818D01*
X870273Y-100999D01*
X873908Y-97363D01*
X836455Y-64636D02*
G01*
X821909Y-82818D01*
X821909Y-102818D01*
X807363Y-64636D02*
G01*
X821909Y-82818D01*
X769908Y-70091D02*
G01*
X773544Y-66455D01*
X779000Y-64636D01*
X786273Y-64636D01*
X791727Y-66455D01*
X795363Y-70091D01*
X795363Y-73726D01*
X793544Y-77363D01*
X791727Y-79182D01*
X788090Y-80999D01*
X777181Y-84636D01*
X773544Y-86455D01*
X771727Y-88272D01*
X769908Y-91909D01*
X769908Y-97363D01*
X773544Y-100999D01*
X779000Y-102818D01*
X786273Y-102818D01*
X791727Y-100999D01*
X795363Y-97363D01*
X887726Y-173726D02*
G01*
X889544Y-170091D01*
X893182Y-166455D01*
X896817Y-164636D01*
X904090Y-164636D01*
X907726Y-166455D01*
X911363Y-170091D01*
X913182Y-173726D01*
X915000Y-179182D01*
X915000Y-188272D01*
X913182Y-193726D01*
X911363Y-197363D01*
X907726Y-200999D01*
X904090Y-202818D01*
X896817Y-202818D01*
X893182Y-200999D01*
X889544Y-197363D01*
X887726Y-193726D01*
X887726Y-188272D01*
X896817Y-188272D02*
G01*
X887726Y-188272D01*
X875727Y-164636D02*
G01*
X875727Y-202818D01*
X875727Y-164636D02*
G01*
X850273Y-202818D01*
X850273Y-164636D02*
G01*
X850273Y-202818D01*
X838272Y-164636D02*
G01*
X838272Y-202818D01*
X838272Y-164636D02*
G01*
X825545Y-164636D01*
X820091Y-166455D01*
X816455Y-170091D01*
X814636Y-173726D01*
X812818Y-179182D01*
X812818Y-188272D01*
X814636Y-193726D01*
X816455Y-197363D01*
X820091Y-200999D01*
X825545Y-202818D01*
X838272Y-202818D01*
X896136Y-272636D02*
G01*
X897726Y-269454D01*
X900909Y-266273D01*
X904090Y-264681D01*
X910455Y-264681D01*
X913636Y-266273D01*
X916817Y-269454D01*
X918409Y-272636D01*
X920000Y-277408D01*
X920000Y-285363D01*
X918409Y-290136D01*
X916817Y-293317D01*
X913636Y-296500D01*
X910455Y-298090D01*
X904090Y-298090D01*
X900909Y-296500D01*
X897726Y-293317D01*
X896136Y-290136D01*
X896136Y-285363D01*
X904090Y-285363D02*
G01*
X896136Y-285363D01*
X885635Y-264681D02*
G01*
X885635Y-298090D01*
X885635Y-264681D02*
G01*
X871318Y-264681D01*
X866545Y-266273D01*
X864954Y-267863D01*
X863364Y-271044D01*
X863364Y-275817D01*
X864954Y-279000D01*
X866545Y-280590D01*
X871318Y-282181D01*
X885635Y-282181D01*
X851273Y-272636D02*
G01*
X851273Y-271044D01*
X849681Y-267863D01*
X848090Y-266273D01*
X844908Y-264681D01*
X838544Y-264681D01*
X835363Y-266273D01*
X833773Y-267863D01*
X832181Y-271044D01*
X832181Y-274227D01*
X833773Y-277408D01*
X836954Y-282181D01*
X852863Y-298090D01*
X830590Y-298090D01*
X799409Y-275817D02*
G01*
X800999Y-280590D01*
X804182Y-283773D01*
X808955Y-285363D01*
X810545Y-285363D01*
X815318Y-283773D01*
X818499Y-280590D01*
X820091Y-275817D01*
X820091Y-274227D01*
X818499Y-269454D01*
X815318Y-266273D01*
X810545Y-264681D01*
X808955Y-264681D01*
X804182Y-266273D01*
X800999Y-269454D01*
X799409Y-275817D01*
X799409Y-283773D01*
X800999Y-291727D01*
X804182Y-296500D01*
X808955Y-298090D01*
X812136Y-298090D01*
X816909Y-296500D01*
X818499Y-293317D01*
X788908Y-309227D02*
G01*
X760273Y-309227D01*
X737044Y-264681D02*
G01*
X749773Y-298090D01*
X737044Y-264681D02*
G01*
X724317Y-298090D01*
X745000Y-286954D02*
G01*
X729090Y-286954D01*
X710635Y-264681D02*
G01*
X693135Y-264681D01*
X702681Y-277408D01*
X697908Y-277408D01*
X694726Y-279000D01*
X693135Y-280590D01*
X691545Y-285363D01*
X691545Y-288544D01*
X693135Y-293317D01*
X696318Y-296500D01*
X701091Y-298090D01*
X705864Y-298090D01*
X710635Y-296500D01*
X712226Y-294908D01*
X713818Y-291727D01*
X901363Y-369636D02*
G01*
X881363Y-369636D01*
X892273Y-384182D01*
X886817Y-384182D01*
X883182Y-385999D01*
X881363Y-387818D01*
X879544Y-393272D01*
X879544Y-396909D01*
X881363Y-402363D01*
X885000Y-405999D01*
X890455Y-407818D01*
X895909Y-407818D01*
X901363Y-405999D01*
X903182Y-404182D01*
X905000Y-400545D01*
X867545Y-369636D02*
G01*
X853000Y-407818D01*
X838454Y-369636D02*
G01*
X853000Y-407818D01*
X822818Y-369636D02*
G01*
X802818Y-369636D01*
X813726Y-384182D01*
X808272Y-384182D01*
X804636Y-385999D01*
X802818Y-387818D01*
X800999Y-393272D01*
X800999Y-396909D01*
X802818Y-402363D01*
X806455Y-405999D01*
X811909Y-407818D01*
X817363Y-407818D01*
X822818Y-405999D01*
X824636Y-404182D01*
X826455Y-400545D01*
X902273Y-469681D02*
G01*
X915000Y-503090D01*
X902273Y-469681D02*
G01*
X889544Y-503090D01*
X910226Y-491954D02*
G01*
X894317Y-491954D01*
X879045Y-469681D02*
G01*
X879045Y-503090D01*
X879045Y-469681D02*
G01*
X867908Y-469681D01*
X863135Y-471273D01*
X859954Y-474454D01*
X858364Y-477636D01*
X856772Y-482408D01*
X856772Y-490363D01*
X858364Y-495136D01*
X859954Y-498317D01*
X863135Y-501500D01*
X867908Y-503090D01*
X879045Y-503090D01*
X822408Y-477636D02*
G01*
X824000Y-474454D01*
X827181Y-471273D01*
X830363Y-469681D01*
X836727Y-469681D01*
X839908Y-471273D01*
X843090Y-474454D01*
X844681Y-477636D01*
X846273Y-482408D01*
X846273Y-490363D01*
X844681Y-495136D01*
X843090Y-498317D01*
X839908Y-501500D01*
X836727Y-503090D01*
X830363Y-503090D01*
X827181Y-501500D01*
X824000Y-498317D01*
X822408Y-495136D01*
X811909Y-514227D02*
G01*
X783272Y-514227D01*
X772773Y-469681D02*
G01*
X760045Y-503090D01*
X747318Y-469681D02*
G01*
X760045Y-503090D01*
X736817Y-469681D02*
G01*
X736817Y-503090D01*
X736817Y-469681D02*
G01*
X722500Y-469681D01*
X717726Y-471273D01*
X716136Y-472863D01*
X714544Y-476044D01*
X714544Y-479227D01*
X716136Y-482408D01*
X717726Y-484000D01*
X722500Y-485590D01*
X736817Y-485590D01*
X725682Y-485590D02*
G01*
X714544Y-503090D01*
X704045Y-469681D02*
G01*
X704045Y-503090D01*
X704045Y-469681D02*
G01*
X683364Y-469681D01*
X704045Y-485590D02*
G01*
X691318Y-485590D01*
X704045Y-503090D02*
G01*
X683364Y-503090D01*
X672863Y-469681D02*
G01*
X672863Y-503090D01*
X672863Y-469681D02*
G01*
X652181Y-469681D01*
X672863Y-485590D02*
G01*
X660136Y-485590D01*
X886136Y-577636D02*
G01*
X887726Y-574454D01*
X890909Y-571273D01*
X894090Y-569681D01*
X900455Y-569681D01*
X903636Y-571273D01*
X906817Y-574454D01*
X908409Y-577636D01*
X910000Y-582408D01*
X910000Y-590363D01*
X908409Y-595136D01*
X906817Y-598317D01*
X903636Y-601500D01*
X900455Y-603090D01*
X894090Y-603090D01*
X890909Y-601500D01*
X887726Y-598317D01*
X886136Y-595136D01*
X886136Y-590363D01*
X894090Y-590363D02*
G01*
X886136Y-590363D01*
X875635Y-569681D02*
G01*
X875635Y-603090D01*
X875635Y-569681D02*
G01*
X861318Y-569681D01*
X856545Y-571273D01*
X854954Y-572863D01*
X853364Y-576044D01*
X853364Y-580817D01*
X854954Y-584000D01*
X856545Y-585590D01*
X861318Y-587181D01*
X875635Y-587181D01*
X841273Y-577636D02*
G01*
X841273Y-576044D01*
X839681Y-572863D01*
X838090Y-571273D01*
X834908Y-569681D01*
X828544Y-569681D01*
X825363Y-571273D01*
X823773Y-572863D01*
X822181Y-576044D01*
X822181Y-579227D01*
X823773Y-582408D01*
X826954Y-587181D01*
X842863Y-603090D01*
X820590Y-603090D01*
X802136Y-569681D02*
G01*
X806909Y-571273D01*
X808499Y-574454D01*
X808499Y-577636D01*
X806909Y-580817D01*
X803726Y-582408D01*
X797363Y-584000D01*
X792591Y-585590D01*
X789409Y-588773D01*
X787818Y-591954D01*
X787818Y-596727D01*
X789409Y-599908D01*
X790999Y-601500D01*
X795772Y-603090D01*
X802136Y-603090D01*
X806909Y-601500D01*
X808499Y-599908D01*
X810091Y-596727D01*
X810091Y-591954D01*
X808499Y-588773D01*
X805318Y-585590D01*
X800545Y-584000D01*
X794182Y-582408D01*
X790999Y-580817D01*
X789409Y-577636D01*
X789409Y-574454D01*
X790999Y-571273D01*
X795772Y-569681D01*
X802136Y-569681D01*
X777318Y-614227D02*
G01*
X748681Y-614227D01*
X725455Y-569681D02*
G01*
X738182Y-603090D01*
X725455Y-569681D02*
G01*
X712726Y-603090D01*
X733409Y-591954D02*
G01*
X717500Y-591954D01*
X700635Y-577636D02*
G01*
X700635Y-576044D01*
X699045Y-572863D01*
X697454Y-571273D01*
X694272Y-569681D01*
X687908Y-569681D01*
X684726Y-571273D01*
X683135Y-572863D01*
X681545Y-576044D01*
X681545Y-579227D01*
X683135Y-582408D01*
X686318Y-587181D01*
X702226Y-603090D01*
X679954Y-603090D01*
X887726Y-683726D02*
G01*
X889544Y-680091D01*
X893182Y-676455D01*
X896817Y-674636D01*
X904090Y-674636D01*
X907726Y-676455D01*
X911363Y-680091D01*
X913182Y-683726D01*
X915000Y-689182D01*
X915000Y-698272D01*
X913182Y-703726D01*
X911363Y-707363D01*
X907726Y-710999D01*
X904090Y-712818D01*
X896817Y-712818D01*
X893182Y-710999D01*
X889544Y-707363D01*
X887726Y-703726D01*
X887726Y-698272D01*
X896817Y-698272D02*
G01*
X887726Y-698272D01*
X875727Y-674636D02*
G01*
X875727Y-712818D01*
X875727Y-674636D02*
G01*
X850273Y-712818D01*
X850273Y-674636D02*
G01*
X850273Y-712818D01*
X838272Y-674636D02*
G01*
X838272Y-712818D01*
X838272Y-674636D02*
G01*
X825545Y-674636D01*
X820091Y-676455D01*
X816455Y-680091D01*
X814636Y-683726D01*
X812818Y-689182D01*
X812818Y-698272D01*
X814636Y-703726D01*
X816455Y-707363D01*
X820091Y-710999D01*
X825545Y-712818D01*
X838272Y-712818D01*
X891136Y-777636D02*
G01*
X892726Y-774454D01*
X895909Y-771273D01*
X899090Y-769681D01*
X905455Y-769681D01*
X908636Y-771273D01*
X911817Y-774454D01*
X913409Y-777636D01*
X915000Y-782408D01*
X915000Y-790363D01*
X913409Y-795136D01*
X911817Y-798317D01*
X908636Y-801500D01*
X905455Y-803090D01*
X899090Y-803090D01*
X895909Y-801500D01*
X892726Y-798317D01*
X891136Y-795136D01*
X891136Y-790363D01*
X899090Y-790363D02*
G01*
X891136Y-790363D01*
X880635Y-769681D02*
G01*
X880635Y-803090D01*
X880635Y-769681D02*
G01*
X866318Y-769681D01*
X861545Y-771273D01*
X859954Y-772863D01*
X858364Y-776044D01*
X858364Y-780817D01*
X859954Y-784000D01*
X861545Y-785590D01*
X866318Y-787181D01*
X880635Y-787181D01*
X846273Y-777636D02*
G01*
X846273Y-776044D01*
X844681Y-772863D01*
X843090Y-771273D01*
X839908Y-769681D01*
X833544Y-769681D01*
X830363Y-771273D01*
X828773Y-772863D01*
X827181Y-776044D01*
X827181Y-779227D01*
X828773Y-782408D01*
X831954Y-787181D01*
X847863Y-803090D01*
X825590Y-803090D01*
X792818Y-769681D02*
G01*
X808726Y-803090D01*
X815091Y-769681D02*
G01*
X792818Y-769681D01*
X782318Y-814227D02*
G01*
X753681Y-814227D01*
X730455Y-769681D02*
G01*
X743182Y-803090D01*
X730455Y-769681D02*
G01*
X717726Y-803090D01*
X738409Y-791954D02*
G01*
X722500Y-791954D01*
X707226Y-776044D02*
G01*
X704045Y-774454D01*
X699272Y-769681D01*
X699272Y-803090D01*
X891136Y-877636D02*
G01*
X892726Y-874454D01*
X895909Y-871273D01*
X899090Y-869681D01*
X905455Y-869681D01*
X908636Y-871273D01*
X911817Y-874454D01*
X913409Y-877636D01*
X915000Y-882408D01*
X915000Y-890363D01*
X913409Y-895136D01*
X911817Y-898317D01*
X908636Y-901500D01*
X905455Y-903090D01*
X899090Y-903090D01*
X895909Y-901500D01*
X892726Y-898317D01*
X891136Y-895136D01*
X891136Y-890363D01*
X899090Y-890363D02*
G01*
X891136Y-890363D01*
X880635Y-869681D02*
G01*
X880635Y-903090D01*
X880635Y-869681D02*
G01*
X866318Y-869681D01*
X861545Y-871273D01*
X859954Y-872863D01*
X858364Y-876044D01*
X858364Y-880817D01*
X859954Y-884000D01*
X861545Y-885590D01*
X866318Y-887181D01*
X880635Y-887181D01*
X846273Y-877636D02*
G01*
X846273Y-876044D01*
X844681Y-872863D01*
X843090Y-871273D01*
X839908Y-869681D01*
X833544Y-869681D01*
X830363Y-871273D01*
X828773Y-872863D01*
X827181Y-876044D01*
X827181Y-879227D01*
X828773Y-882408D01*
X831954Y-887181D01*
X847863Y-903090D01*
X825590Y-903090D01*
X795999Y-874454D02*
G01*
X797591Y-871273D01*
X802363Y-869681D01*
X805545Y-869681D01*
X810318Y-871273D01*
X813499Y-876044D01*
X815091Y-884000D01*
X815091Y-891954D01*
X813499Y-898317D01*
X810318Y-901500D01*
X805545Y-903090D01*
X803955Y-903090D01*
X799182Y-901500D01*
X795999Y-898317D01*
X794409Y-893544D01*
X794409Y-891954D01*
X795999Y-887181D01*
X799182Y-884000D01*
X803955Y-882408D01*
X805545Y-882408D01*
X810318Y-884000D01*
X813499Y-887181D01*
X815091Y-891954D01*
X783908Y-914227D02*
G01*
X755273Y-914227D01*
X732044Y-869681D02*
G01*
X744773Y-903090D01*
X732044Y-869681D02*
G01*
X719317Y-903090D01*
X740000Y-891954D02*
G01*
X724090Y-891954D01*
X699272Y-869681D02*
G01*
X704045Y-871273D01*
X707226Y-876044D01*
X708818Y-884000D01*
X708818Y-888773D01*
X707226Y-896727D01*
X704045Y-901500D01*
X699272Y-903090D01*
X696091Y-903090D01*
X691318Y-901500D01*
X688135Y-896727D01*
X686545Y-888773D01*
X686545Y-884000D01*
X688135Y-876044D01*
X691318Y-871273D01*
X696091Y-869681D01*
X699272Y-869681D01*
X915000Y-969681D02*
G01*
X915000Y-1003090D01*
X915000Y-969681D02*
G01*
X900682Y-969681D01*
X895909Y-971273D01*
X894317Y-972863D01*
X892726Y-976044D01*
X892726Y-979227D01*
X894317Y-982408D01*
X895909Y-984000D01*
X900682Y-985590D01*
X915000Y-985590D01*
X903863Y-985590D02*
G01*
X892726Y-1003090D01*
X882226Y-969681D02*
G01*
X882226Y-993544D01*
X880635Y-998317D01*
X877454Y-1001500D01*
X872681Y-1003090D01*
X869499Y-1003090D01*
X864726Y-1001500D01*
X861545Y-998317D01*
X859954Y-993544D01*
X859954Y-969681D01*
X849454Y-969681D02*
G01*
X849454Y-1003090D01*
X849454Y-969681D02*
G01*
X827181Y-1003090D01*
X827181Y-969681D02*
G01*
X827181Y-1003090D01*
X892726Y-1073726D02*
G01*
X894544Y-1070091D01*
X898182Y-1066455D01*
X901817Y-1064636D01*
X909090Y-1064636D01*
X912726Y-1066455D01*
X916363Y-1070091D01*
X918182Y-1073726D01*
X920000Y-1079182D01*
X920000Y-1088272D01*
X918182Y-1093726D01*
X916363Y-1097363D01*
X912726Y-1100999D01*
X909090Y-1102818D01*
X901817Y-1102818D01*
X898182Y-1100999D01*
X894544Y-1097363D01*
X892726Y-1093726D01*
X892726Y-1088272D01*
X901817Y-1088272D02*
G01*
X892726Y-1088272D01*
X880727Y-1064636D02*
G01*
X880727Y-1102818D01*
X880727Y-1064636D02*
G01*
X864364Y-1064636D01*
X858908Y-1066455D01*
X857091Y-1068272D01*
X855273Y-1071909D01*
X855273Y-1077363D01*
X857091Y-1080999D01*
X858908Y-1082818D01*
X864364Y-1084636D01*
X880727Y-1084636D01*
X841455Y-1073726D02*
G01*
X841455Y-1071909D01*
X839636Y-1068272D01*
X837818Y-1066455D01*
X834182Y-1064636D01*
X826909Y-1064636D01*
X823272Y-1066455D01*
X821455Y-1068272D01*
X819636Y-1071909D01*
X819636Y-1075545D01*
X821455Y-1079182D01*
X825091Y-1084636D01*
X843272Y-1102818D01*
X817818Y-1102818D01*
X804000Y-1073726D02*
G01*
X804000Y-1071909D01*
X802181Y-1068272D01*
X800363Y-1066455D01*
X796727Y-1064636D01*
X789454Y-1064636D01*
X785817Y-1066455D01*
X784000Y-1068272D01*
X782181Y-1071909D01*
X782181Y-1075545D01*
X784000Y-1079182D01*
X787636Y-1084636D01*
X805817Y-1102818D01*
X780363Y-1102818D01*
X892726Y-1178726D02*
G01*
X894544Y-1175091D01*
X898182Y-1171455D01*
X901817Y-1169636D01*
X909090Y-1169636D01*
X912726Y-1171455D01*
X916363Y-1175091D01*
X918182Y-1178726D01*
X920000Y-1184182D01*
X920000Y-1193272D01*
X918182Y-1198726D01*
X916363Y-1202363D01*
X912726Y-1205999D01*
X909090Y-1207818D01*
X901817Y-1207818D01*
X898182Y-1205999D01*
X894544Y-1202363D01*
X892726Y-1198726D01*
X892726Y-1193272D01*
X901817Y-1193272D02*
G01*
X892726Y-1193272D01*
X880727Y-1169636D02*
G01*
X880727Y-1207818D01*
X880727Y-1169636D02*
G01*
X855273Y-1207818D01*
X855273Y-1169636D02*
G01*
X855273Y-1207818D01*
X843272Y-1169636D02*
G01*
X843272Y-1207818D01*
X843272Y-1169636D02*
G01*
X830545Y-1169636D01*
X825091Y-1171455D01*
X821455Y-1175091D01*
X819636Y-1178726D01*
X817818Y-1184182D01*
X817818Y-1193272D01*
X819636Y-1198726D01*
X821455Y-1202363D01*
X825091Y-1205999D01*
X830545Y-1207818D01*
X843272Y-1207818D01*
X887726Y-1278726D02*
G01*
X889544Y-1275091D01*
X893182Y-1271455D01*
X896817Y-1269636D01*
X904090Y-1269636D01*
X907726Y-1271455D01*
X911363Y-1275091D01*
X913182Y-1278726D01*
X915000Y-1284182D01*
X915000Y-1293272D01*
X913182Y-1298726D01*
X911363Y-1302363D01*
X907726Y-1305999D01*
X904090Y-1307818D01*
X896817Y-1307818D01*
X893182Y-1305999D01*
X889544Y-1302363D01*
X887726Y-1298726D01*
X887726Y-1293272D01*
X896817Y-1293272D02*
G01*
X887726Y-1293272D01*
X875727Y-1269636D02*
G01*
X875727Y-1307818D01*
X875727Y-1269636D02*
G01*
X859364Y-1269636D01*
X853908Y-1271455D01*
X852091Y-1273272D01*
X850273Y-1276909D01*
X850273Y-1282363D01*
X852091Y-1285999D01*
X853908Y-1287818D01*
X859364Y-1289636D01*
X875727Y-1289636D01*
X836455Y-1278726D02*
G01*
X836455Y-1276909D01*
X834636Y-1273272D01*
X832818Y-1271455D01*
X829182Y-1269636D01*
X821909Y-1269636D01*
X818272Y-1271455D01*
X816455Y-1273272D01*
X814636Y-1276909D01*
X814636Y-1280545D01*
X816455Y-1284182D01*
X820091Y-1289636D01*
X838272Y-1307818D01*
X812818Y-1307818D01*
X800817Y-1276909D02*
G01*
X797181Y-1275091D01*
X791727Y-1269636D01*
X791727Y-1307818D01*
X892726Y-1378726D02*
G01*
X894544Y-1375091D01*
X898182Y-1371455D01*
X901817Y-1369636D01*
X909090Y-1369636D01*
X912726Y-1371455D01*
X916363Y-1375091D01*
X918182Y-1378726D01*
X920000Y-1384182D01*
X920000Y-1393272D01*
X918182Y-1398726D01*
X916363Y-1402363D01*
X912726Y-1405999D01*
X909090Y-1407818D01*
X901817Y-1407818D01*
X898182Y-1405999D01*
X894544Y-1402363D01*
X892726Y-1398726D01*
X892726Y-1393272D01*
X901817Y-1393272D02*
G01*
X892726Y-1393272D01*
X880727Y-1369636D02*
G01*
X880727Y-1407818D01*
X880727Y-1369636D02*
G01*
X864364Y-1369636D01*
X858908Y-1371455D01*
X857091Y-1373272D01*
X855273Y-1376909D01*
X855273Y-1382363D01*
X857091Y-1385999D01*
X858908Y-1387818D01*
X864364Y-1389636D01*
X880727Y-1389636D01*
X841455Y-1378726D02*
G01*
X841455Y-1376909D01*
X839636Y-1373272D01*
X837818Y-1371455D01*
X834182Y-1369636D01*
X826909Y-1369636D01*
X823272Y-1371455D01*
X821455Y-1373272D01*
X819636Y-1376909D01*
X819636Y-1380545D01*
X821455Y-1384182D01*
X825091Y-1389636D01*
X843272Y-1407818D01*
X817818Y-1407818D01*
X794908Y-1369636D02*
G01*
X800363Y-1371455D01*
X804000Y-1376909D01*
X805817Y-1385999D01*
X805817Y-1391455D01*
X804000Y-1400545D01*
X800363Y-1405999D01*
X794908Y-1407818D01*
X791273Y-1407818D01*
X785817Y-1405999D01*
X782181Y-1400545D01*
X780363Y-1391455D01*
X780363Y-1385999D01*
X782181Y-1376909D01*
X785817Y-1371455D01*
X791273Y-1369636D01*
X794908Y-1369636D01*
X887726Y-1478726D02*
G01*
X889544Y-1475091D01*
X893182Y-1471455D01*
X896817Y-1469636D01*
X904090Y-1469636D01*
X907726Y-1471455D01*
X911363Y-1475091D01*
X913182Y-1478726D01*
X915000Y-1484182D01*
X915000Y-1493272D01*
X913182Y-1498726D01*
X911363Y-1502363D01*
X907726Y-1505999D01*
X904090Y-1507818D01*
X896817Y-1507818D01*
X893182Y-1505999D01*
X889544Y-1502363D01*
X887726Y-1498726D01*
X887726Y-1493272D01*
X896817Y-1493272D02*
G01*
X887726Y-1493272D01*
X875727Y-1469636D02*
G01*
X875727Y-1507818D01*
X875727Y-1469636D02*
G01*
X859364Y-1469636D01*
X853908Y-1471455D01*
X852091Y-1473272D01*
X850273Y-1476909D01*
X850273Y-1482363D01*
X852091Y-1485999D01*
X853908Y-1487818D01*
X859364Y-1489636D01*
X875727Y-1489636D01*
X838272Y-1476909D02*
G01*
X834636Y-1475091D01*
X829182Y-1469636D01*
X829182Y-1507818D01*
X793544Y-1482363D02*
G01*
X795363Y-1487818D01*
X799000Y-1491455D01*
X804454Y-1493272D01*
X806273Y-1493272D01*
X811727Y-1491455D01*
X815363Y-1487818D01*
X817181Y-1482363D01*
X817181Y-1480545D01*
X815363Y-1475091D01*
X811727Y-1471455D01*
X806273Y-1469636D01*
X804454Y-1469636D01*
X799000Y-1471455D01*
X795363Y-1475091D01*
X793544Y-1482363D01*
X793544Y-1491455D01*
X795363Y-1500545D01*
X799000Y-1505999D01*
X804454Y-1507818D01*
X808090Y-1507818D01*
X813544Y-1505999D01*
X815363Y-1502363D01*
X887726Y-1578726D02*
G01*
X889544Y-1575091D01*
X893182Y-1571455D01*
X896817Y-1569636D01*
X904090Y-1569636D01*
X907726Y-1571455D01*
X911363Y-1575091D01*
X913182Y-1578726D01*
X915000Y-1584182D01*
X915000Y-1593272D01*
X913182Y-1598726D01*
X911363Y-1602363D01*
X907726Y-1605999D01*
X904090Y-1607818D01*
X896817Y-1607818D01*
X893182Y-1605999D01*
X889544Y-1602363D01*
X887726Y-1598726D01*
X887726Y-1593272D01*
X896817Y-1593272D02*
G01*
X887726Y-1593272D01*
X875727Y-1569636D02*
G01*
X875727Y-1607818D01*
X875727Y-1569636D02*
G01*
X859364Y-1569636D01*
X853908Y-1571455D01*
X852091Y-1573272D01*
X850273Y-1576909D01*
X850273Y-1582363D01*
X852091Y-1585999D01*
X853908Y-1587818D01*
X859364Y-1589636D01*
X875727Y-1589636D01*
X838272Y-1576909D02*
G01*
X834636Y-1575091D01*
X829182Y-1569636D01*
X829182Y-1607818D01*
X808090Y-1569636D02*
G01*
X813544Y-1571455D01*
X815363Y-1575091D01*
X815363Y-1578726D01*
X813544Y-1582363D01*
X809908Y-1584182D01*
X802636Y-1585999D01*
X797181Y-1587818D01*
X793544Y-1591455D01*
X791727Y-1595091D01*
X791727Y-1600545D01*
X793544Y-1604182D01*
X795363Y-1605999D01*
X800817Y-1607818D01*
X808090Y-1607818D01*
X813544Y-1605999D01*
X815363Y-1604182D01*
X817181Y-1600545D01*
X817181Y-1595091D01*
X815363Y-1591455D01*
X811727Y-1587818D01*
X806273Y-1585999D01*
X799000Y-1584182D01*
X795363Y-1582363D01*
X793544Y-1578726D01*
X793544Y-1575091D01*
X795363Y-1571455D01*
X800817Y-1569636D01*
X808090Y-1569636D01*
X887726Y-1778726D02*
G01*
X889544Y-1775091D01*
X893182Y-1771455D01*
X896817Y-1769636D01*
X904090Y-1769636D01*
X907726Y-1771455D01*
X911363Y-1775091D01*
X913182Y-1778726D01*
X915000Y-1784182D01*
X915000Y-1793272D01*
X913182Y-1798726D01*
X911363Y-1802363D01*
X907726Y-1805999D01*
X904090Y-1807818D01*
X896817Y-1807818D01*
X893182Y-1805999D01*
X889544Y-1802363D01*
X887726Y-1798726D01*
X887726Y-1793272D01*
X896817Y-1793272D02*
G01*
X887726Y-1793272D01*
X875727Y-1769636D02*
G01*
X875727Y-1807818D01*
X875727Y-1769636D02*
G01*
X859364Y-1769636D01*
X853908Y-1771455D01*
X852091Y-1773272D01*
X850273Y-1776909D01*
X850273Y-1782363D01*
X852091Y-1785999D01*
X853908Y-1787818D01*
X859364Y-1789636D01*
X875727Y-1789636D01*
X838272Y-1776909D02*
G01*
X834636Y-1775091D01*
X829182Y-1769636D01*
X829182Y-1807818D01*
X791727Y-1769636D02*
G01*
X809908Y-1807818D01*
X817181Y-1769636D02*
G01*
X791727Y-1769636D01*
X887726Y-1673726D02*
G01*
X889544Y-1670091D01*
X893182Y-1666455D01*
X896817Y-1664636D01*
X904090Y-1664636D01*
X907726Y-1666455D01*
X911363Y-1670091D01*
X913182Y-1673726D01*
X915000Y-1679182D01*
X915000Y-1688272D01*
X913182Y-1693726D01*
X911363Y-1697363D01*
X907726Y-1700999D01*
X904090Y-1702818D01*
X896817Y-1702818D01*
X893182Y-1700999D01*
X889544Y-1697363D01*
X887726Y-1693726D01*
X887726Y-1688272D01*
X896817Y-1688272D02*
G01*
X887726Y-1688272D01*
X875727Y-1664636D02*
G01*
X875727Y-1702818D01*
X875727Y-1664636D02*
G01*
X850273Y-1702818D01*
X850273Y-1664636D02*
G01*
X850273Y-1702818D01*
X838272Y-1664636D02*
G01*
X838272Y-1702818D01*
X838272Y-1664636D02*
G01*
X825545Y-1664636D01*
X820091Y-1666455D01*
X816455Y-1670091D01*
X814636Y-1673726D01*
X812818Y-1679182D01*
X812818Y-1688272D01*
X814636Y-1693726D01*
X816455Y-1697363D01*
X820091Y-1700999D01*
X825545Y-1702818D01*
X838272Y-1702818D01*
X896136Y-1897636D02*
G01*
X897726Y-1894454D01*
X900909Y-1891273D01*
X904090Y-1889681D01*
X910455Y-1889681D01*
X913636Y-1891273D01*
X916817Y-1894454D01*
X918409Y-1897636D01*
X920000Y-1902408D01*
X920000Y-1910363D01*
X918409Y-1915136D01*
X916817Y-1918317D01*
X913636Y-1921500D01*
X910455Y-1923090D01*
X904090Y-1923090D01*
X900909Y-1921500D01*
X897726Y-1918317D01*
X896136Y-1915136D01*
X896136Y-1910363D01*
X904090Y-1910363D02*
G01*
X896136Y-1910363D01*
X885635Y-1889681D02*
G01*
X885635Y-1923090D01*
X885635Y-1889681D02*
G01*
X871318Y-1889681D01*
X866545Y-1891273D01*
X864954Y-1892863D01*
X863364Y-1896044D01*
X863364Y-1900817D01*
X864954Y-1904000D01*
X866545Y-1905590D01*
X871318Y-1907181D01*
X885635Y-1907181D01*
X852863Y-1896044D02*
G01*
X849681Y-1894454D01*
X844908Y-1889681D01*
X844908Y-1923090D01*
X815318Y-1894454D02*
G01*
X816909Y-1891273D01*
X821682Y-1889681D01*
X824863Y-1889681D01*
X829636Y-1891273D01*
X832818Y-1896044D01*
X834409Y-1904000D01*
X834409Y-1911954D01*
X832818Y-1918317D01*
X829636Y-1921500D01*
X824863Y-1923090D01*
X823272Y-1923090D01*
X818499Y-1921500D01*
X815318Y-1918317D01*
X813726Y-1913544D01*
X813726Y-1911954D01*
X815318Y-1907181D01*
X818499Y-1904000D01*
X823272Y-1902408D01*
X824863Y-1902408D01*
X829636Y-1904000D01*
X832818Y-1907181D01*
X834409Y-1911954D01*
D11*
X525545Y-1345000D02*
G01*
X468272Y-1345000D01*
X525545Y-1345000D02*
G01*
X525545Y-1320455D01*
X522818Y-1312273D01*
X520091Y-1309544D01*
X514636Y-1306817D01*
X509182Y-1306817D01*
X503726Y-1309544D01*
X500999Y-1312273D01*
X498272Y-1320455D01*
X498272Y-1345000D01*
X498272Y-1325909D02*
G01*
X468272Y-1306817D01*
X525545Y-1288818D02*
G01*
X468272Y-1288818D01*
X525545Y-1288818D02*
G01*
X525545Y-1264272D01*
X522818Y-1256091D01*
X520091Y-1253364D01*
X514636Y-1250635D01*
X506455Y-1250635D01*
X500999Y-1253364D01*
X498272Y-1256091D01*
X495545Y-1264272D01*
X495545Y-1288818D01*
X511909Y-1229908D02*
G01*
X514636Y-1229908D01*
X520091Y-1227181D01*
X522818Y-1224454D01*
X525545Y-1219000D01*
X525545Y-1208090D01*
X522818Y-1202636D01*
X520091Y-1199908D01*
X514636Y-1197181D01*
X509182Y-1197181D01*
X503726Y-1199908D01*
X495545Y-1205363D01*
X468272Y-1232636D01*
X468272Y-1194454D01*
X525545Y-1170999D02*
G01*
X525545Y-1140999D01*
X503726Y-1157363D01*
X503726Y-1149182D01*
X500999Y-1143726D01*
X498272Y-1140999D01*
X490091Y-1138272D01*
X484636Y-1138272D01*
X476455Y-1140999D01*
X470999Y-1146455D01*
X468272Y-1154636D01*
X468272Y-1162818D01*
X470999Y-1170999D01*
X473726Y-1173726D01*
X479182Y-1176455D01*
X525545Y-1087545D02*
G01*
X525545Y-1114818D01*
X500999Y-1117545D01*
X503726Y-1114818D01*
X506455Y-1106635D01*
X506455Y-1098454D01*
X503726Y-1090273D01*
X498272Y-1084818D01*
X490091Y-1082091D01*
X484636Y-1082091D01*
X476455Y-1084818D01*
X470999Y-1090273D01*
X468272Y-1098454D01*
X468272Y-1106635D01*
X470999Y-1114818D01*
X473726Y-1117545D01*
X479182Y-1120273D01*
X525545Y-1047726D02*
G01*
X522818Y-1055909D01*
X514636Y-1061363D01*
X500999Y-1064090D01*
X492818Y-1064090D01*
X479182Y-1061363D01*
X470999Y-1055909D01*
X468272Y-1047726D01*
X468272Y-1042273D01*
X470999Y-1034090D01*
X479182Y-1028636D01*
X492818Y-1025909D01*
X500999Y-1025909D01*
X514636Y-1028636D01*
X522818Y-1034090D01*
X525545Y-1042273D01*
X525545Y-1047726D01*
X525545Y-965909D02*
G01*
X468272Y-965909D01*
X525545Y-965909D02*
G01*
X525545Y-941363D01*
X522818Y-933182D01*
X520091Y-930455D01*
X514636Y-927726D01*
X506455Y-927726D01*
X500999Y-930455D01*
X498272Y-933182D01*
X495545Y-941363D01*
X495545Y-965909D01*
X525545Y-909726D02*
G01*
X522818Y-906999D01*
X525545Y-904272D01*
X528272Y-906999D01*
X525545Y-909726D01*
X506455Y-906999D02*
G01*
X468272Y-906999D01*
X498272Y-853544D02*
G01*
X503726Y-859000D01*
X506455Y-864454D01*
X506455Y-872636D01*
X503726Y-878090D01*
X498272Y-883544D01*
X490091Y-886273D01*
X484636Y-886273D01*
X476455Y-883544D01*
X470999Y-878090D01*
X468272Y-872636D01*
X468272Y-864454D01*
X470999Y-859000D01*
X476455Y-853544D01*
X506455Y-821909D02*
G01*
X503726Y-827363D01*
X498272Y-832818D01*
X490091Y-835545D01*
X484636Y-835545D01*
X476455Y-832818D01*
X470999Y-827363D01*
X468272Y-821909D01*
X468272Y-813726D01*
X470999Y-808272D01*
X476455Y-802818D01*
X484636Y-800091D01*
X490091Y-800091D01*
X498272Y-802818D01*
X503726Y-808272D01*
X506455Y-813726D01*
X506455Y-821909D01*
X511909Y-737363D02*
G01*
X514636Y-737363D01*
X520091Y-734636D01*
X522818Y-731909D01*
X525545Y-726455D01*
X525545Y-715545D01*
X522818Y-710091D01*
X520091Y-707363D01*
X514636Y-704636D01*
X509182Y-704636D01*
X503726Y-707363D01*
X495545Y-712818D01*
X468272Y-740091D01*
X468272Y-701909D01*
X517363Y-659364D02*
G01*
X468272Y-659364D01*
X492818Y-683908D02*
G01*
X492818Y-634818D01*
D10*
X595363Y-1350000D02*
G01*
X557181Y-1335455D01*
X595363Y-1320909D02*
G01*
X557181Y-1335455D01*
X588090Y-1308908D02*
G01*
X589908Y-1305273D01*
X595363Y-1299818D01*
X557181Y-1299818D01*
X566273Y-1285999D02*
G01*
X564454Y-1287818D01*
X562636Y-1285999D01*
X564454Y-1284182D01*
X566273Y-1285999D01*
X595363Y-1261273D02*
G01*
X593544Y-1266727D01*
X588090Y-1270363D01*
X579000Y-1272181D01*
X573544Y-1272181D01*
X564454Y-1270363D01*
X559000Y-1266727D01*
X557181Y-1261273D01*
X557181Y-1257636D01*
X559000Y-1252181D01*
X564454Y-1248544D01*
X573544Y-1246727D01*
X579000Y-1246727D01*
X588090Y-1248544D01*
X593544Y-1252181D01*
X595363Y-1257636D01*
X595363Y-1261273D01*
X595363Y-1205000D02*
G01*
X557181Y-1195909D01*
X595363Y-1186817D02*
G01*
X557181Y-1195909D01*
X595363Y-1186817D02*
G01*
X557181Y-1177726D01*
X595363Y-1168636D02*
G01*
X557181Y-1177726D01*
X595363Y-1156635D02*
G01*
X557181Y-1147545D01*
X595363Y-1138454D02*
G01*
X557181Y-1147545D01*
X595363Y-1138454D02*
G01*
X557181Y-1129364D01*
X595363Y-1120273D02*
G01*
X557181Y-1129364D01*
X595363Y-1108272D02*
G01*
X557181Y-1099182D01*
X595363Y-1090091D02*
G01*
X557181Y-1099182D01*
X595363Y-1090091D02*
G01*
X557181Y-1080999D01*
X595363Y-1071909D02*
G01*
X557181Y-1080999D01*
X566273Y-1058090D02*
G01*
X564454Y-1059908D01*
X562636Y-1058090D01*
X564454Y-1056273D01*
X566273Y-1058090D01*
X595363Y-1044272D02*
G01*
X557181Y-1044272D01*
X595363Y-1044272D02*
G01*
X557181Y-1018818D01*
X595363Y-1018818D02*
G01*
X557181Y-1018818D01*
X595363Y-1006817D02*
G01*
X568090Y-1006817D01*
X562636Y-1005000D01*
X559000Y-1001363D01*
X557181Y-995909D01*
X557181Y-992273D01*
X559000Y-986817D01*
X562636Y-983182D01*
X568090Y-981363D01*
X595363Y-981363D01*
X595363Y-969364D02*
G01*
X557181Y-969364D01*
X595363Y-969364D02*
G01*
X595363Y-953000D01*
X593544Y-947545D01*
X591727Y-945727D01*
X588090Y-943908D01*
X584454Y-943908D01*
X580817Y-945727D01*
X579000Y-947545D01*
X577181Y-953000D01*
X577181Y-969364D01*
X577181Y-956635D02*
G01*
X557181Y-943908D01*
X595363Y-931909D02*
G01*
X557181Y-917363D01*
X595363Y-902818D02*
G01*
X557181Y-917363D01*
X595363Y-890817D02*
G01*
X557181Y-890817D01*
X595363Y-890817D02*
G01*
X595363Y-867181D01*
X577181Y-890817D02*
G01*
X577181Y-876273D01*
X557181Y-890817D02*
G01*
X557181Y-867181D01*
X566273Y-853364D02*
G01*
X564454Y-855181D01*
X562636Y-853364D01*
X564454Y-851545D01*
X566273Y-853364D01*
X595363Y-839544D02*
G01*
X557181Y-839544D01*
X595363Y-839544D02*
G01*
X557181Y-814090D01*
X595363Y-814090D02*
G01*
X557181Y-814090D01*
X595363Y-802091D02*
G01*
X557181Y-802091D01*
X595363Y-802091D02*
G01*
X595363Y-778454D01*
X577181Y-802091D02*
G01*
X577181Y-787545D01*
X557181Y-802091D02*
G01*
X557181Y-778454D01*
X595363Y-753726D02*
G01*
X557181Y-753726D01*
X595363Y-766455D02*
G01*
X595363Y-740999D01*
M02*
