G04 Layer: BottomLayer*
G04 EasyEDA v6.5.51, 2026-05-14 19:13:19*
G04 5172052daa6a446c8bedac2976265e0c,22248b453a0342f8802807d087257acb,10*
G04 Gerber Generator version 0.2*
G04 Scale: 100 percent, Rotated: No, Reflected: No *
G04 Dimensions in inches *
G04 leading zeros omitted , absolute positions ,3 integer and 6 decimal *
%FSLAX36Y36*%
%MOIN*%

%ADD10C,0.0080*%
%ADD11C,0.0150*%
%ADD12C,0.0120*%
%ADD13C,0.0600*%
%ADD14C,0.0100*%
%ADD15C,0.0154*%
%ADD16C,0.0630*%
%ADD17R,0.0630X0.0630*%
%ADD18O,0.049213X0.037401*%
%ADD19O,0.03937X0.061024*%
%ADD20C,0.0200*%
%ADD21C,0.0160*%
%ADD22C,0.0244*%

%LPD*%
G36*
X363800Y-304880D02*
G01*
X362260Y-304580D01*
X360980Y-303720D01*
X333740Y-276480D01*
X332200Y-275180D01*
X329960Y-273880D01*
X327540Y-273080D01*
X324799Y-272800D01*
X305480Y-272800D01*
X303920Y-272480D01*
X302600Y-271580D01*
X301740Y-270240D01*
X301000Y-268300D01*
X298460Y-263640D01*
X295300Y-259380D01*
X291620Y-255560D01*
X287460Y-252280D01*
X282900Y-249579D01*
X278020Y-247500D01*
X272900Y-246100D01*
X267660Y-245400D01*
X262340Y-245400D01*
X257100Y-246100D01*
X255080Y-246660D01*
X254020Y-246800D01*
X179200Y-246800D01*
X177659Y-246500D01*
X176380Y-245620D01*
X175500Y-244340D01*
X175200Y-242800D01*
X175200Y-127200D01*
X175500Y-125660D01*
X176380Y-124380D01*
X177659Y-123500D01*
X179200Y-123200D01*
X253740Y-123200D01*
X254540Y-123280D01*
X259720Y-124340D01*
X265000Y-124680D01*
X270280Y-124340D01*
X275480Y-123280D01*
X280500Y-121540D01*
X285220Y-119140D01*
X289600Y-116140D01*
X293520Y-112579D01*
X296960Y-108539D01*
X299800Y-104080D01*
X301920Y-99520D01*
X302800Y-98300D01*
X304060Y-97480D01*
X305540Y-97200D01*
X358280Y-97200D01*
X359820Y-97500D01*
X361120Y-98379D01*
X366620Y-103880D01*
X367500Y-105180D01*
X367800Y-106720D01*
X367800Y-300880D01*
X367500Y-302420D01*
X366620Y-303720D01*
X365340Y-304580D01*
G37*

%LPC*%
G36*
X183240Y-220180D02*
G01*
X184080Y-219800D01*
X188540Y-216960D01*
X192600Y-213520D01*
X196140Y-209600D01*
X199140Y-205219D01*
X200140Y-203240D01*
X183240Y-203240D01*
G37*
G36*
X283240Y-220140D02*
G01*
X285220Y-219140D01*
X289600Y-216140D01*
X293520Y-212580D01*
X296960Y-208540D01*
X299800Y-204080D01*
X300180Y-203240D01*
X283240Y-203240D01*
G37*
G36*
X246759Y-220140D02*
G01*
X246759Y-203240D01*
X229820Y-203240D01*
X230200Y-204080D01*
X233039Y-208540D01*
X236480Y-212580D01*
X240400Y-216140D01*
X244780Y-219140D01*
G37*
G36*
X183240Y-166759D02*
G01*
X200140Y-166759D01*
X199140Y-164780D01*
X196140Y-160400D01*
X192600Y-156480D01*
X188540Y-153040D01*
X184080Y-150200D01*
X183240Y-149820D01*
G37*
G36*
X229840Y-166759D02*
G01*
X246759Y-166759D01*
X246759Y-149780D01*
X242540Y-152280D01*
X238380Y-155560D01*
X234700Y-159380D01*
X231540Y-163640D01*
G37*
G36*
X283240Y-166759D02*
G01*
X300160Y-166759D01*
X298460Y-163640D01*
X295300Y-159380D01*
X291620Y-155560D01*
X287460Y-152280D01*
X283240Y-149780D01*
G37*

%LPD*%
G36*
X1043980Y-754060D02*
G01*
X1042220Y-754020D01*
X1040660Y-753220D01*
X1039580Y-751840D01*
X1039200Y-750140D01*
X1039200Y-718220D01*
X1039580Y-716500D01*
X1040660Y-715120D01*
X1042220Y-714340D01*
X1043980Y-714280D01*
X1045580Y-715000D01*
X1049140Y-717620D01*
X1052260Y-719320D01*
X1052260Y-702420D01*
X1043199Y-702420D01*
X1041660Y-702120D01*
X1040380Y-701240D01*
X1039500Y-699960D01*
X1039200Y-698420D01*
X1039200Y-669920D01*
X1039500Y-668400D01*
X1040380Y-667099D01*
X1041660Y-666220D01*
X1043199Y-665920D01*
X1052260Y-665920D01*
X1052260Y-649020D01*
X1049140Y-650720D01*
X1045580Y-653360D01*
X1043980Y-654060D01*
X1042220Y-654020D01*
X1040660Y-653220D01*
X1039580Y-651840D01*
X1039200Y-650140D01*
X1039200Y-618220D01*
X1039580Y-616500D01*
X1040660Y-615120D01*
X1042220Y-614340D01*
X1043980Y-614280D01*
X1045580Y-615000D01*
X1049140Y-617620D01*
X1053800Y-620180D01*
X1057740Y-621700D01*
X1059080Y-622540D01*
X1059980Y-623860D01*
X1060300Y-625420D01*
X1060300Y-742920D01*
X1059980Y-744479D01*
X1059080Y-745800D01*
X1057740Y-746660D01*
X1053800Y-748180D01*
X1049140Y-750720D01*
X1045580Y-753360D01*
G37*

%LPD*%
G36*
X303040Y-769000D02*
G01*
X301440Y-768319D01*
X300300Y-767000D01*
X298460Y-763640D01*
X295300Y-759380D01*
X291620Y-755560D01*
X287460Y-752280D01*
X282900Y-749580D01*
X278020Y-747500D01*
X272900Y-746100D01*
X267660Y-745400D01*
X262340Y-745400D01*
X257100Y-746100D01*
X255080Y-746660D01*
X254020Y-746800D01*
X179200Y-746800D01*
X177659Y-746500D01*
X176380Y-745620D01*
X175500Y-744340D01*
X175200Y-742800D01*
X175200Y-627200D01*
X175500Y-625660D01*
X176380Y-624380D01*
X177659Y-623500D01*
X179200Y-623200D01*
X253740Y-623200D01*
X254540Y-623280D01*
X259720Y-624340D01*
X265000Y-624680D01*
X270280Y-624340D01*
X275480Y-623280D01*
X280500Y-621540D01*
X285220Y-619140D01*
X289600Y-616140D01*
X293520Y-612580D01*
X296960Y-608540D01*
X297900Y-607040D01*
X299180Y-605800D01*
X300840Y-605220D01*
X302600Y-605420D01*
X304100Y-606360D01*
X306620Y-608880D01*
X307500Y-610180D01*
X307800Y-611720D01*
X307800Y-665080D01*
X307420Y-666780D01*
X306620Y-667920D01*
X307500Y-669220D01*
X307800Y-670759D01*
X307800Y-699240D01*
X307500Y-700780D01*
X306660Y-702159D01*
X307500Y-703460D01*
X307800Y-704960D01*
X307800Y-765080D01*
X307420Y-766780D01*
X306340Y-768160D01*
X304800Y-768960D01*
G37*

%LPC*%
G36*
X183240Y-720180D02*
G01*
X184080Y-719800D01*
X188540Y-716960D01*
X192600Y-713520D01*
X196140Y-709599D01*
X199140Y-705220D01*
X200140Y-703240D01*
X183240Y-703240D01*
G37*
G36*
X246759Y-720140D02*
G01*
X246759Y-703240D01*
X229820Y-703240D01*
X230200Y-704080D01*
X233039Y-708540D01*
X236480Y-712580D01*
X240400Y-716140D01*
X244780Y-719140D01*
G37*
G36*
X283240Y-720140D02*
G01*
X285220Y-719140D01*
X289600Y-716140D01*
X293520Y-712580D01*
X296960Y-708540D01*
X299800Y-704080D01*
X300200Y-703240D01*
X283240Y-703240D01*
G37*
G36*
X183240Y-666760D02*
G01*
X200140Y-666760D01*
X199140Y-664780D01*
X196140Y-660400D01*
X192600Y-656480D01*
X188540Y-653040D01*
X184080Y-650200D01*
X183240Y-649820D01*
G37*
G36*
X283240Y-666760D02*
G01*
X300160Y-666760D01*
X298460Y-663640D01*
X295300Y-659380D01*
X291620Y-655560D01*
X287460Y-652280D01*
X283240Y-649780D01*
G37*
G36*
X229840Y-666760D02*
G01*
X246759Y-666760D01*
X246759Y-649780D01*
X242540Y-652280D01*
X238380Y-655560D01*
X234700Y-659380D01*
X231540Y-663640D01*
G37*

%LPD*%
G36*
X773980Y-954960D02*
G01*
X772400Y-954680D01*
X771040Y-953800D01*
X723379Y-906120D01*
X722500Y-904820D01*
X722200Y-903280D01*
X722200Y-572380D01*
X722540Y-570760D01*
X723500Y-569420D01*
X724920Y-568580D01*
X726560Y-568400D01*
X728139Y-568880D01*
X729400Y-569960D01*
X731560Y-572840D01*
X734040Y-575100D01*
X736900Y-576860D01*
X740020Y-578080D01*
X743319Y-578700D01*
X744200Y-578700D01*
X745720Y-579000D01*
X747020Y-579860D01*
X760680Y-593520D01*
X762200Y-594820D01*
X764460Y-596120D01*
X766880Y-596920D01*
X769620Y-597200D01*
X799960Y-597200D01*
X801400Y-597480D01*
X802660Y-598240D01*
X804040Y-599520D01*
X806900Y-601280D01*
X810020Y-602480D01*
X813319Y-603100D01*
X816680Y-603100D01*
X819980Y-602480D01*
X823100Y-601280D01*
X825960Y-599520D01*
X828439Y-597240D01*
X830460Y-594580D01*
X831040Y-593400D01*
X832039Y-592160D01*
X832120Y-590980D01*
X832880Y-588340D01*
X833180Y-585000D01*
X832880Y-581660D01*
X831960Y-578440D01*
X830460Y-575420D01*
X828439Y-572760D01*
X825960Y-570480D01*
X823100Y-568720D01*
X819980Y-567520D01*
X816680Y-566900D01*
X813319Y-566900D01*
X810020Y-567520D01*
X806900Y-568720D01*
X804040Y-570480D01*
X802660Y-571760D01*
X801400Y-572520D01*
X799960Y-572800D01*
X776120Y-572800D01*
X774580Y-572500D01*
X773300Y-571620D01*
X764300Y-562640D01*
X763500Y-561500D01*
X763139Y-560180D01*
X762880Y-557240D01*
X761960Y-554020D01*
X760460Y-551020D01*
X758439Y-548340D01*
X755960Y-546080D01*
X754200Y-545000D01*
X753139Y-544040D01*
X752480Y-542760D01*
X752320Y-541340D01*
X752680Y-539940D01*
X753480Y-538760D01*
X764820Y-527440D01*
X766080Y-526580D01*
X767580Y-526260D01*
X769080Y-526540D01*
X770020Y-526900D01*
X773319Y-527520D01*
X776680Y-527520D01*
X779980Y-526900D01*
X783100Y-525680D01*
X785960Y-523920D01*
X787340Y-522660D01*
X788600Y-521880D01*
X790040Y-521620D01*
X895440Y-521620D01*
X897440Y-521460D01*
X899960Y-520780D01*
X902220Y-519620D01*
X904360Y-517879D01*
X922340Y-499920D01*
X923600Y-499060D01*
X925100Y-498740D01*
X926600Y-499000D01*
X927900Y-499820D01*
X928800Y-501060D01*
X930200Y-504080D01*
X933040Y-508540D01*
X936480Y-512580D01*
X940400Y-516140D01*
X944780Y-519140D01*
X949500Y-521540D01*
X954520Y-523280D01*
X959700Y-524340D01*
X965000Y-524680D01*
X970280Y-524340D01*
X975480Y-523280D01*
X980500Y-521540D01*
X985220Y-519140D01*
X989599Y-516140D01*
X991120Y-514760D01*
X992420Y-513980D01*
X993940Y-513740D01*
X995420Y-514080D01*
X996680Y-514960D01*
X997500Y-516240D01*
X997800Y-517740D01*
X997800Y-552180D01*
X997400Y-553920D01*
X996300Y-555320D01*
X994700Y-556080D01*
X992920Y-556100D01*
X991320Y-555320D01*
X987460Y-552280D01*
X982900Y-549580D01*
X978020Y-547500D01*
X972900Y-546100D01*
X967640Y-545400D01*
X962340Y-545400D01*
X957099Y-546100D01*
X951979Y-547500D01*
X947099Y-549580D01*
X942540Y-552280D01*
X938379Y-555560D01*
X934700Y-559380D01*
X931540Y-563640D01*
X929000Y-568300D01*
X928240Y-570240D01*
X927400Y-571580D01*
X926080Y-572480D01*
X924520Y-572800D01*
X865160Y-572800D01*
X863139Y-572960D01*
X860639Y-573640D01*
X858360Y-574780D01*
X856220Y-576520D01*
X841480Y-591260D01*
X840180Y-592800D01*
X839440Y-594080D01*
X838560Y-595040D01*
X838439Y-596420D01*
X838080Y-597460D01*
X837800Y-600200D01*
X837800Y-638280D01*
X837500Y-639820D01*
X836620Y-641120D01*
X796480Y-681260D01*
X795180Y-682800D01*
X793880Y-685040D01*
X793080Y-687460D01*
X792800Y-690200D01*
X792800Y-838280D01*
X792500Y-839820D01*
X791620Y-841120D01*
X781480Y-851260D01*
X780180Y-852800D01*
X778880Y-855040D01*
X778080Y-857460D01*
X777800Y-860200D01*
X777800Y-949840D01*
X777860Y-950660D01*
X777660Y-952260D01*
X776840Y-953640D01*
X775560Y-954599D01*
G37*

%LPD*%
G36*
X833400Y-1032800D02*
G01*
X831680Y-1032420D01*
X830300Y-1031320D01*
X829520Y-1029740D01*
X829500Y-1027960D01*
X830240Y-1026360D01*
X833780Y-1023480D01*
X848520Y-1008740D01*
X849820Y-1007200D01*
X851120Y-1004960D01*
X851919Y-1002540D01*
X852200Y-999800D01*
X852200Y-980160D01*
X852039Y-978139D01*
X851360Y-975639D01*
X850220Y-973360D01*
X848480Y-971220D01*
X833760Y-956500D01*
X831820Y-954880D01*
X830759Y-953540D01*
X830380Y-951900D01*
X830699Y-950240D01*
X831680Y-948860D01*
X833439Y-947240D01*
X835460Y-944580D01*
X836960Y-941560D01*
X837880Y-938340D01*
X838180Y-935000D01*
X837880Y-931660D01*
X836960Y-928439D01*
X835800Y-925879D01*
X835699Y-924980D01*
X835699Y-888160D01*
X836000Y-886620D01*
X836880Y-885340D01*
X850960Y-871240D01*
X853040Y-868720D01*
X854479Y-866000D01*
X855380Y-863060D01*
X855699Y-859800D01*
X855699Y-745020D01*
X856120Y-743240D01*
X856960Y-741560D01*
X857880Y-738340D01*
X858180Y-735000D01*
X857880Y-731660D01*
X856960Y-728439D01*
X855460Y-725420D01*
X853439Y-722760D01*
X850960Y-720480D01*
X848100Y-718720D01*
X844980Y-717520D01*
X841680Y-716900D01*
X838319Y-716900D01*
X835020Y-717520D01*
X831900Y-718720D01*
X829040Y-720480D01*
X826560Y-722760D01*
X824400Y-725620D01*
X823139Y-726700D01*
X821560Y-727200D01*
X819920Y-727000D01*
X818500Y-726180D01*
X817540Y-724820D01*
X817200Y-723220D01*
X817200Y-696720D01*
X817500Y-695180D01*
X818379Y-693880D01*
X858520Y-653740D01*
X859820Y-652200D01*
X861120Y-649960D01*
X861919Y-647540D01*
X862200Y-644800D01*
X862200Y-606720D01*
X862500Y-605180D01*
X863379Y-603880D01*
X868880Y-598380D01*
X870180Y-597500D01*
X871720Y-597200D01*
X924460Y-597200D01*
X925939Y-597480D01*
X927200Y-598300D01*
X928080Y-599520D01*
X930200Y-604080D01*
X933040Y-608540D01*
X936480Y-612580D01*
X940400Y-616140D01*
X944780Y-619140D01*
X949500Y-621540D01*
X954520Y-623280D01*
X959700Y-624340D01*
X965000Y-624680D01*
X970280Y-624340D01*
X975480Y-623280D01*
X980500Y-621540D01*
X985220Y-619140D01*
X989599Y-616140D01*
X991120Y-614760D01*
X992420Y-613980D01*
X993940Y-613740D01*
X995420Y-614080D01*
X996680Y-614960D01*
X997500Y-616240D01*
X997800Y-617740D01*
X997800Y-652180D01*
X997400Y-653920D01*
X996300Y-655320D01*
X994700Y-656080D01*
X992920Y-656100D01*
X991320Y-655320D01*
X987460Y-652280D01*
X983240Y-649780D01*
X983240Y-666760D01*
X993800Y-666760D01*
X995340Y-667060D01*
X996620Y-667920D01*
X997500Y-669220D01*
X997800Y-670759D01*
X997800Y-699240D01*
X997500Y-700780D01*
X996620Y-702080D01*
X995340Y-702940D01*
X993800Y-703240D01*
X983240Y-703240D01*
X983240Y-720140D01*
X985220Y-719140D01*
X989599Y-716140D01*
X991120Y-714760D01*
X992420Y-713980D01*
X993940Y-713740D01*
X995420Y-714080D01*
X996680Y-714960D01*
X997500Y-716240D01*
X997800Y-717740D01*
X997800Y-752180D01*
X997400Y-753920D01*
X996300Y-755320D01*
X994700Y-756080D01*
X992920Y-756100D01*
X991320Y-755320D01*
X987460Y-752280D01*
X982900Y-749580D01*
X978020Y-747500D01*
X972900Y-746100D01*
X967640Y-745400D01*
X962340Y-745400D01*
X957099Y-746100D01*
X951979Y-747500D01*
X947099Y-749580D01*
X942540Y-752280D01*
X938379Y-755560D01*
X934700Y-759380D01*
X931540Y-763640D01*
X929000Y-768300D01*
X927820Y-771380D01*
X927060Y-772620D01*
X925900Y-773500D01*
X923360Y-774780D01*
X921220Y-776520D01*
X896480Y-801260D01*
X895180Y-802800D01*
X893880Y-805040D01*
X893080Y-807460D01*
X892800Y-810200D01*
X892800Y-978280D01*
X892500Y-979820D01*
X891620Y-981120D01*
X841120Y-1031620D01*
X839820Y-1032500D01*
X838280Y-1032800D01*
G37*

%LPC*%
G36*
X946760Y-720140D02*
G01*
X946760Y-703240D01*
X929820Y-703240D01*
X930200Y-704080D01*
X933040Y-708540D01*
X936480Y-712580D01*
X940400Y-716140D01*
X944780Y-719140D01*
G37*
G36*
X929840Y-666760D02*
G01*
X946760Y-666760D01*
X946760Y-649780D01*
X942540Y-652280D01*
X938379Y-655560D01*
X934700Y-659380D01*
X931540Y-663640D01*
G37*

%LPD*%
G36*
X935300Y-1256080D02*
G01*
X933700Y-1255300D01*
X932600Y-1253920D01*
X932200Y-1252180D01*
X932200Y-1225160D01*
X932039Y-1223140D01*
X931360Y-1220640D01*
X930220Y-1218360D01*
X928480Y-1216220D01*
X908740Y-1196480D01*
X907200Y-1195180D01*
X904960Y-1193880D01*
X902540Y-1193080D01*
X899800Y-1192800D01*
X800040Y-1192800D01*
X798600Y-1192520D01*
X797340Y-1191760D01*
X795960Y-1190480D01*
X793100Y-1188720D01*
X789980Y-1187520D01*
X786680Y-1186900D01*
X783319Y-1186900D01*
X780020Y-1187520D01*
X776900Y-1188720D01*
X772580Y-1191420D01*
X771080Y-1191660D01*
X769580Y-1191320D01*
X768319Y-1190460D01*
X767500Y-1189180D01*
X767200Y-1187660D01*
X767200Y-1126960D01*
X767039Y-1124940D01*
X766460Y-1122760D01*
X766380Y-1121020D01*
X767060Y-1119420D01*
X768360Y-1118240D01*
X770040Y-1117740D01*
X771760Y-1118000D01*
X773020Y-1118480D01*
X776320Y-1119100D01*
X779680Y-1119100D01*
X781919Y-1118680D01*
X783680Y-1118760D01*
X785240Y-1119560D01*
X786300Y-1120960D01*
X786660Y-1122700D01*
X786240Y-1124400D01*
X785600Y-1125680D01*
X784680Y-1128900D01*
X784380Y-1132240D01*
X784680Y-1135580D01*
X785600Y-1138800D01*
X787099Y-1141820D01*
X789120Y-1144480D01*
X791600Y-1146760D01*
X794460Y-1148520D01*
X797580Y-1149720D01*
X800879Y-1150340D01*
X804240Y-1150340D01*
X807540Y-1149720D01*
X810660Y-1148520D01*
X813520Y-1146760D01*
X814900Y-1145480D01*
X816160Y-1144720D01*
X817600Y-1144440D01*
X927600Y-1144440D01*
X929620Y-1144280D01*
X932120Y-1143600D01*
X934400Y-1142460D01*
X936540Y-1140720D01*
X952540Y-1124700D01*
X953620Y-1123940D01*
X954860Y-1123560D01*
X956180Y-1123620D01*
X959700Y-1124340D01*
X965000Y-1124680D01*
X970280Y-1124340D01*
X975819Y-1123200D01*
X976600Y-1123120D01*
X1056260Y-1122500D01*
X1057800Y-1122800D01*
X1059120Y-1123660D01*
X1060000Y-1124980D01*
X1060300Y-1126500D01*
X1060300Y-1242100D01*
X1060000Y-1243640D01*
X1059140Y-1244920D01*
X1057860Y-1245800D01*
X1056340Y-1246100D01*
X975699Y-1246720D01*
X974620Y-1246580D01*
X972900Y-1246100D01*
X967640Y-1245400D01*
X962340Y-1245400D01*
X957099Y-1246100D01*
X951979Y-1247500D01*
X947099Y-1249580D01*
X942540Y-1252280D01*
X938680Y-1255320D01*
X937080Y-1256080D01*
G37*

%LPC*%
G36*
X983240Y-1220140D02*
G01*
X985220Y-1219140D01*
X989599Y-1216140D01*
X993520Y-1212580D01*
X996940Y-1208540D01*
X999800Y-1204080D01*
X1000180Y-1203240D01*
X983240Y-1203240D01*
G37*
G36*
X946760Y-1220140D02*
G01*
X946760Y-1203240D01*
X929820Y-1203240D01*
X930200Y-1204080D01*
X933040Y-1208540D01*
X936480Y-1212580D01*
X940400Y-1216140D01*
X944780Y-1219140D01*
G37*
G36*
X1052260Y-1219320D02*
G01*
X1052260Y-1202420D01*
X1035280Y-1202420D01*
X1037780Y-1206640D01*
X1041060Y-1210800D01*
X1044880Y-1214480D01*
X1049140Y-1217620D01*
G37*
G36*
X983240Y-1166760D02*
G01*
X1000160Y-1166760D01*
X998439Y-1163640D01*
X995300Y-1159380D01*
X991620Y-1155560D01*
X987460Y-1152280D01*
X983240Y-1149780D01*
G37*
G36*
X929840Y-1166760D02*
G01*
X946760Y-1166760D01*
X946760Y-1149780D01*
X942540Y-1152280D01*
X938379Y-1155560D01*
X934700Y-1159380D01*
X931540Y-1163640D01*
G37*
G36*
X1035280Y-1165920D02*
G01*
X1052260Y-1165920D01*
X1052260Y-1149020D01*
X1049140Y-1150720D01*
X1044880Y-1153860D01*
X1041060Y-1157560D01*
X1037780Y-1161720D01*
G37*

%LPD*%
G36*
X785460Y-1558500D02*
G01*
X784020Y-1558220D01*
X782760Y-1557460D01*
X781880Y-1556279D01*
X781480Y-1554860D01*
X781620Y-1553400D01*
X782280Y-1551060D01*
X782600Y-1547720D01*
X782280Y-1544379D01*
X781360Y-1541160D01*
X779860Y-1538140D01*
X777840Y-1535480D01*
X775360Y-1533200D01*
X772520Y-1531440D01*
X769380Y-1530240D01*
X766080Y-1529620D01*
X762740Y-1529620D01*
X759440Y-1530240D01*
X756300Y-1531440D01*
X753920Y-1532920D01*
X752900Y-1533360D01*
X751820Y-1533520D01*
X668000Y-1533520D01*
X667039Y-1533400D01*
X665600Y-1532780D01*
X662560Y-1531860D01*
X659419Y-1531540D01*
X656260Y-1531860D01*
X653220Y-1532780D01*
X651780Y-1533400D01*
X650819Y-1533520D01*
X567000Y-1533520D01*
X565920Y-1533360D01*
X564900Y-1532920D01*
X562520Y-1531440D01*
X559380Y-1530240D01*
X556080Y-1529620D01*
X552740Y-1529620D01*
X549440Y-1530240D01*
X546300Y-1531440D01*
X543920Y-1532920D01*
X542900Y-1533360D01*
X541820Y-1533520D01*
X462020Y-1533520D01*
X460920Y-1533360D01*
X459900Y-1532920D01*
X457520Y-1531440D01*
X454380Y-1530240D01*
X451079Y-1529620D01*
X447740Y-1529620D01*
X444440Y-1530240D01*
X441300Y-1531440D01*
X438960Y-1532900D01*
X437939Y-1533340D01*
X436840Y-1533500D01*
X394700Y-1533500D01*
X393160Y-1533200D01*
X391880Y-1532320D01*
X391000Y-1531040D01*
X390700Y-1529500D01*
X390700Y-1528160D01*
X391000Y-1526620D01*
X391880Y-1525340D01*
X430959Y-1486240D01*
X433040Y-1483720D01*
X434480Y-1481000D01*
X435379Y-1478060D01*
X435700Y-1474800D01*
X435700Y-423160D01*
X436000Y-421620D01*
X436880Y-420340D01*
X453960Y-403260D01*
X455340Y-402340D01*
X459099Y-400840D01*
X460180Y-400700D01*
X669820Y-400700D01*
X670900Y-400840D01*
X675020Y-402480D01*
X678319Y-403100D01*
X681680Y-403100D01*
X684980Y-402480D01*
X688100Y-401280D01*
X690960Y-399520D01*
X693439Y-397239D01*
X695460Y-394580D01*
X696960Y-391560D01*
X697880Y-388340D01*
X698180Y-385000D01*
X697880Y-381659D01*
X696960Y-378440D01*
X695460Y-375420D01*
X693439Y-372760D01*
X690960Y-370480D01*
X688100Y-368720D01*
X684980Y-367520D01*
X681680Y-366900D01*
X678319Y-366900D01*
X675020Y-367520D01*
X670900Y-369159D01*
X669820Y-369300D01*
X460180Y-369300D01*
X459099Y-369159D01*
X454980Y-367520D01*
X451680Y-366900D01*
X448320Y-366900D01*
X445020Y-367520D01*
X441900Y-368720D01*
X439040Y-370480D01*
X436560Y-372760D01*
X434540Y-375420D01*
X433040Y-378440D01*
X432400Y-380200D01*
X431780Y-381019D01*
X414020Y-398760D01*
X412740Y-399640D01*
X411200Y-399940D01*
X409660Y-399640D01*
X408380Y-398760D01*
X407500Y-397480D01*
X407200Y-395940D01*
X407200Y-15160D01*
X407040Y-13140D01*
X406360Y-10640D01*
X405220Y-8360D01*
X403480Y-6220D01*
X373740Y23520D01*
X372200Y24820D01*
X369960Y26120D01*
X367540Y26920D01*
X364799Y27200D01*
X308700Y27200D01*
X307160Y27500D01*
X305860Y28380D01*
X305000Y29660D01*
X304700Y31200D01*
X304700Y46280D01*
X304460Y48320D01*
X303860Y50039D01*
X302880Y51600D01*
X301600Y52880D01*
X300040Y53860D01*
X298320Y54460D01*
X296280Y54700D01*
X233720Y54700D01*
X231680Y54460D01*
X228860Y53360D01*
X227740Y53200D01*
X179200Y53200D01*
X177659Y53500D01*
X176380Y54380D01*
X175500Y55660D01*
X175200Y57200D01*
X175200Y80800D01*
X175500Y82340D01*
X176380Y83620D01*
X177659Y84500D01*
X179200Y84800D01*
X1056300Y84800D01*
X1057840Y84500D01*
X1059120Y83620D01*
X1060000Y82340D01*
X1060300Y80800D01*
X1060300Y57900D01*
X1060000Y56360D01*
X1059140Y55080D01*
X1057860Y54200D01*
X1056340Y53900D01*
X1001840Y53480D01*
X1000480Y53700D01*
X998319Y54460D01*
X996260Y54700D01*
X933720Y54700D01*
X931680Y54460D01*
X929960Y53860D01*
X928400Y52880D01*
X927120Y51600D01*
X926140Y50039D01*
X925540Y48320D01*
X925300Y46280D01*
X925300Y-16259D01*
X925540Y-18320D01*
X926140Y-20040D01*
X927120Y-21600D01*
X928400Y-22879D01*
X929960Y-23860D01*
X931680Y-24460D01*
X933720Y-24700D01*
X996260Y-24700D01*
X998319Y-24460D01*
X1000040Y-23860D01*
X1001580Y-23080D01*
X1002660Y-22919D01*
X1056260Y-22500D01*
X1057800Y-22799D01*
X1059120Y-23660D01*
X1060000Y-24980D01*
X1060300Y-26500D01*
X1060300Y-42100D01*
X1060000Y-43640D01*
X1059140Y-44920D01*
X1057860Y-45800D01*
X1056340Y-46100D01*
X975699Y-46720D01*
X974620Y-46580D01*
X972900Y-46100D01*
X967640Y-45400D01*
X962340Y-45400D01*
X957099Y-46100D01*
X951979Y-47500D01*
X947099Y-49580D01*
X942540Y-52280D01*
X938379Y-55560D01*
X934700Y-59380D01*
X931540Y-63640D01*
X929000Y-68300D01*
X927099Y-73240D01*
X925860Y-78400D01*
X925340Y-83680D01*
X925520Y-88980D01*
X926400Y-94200D01*
X927960Y-99260D01*
X930200Y-104080D01*
X933040Y-108539D01*
X936480Y-112579D01*
X940400Y-116140D01*
X944780Y-119140D01*
X949500Y-121540D01*
X954520Y-123280D01*
X959700Y-124340D01*
X965000Y-124680D01*
X970280Y-124340D01*
X975819Y-123200D01*
X976600Y-123120D01*
X1056260Y-122500D01*
X1057800Y-122800D01*
X1059120Y-123660D01*
X1060000Y-124980D01*
X1060300Y-126500D01*
X1060300Y-242920D01*
X1059980Y-244480D01*
X1059080Y-245799D01*
X1057740Y-246660D01*
X1053800Y-248180D01*
X1049140Y-250720D01*
X1045580Y-253359D01*
X1043980Y-254060D01*
X1042220Y-254020D01*
X1040660Y-253220D01*
X1039580Y-251840D01*
X1039200Y-250140D01*
X1039200Y-246160D01*
X1039040Y-244140D01*
X1038360Y-241640D01*
X1037220Y-239360D01*
X1035480Y-237220D01*
X1016740Y-218480D01*
X1015200Y-217180D01*
X1012960Y-215880D01*
X1010540Y-215080D01*
X1007800Y-214800D01*
X1000260Y-214800D01*
X998600Y-214440D01*
X997240Y-213420D01*
X996420Y-211940D01*
X996300Y-210240D01*
X996880Y-208640D01*
X999800Y-204080D01*
X1000180Y-203240D01*
X983240Y-203240D01*
X983240Y-210799D01*
X982940Y-212340D01*
X982080Y-213619D01*
X980780Y-214500D01*
X979240Y-214800D01*
X950759Y-214800D01*
X949220Y-214500D01*
X947920Y-213619D01*
X947060Y-212340D01*
X946760Y-210799D01*
X946760Y-203240D01*
X929820Y-203240D01*
X930200Y-204080D01*
X933120Y-208640D01*
X933700Y-210240D01*
X933580Y-211940D01*
X932760Y-213420D01*
X931400Y-214440D01*
X929740Y-214800D01*
X928720Y-214800D01*
X927180Y-214500D01*
X925879Y-213619D01*
X888240Y-175980D01*
X886700Y-174680D01*
X884460Y-173380D01*
X882039Y-172580D01*
X879300Y-172300D01*
X815040Y-172300D01*
X813580Y-172020D01*
X812340Y-171260D01*
X810960Y-170000D01*
X808100Y-168240D01*
X804980Y-167020D01*
X801680Y-166400D01*
X798319Y-166400D01*
X795020Y-167020D01*
X791900Y-168240D01*
X789040Y-170000D01*
X786560Y-172260D01*
X784539Y-174940D01*
X783040Y-177940D01*
X782120Y-181160D01*
X781820Y-184520D01*
X782120Y-187860D01*
X783040Y-191080D01*
X784539Y-194080D01*
X786560Y-196759D01*
X789040Y-199020D01*
X791900Y-200780D01*
X795020Y-202000D01*
X798319Y-202620D01*
X801680Y-202620D01*
X804980Y-202000D01*
X808100Y-200780D01*
X810960Y-199020D01*
X812360Y-197740D01*
X813600Y-196980D01*
X815060Y-196700D01*
X872780Y-196700D01*
X874320Y-197000D01*
X875620Y-197880D01*
X883720Y-205980D01*
X884580Y-207260D01*
X884880Y-208800D01*
X884580Y-210340D01*
X883720Y-211620D01*
X882420Y-212500D01*
X880879Y-212800D01*
X761720Y-212800D01*
X760180Y-212500D01*
X758880Y-211620D01*
X743740Y-196480D01*
X742200Y-195180D01*
X739960Y-193880D01*
X737540Y-193080D01*
X734800Y-192800D01*
X565160Y-192800D01*
X563140Y-192960D01*
X560640Y-193640D01*
X558360Y-194780D01*
X556220Y-196520D01*
X541480Y-211260D01*
X540180Y-212800D01*
X538880Y-215040D01*
X538080Y-217460D01*
X537800Y-220200D01*
X537800Y-261439D01*
X537960Y-263460D01*
X538640Y-265960D01*
X539780Y-268240D01*
X541520Y-270380D01*
X550860Y-279720D01*
X551660Y-280840D01*
X552020Y-282180D01*
X552120Y-283340D01*
X553040Y-286560D01*
X554540Y-289580D01*
X556560Y-292240D01*
X559040Y-294520D01*
X561900Y-296280D01*
X565020Y-297480D01*
X568320Y-298100D01*
X571680Y-298100D01*
X574980Y-297480D01*
X578100Y-296280D01*
X580960Y-294520D01*
X583440Y-292240D01*
X585460Y-289580D01*
X586960Y-286560D01*
X587880Y-283340D01*
X588180Y-280000D01*
X587880Y-276660D01*
X586960Y-273440D01*
X585460Y-270420D01*
X583440Y-267760D01*
X580960Y-265480D01*
X578100Y-263720D01*
X574980Y-262520D01*
X571680Y-261900D01*
X569200Y-261900D01*
X567680Y-261600D01*
X566380Y-260720D01*
X563380Y-257719D01*
X562500Y-256420D01*
X562200Y-254880D01*
X562200Y-226720D01*
X562500Y-225180D01*
X563380Y-223880D01*
X568880Y-218380D01*
X570180Y-217500D01*
X571720Y-217200D01*
X728280Y-217200D01*
X729820Y-217500D01*
X731120Y-218380D01*
X746260Y-233520D01*
X747800Y-234820D01*
X750040Y-236119D01*
X752460Y-236920D01*
X755200Y-237200D01*
X888280Y-237200D01*
X889820Y-237500D01*
X891120Y-238380D01*
X903259Y-250520D01*
X904800Y-251820D01*
X907039Y-253120D01*
X909460Y-253920D01*
X912200Y-254200D01*
X930580Y-254200D01*
X932300Y-254579D01*
X933680Y-255660D01*
X934460Y-257220D01*
X934520Y-258980D01*
X933800Y-260580D01*
X931540Y-263640D01*
X929000Y-268300D01*
X927099Y-273240D01*
X925860Y-278400D01*
X925340Y-283680D01*
X925520Y-288980D01*
X926400Y-294200D01*
X927960Y-299260D01*
X928540Y-300500D01*
X928900Y-302080D01*
X928620Y-303660D01*
X927740Y-305020D01*
X911480Y-321260D01*
X910180Y-322800D01*
X908880Y-325040D01*
X908080Y-327460D01*
X907800Y-330200D01*
X907800Y-478280D01*
X907500Y-479820D01*
X906620Y-481120D01*
X891700Y-496040D01*
X890420Y-496900D01*
X888880Y-497220D01*
X790040Y-497220D01*
X788600Y-496940D01*
X787340Y-496160D01*
X785960Y-494900D01*
X783100Y-493140D01*
X779980Y-491920D01*
X776680Y-491300D01*
X773319Y-491300D01*
X770020Y-491920D01*
X766900Y-493140D01*
X764040Y-494900D01*
X759920Y-498700D01*
X758980Y-499180D01*
X756820Y-500920D01*
X701480Y-556260D01*
X700180Y-557800D01*
X698880Y-560040D01*
X698080Y-562460D01*
X697800Y-565200D01*
X697800Y-909840D01*
X697960Y-911860D01*
X698640Y-914360D01*
X699780Y-916640D01*
X701520Y-918780D01*
X748720Y-965980D01*
X749580Y-967260D01*
X749880Y-968800D01*
X749580Y-970340D01*
X748720Y-971620D01*
X747420Y-972500D01*
X745879Y-972800D01*
X715040Y-972800D01*
X713600Y-972520D01*
X712340Y-971760D01*
X710960Y-970480D01*
X708100Y-968720D01*
X704980Y-967520D01*
X701680Y-966900D01*
X698319Y-966900D01*
X695020Y-967520D01*
X691900Y-968720D01*
X688920Y-970560D01*
X688199Y-971140D01*
X686660Y-971880D01*
X684960Y-971940D01*
X683400Y-971260D01*
X682240Y-970000D01*
X680639Y-967200D01*
X679220Y-965560D01*
X669479Y-955819D01*
X667180Y-953940D01*
X664720Y-952700D01*
X662020Y-951979D01*
X659840Y-951800D01*
X638940Y-951800D01*
X637500Y-951520D01*
X635960Y-950480D01*
X633100Y-948720D01*
X629980Y-947520D01*
X626680Y-946900D01*
X623320Y-946900D01*
X620020Y-947520D01*
X616900Y-948720D01*
X614040Y-950480D01*
X612500Y-951520D01*
X611060Y-951800D01*
X500200Y-951800D01*
X497260Y-952120D01*
X494640Y-952960D01*
X492200Y-954360D01*
X490560Y-955780D01*
X480820Y-965520D01*
X478940Y-967820D01*
X477700Y-970280D01*
X476980Y-972980D01*
X476800Y-975160D01*
X476800Y-991100D01*
X476599Y-992360D01*
X476000Y-993500D01*
X474540Y-995420D01*
X473040Y-998439D01*
X472120Y-1001660D01*
X471820Y-1005000D01*
X472120Y-1008340D01*
X473040Y-1011560D01*
X474540Y-1014580D01*
X476560Y-1017240D01*
X479040Y-1019520D01*
X481900Y-1021280D01*
X485020Y-1022480D01*
X488320Y-1023100D01*
X491680Y-1023100D01*
X494980Y-1022480D01*
X498100Y-1021280D01*
X500959Y-1019520D01*
X503440Y-1017240D01*
X505460Y-1014580D01*
X506960Y-1011560D01*
X507879Y-1008340D01*
X508180Y-1005000D01*
X507879Y-1001660D01*
X506960Y-998439D01*
X505460Y-995420D01*
X504000Y-993500D01*
X503400Y-992360D01*
X503200Y-991100D01*
X503200Y-982200D01*
X503500Y-980660D01*
X504380Y-979380D01*
X505660Y-978500D01*
X507200Y-978199D01*
X611060Y-978199D01*
X612500Y-978480D01*
X614040Y-979520D01*
X616900Y-981280D01*
X620020Y-982480D01*
X623320Y-983100D01*
X626680Y-983100D01*
X629980Y-982480D01*
X633100Y-981280D01*
X635960Y-979520D01*
X637500Y-978480D01*
X638940Y-978199D01*
X652800Y-978199D01*
X654340Y-978500D01*
X655620Y-979380D01*
X656500Y-980660D01*
X656800Y-982200D01*
X656800Y-1037099D01*
X657120Y-1040040D01*
X657960Y-1042660D01*
X659360Y-1045100D01*
X660780Y-1046740D01*
X673220Y-1059180D01*
X675520Y-1061060D01*
X678020Y-1062320D01*
X679940Y-1062900D01*
X681340Y-1063060D01*
X682540Y-1063400D01*
X684040Y-1064520D01*
X686900Y-1066280D01*
X688080Y-1066740D01*
X689400Y-1067580D01*
X690300Y-1068880D01*
X690620Y-1070420D01*
X690320Y-1071980D01*
X689460Y-1073300D01*
X651480Y-1111260D01*
X650180Y-1112800D01*
X648880Y-1115040D01*
X648080Y-1117460D01*
X647800Y-1120200D01*
X647800Y-1144700D01*
X647500Y-1146220D01*
X646660Y-1147500D01*
X645380Y-1148380D01*
X643880Y-1148700D01*
X642360Y-1148440D01*
X639980Y-1147520D01*
X636680Y-1146900D01*
X633320Y-1146900D01*
X630020Y-1147520D01*
X626900Y-1148720D01*
X624040Y-1150480D01*
X621620Y-1152700D01*
X620360Y-1153480D01*
X618920Y-1153740D01*
X617480Y-1153480D01*
X614980Y-1152520D01*
X611680Y-1151900D01*
X608320Y-1151900D01*
X605020Y-1152520D01*
X601900Y-1153720D01*
X599040Y-1155480D01*
X596560Y-1157760D01*
X595700Y-1158900D01*
X594600Y-1159900D01*
X593240Y-1160420D01*
X591760Y-1160420D01*
X590400Y-1159900D01*
X589300Y-1158900D01*
X588440Y-1157760D01*
X585960Y-1155480D01*
X583100Y-1153720D01*
X579980Y-1152520D01*
X576680Y-1151900D01*
X573320Y-1151900D01*
X570020Y-1152520D01*
X566900Y-1153720D01*
X564040Y-1155480D01*
X562500Y-1156520D01*
X561060Y-1156800D01*
X507200Y-1156800D01*
X505660Y-1156500D01*
X504380Y-1155620D01*
X503500Y-1154340D01*
X503200Y-1152800D01*
X503200Y-1113900D01*
X503400Y-1112640D01*
X504000Y-1111500D01*
X505460Y-1109580D01*
X506960Y-1106560D01*
X507879Y-1103340D01*
X508180Y-1100000D01*
X507879Y-1096660D01*
X506960Y-1093440D01*
X505460Y-1090420D01*
X503440Y-1087760D01*
X500959Y-1085480D01*
X498100Y-1083720D01*
X494980Y-1082520D01*
X491680Y-1081900D01*
X488320Y-1081900D01*
X485020Y-1082520D01*
X481900Y-1083720D01*
X479040Y-1085480D01*
X476560Y-1087760D01*
X474540Y-1090420D01*
X473040Y-1093440D01*
X472120Y-1096660D01*
X471820Y-1100000D01*
X472120Y-1103340D01*
X473040Y-1106560D01*
X474540Y-1109580D01*
X476000Y-1111500D01*
X476599Y-1112640D01*
X476800Y-1113900D01*
X476800Y-1159800D01*
X477120Y-1162740D01*
X477960Y-1165360D01*
X479360Y-1167800D01*
X480780Y-1169440D01*
X490520Y-1179180D01*
X492819Y-1181060D01*
X495280Y-1182300D01*
X497980Y-1183020D01*
X500160Y-1183200D01*
X561060Y-1183200D01*
X562500Y-1183480D01*
X564040Y-1184520D01*
X566900Y-1186280D01*
X570020Y-1187480D01*
X573320Y-1188100D01*
X576680Y-1188100D01*
X579980Y-1187480D01*
X583100Y-1186280D01*
X585960Y-1184520D01*
X588440Y-1182240D01*
X589300Y-1181100D01*
X590400Y-1180100D01*
X591760Y-1179580D01*
X593240Y-1179580D01*
X594600Y-1180100D01*
X595700Y-1181100D01*
X596560Y-1182240D01*
X599040Y-1184520D01*
X600900Y-1185660D01*
X601920Y-1186560D01*
X602580Y-1187740D01*
X602800Y-1189060D01*
X602800Y-1444840D01*
X602960Y-1446860D01*
X603640Y-1449360D01*
X604780Y-1451639D01*
X606520Y-1453779D01*
X623720Y-1470980D01*
X624580Y-1472260D01*
X624880Y-1473800D01*
X624580Y-1475340D01*
X623720Y-1476620D01*
X622420Y-1477500D01*
X620880Y-1477800D01*
X491719Y-1477800D01*
X490180Y-1477500D01*
X488880Y-1476620D01*
X482879Y-1470620D01*
X482000Y-1469319D01*
X481700Y-1467780D01*
X481700Y-1450160D01*
X482020Y-1448580D01*
X484960Y-1444580D01*
X486460Y-1441560D01*
X487380Y-1438340D01*
X487700Y-1435000D01*
X487380Y-1431660D01*
X486460Y-1428440D01*
X484960Y-1425420D01*
X482939Y-1422760D01*
X480460Y-1420480D01*
X477620Y-1418720D01*
X474480Y-1417520D01*
X471180Y-1416900D01*
X467840Y-1416900D01*
X464540Y-1417520D01*
X461400Y-1418720D01*
X458560Y-1420480D01*
X456079Y-1422760D01*
X454060Y-1425420D01*
X452560Y-1428440D01*
X451640Y-1431660D01*
X451320Y-1435000D01*
X451640Y-1438340D01*
X452560Y-1441560D01*
X454040Y-1444560D01*
X456460Y-1447680D01*
X457080Y-1448839D01*
X457299Y-1450140D01*
X457299Y-1474340D01*
X457460Y-1476360D01*
X458140Y-1478860D01*
X459280Y-1481140D01*
X461019Y-1483280D01*
X476260Y-1498520D01*
X477800Y-1499820D01*
X480040Y-1501120D01*
X482460Y-1501920D01*
X485200Y-1502200D01*
X813280Y-1502200D01*
X814820Y-1502500D01*
X816120Y-1503380D01*
X821620Y-1508880D01*
X822500Y-1510180D01*
X822800Y-1511720D01*
X822800Y-1525840D01*
X822420Y-1527540D01*
X821360Y-1528899D01*
X819800Y-1529700D01*
X818060Y-1529760D01*
X817260Y-1529620D01*
X813920Y-1529620D01*
X810620Y-1530240D01*
X807480Y-1531440D01*
X804640Y-1533200D01*
X802159Y-1535480D01*
X800140Y-1538140D01*
X798640Y-1541160D01*
X797720Y-1544379D01*
X797400Y-1547720D01*
X797720Y-1551060D01*
X798379Y-1553400D01*
X798520Y-1554860D01*
X798120Y-1556279D01*
X797240Y-1557460D01*
X795980Y-1558220D01*
X794539Y-1558500D01*
G37*

%LPC*%
G36*
X693319Y-523100D02*
G01*
X696680Y-523100D01*
X699980Y-522480D01*
X703100Y-521280D01*
X705960Y-519520D01*
X708439Y-517239D01*
X710460Y-514580D01*
X711960Y-511560D01*
X712880Y-508340D01*
X713180Y-505000D01*
X712920Y-502239D01*
X713139Y-500500D01*
X714080Y-499040D01*
X748520Y-464600D01*
X749820Y-463080D01*
X751120Y-460820D01*
X751919Y-458400D01*
X752200Y-455660D01*
X752200Y-285200D01*
X751919Y-282460D01*
X751120Y-280040D01*
X749860Y-277840D01*
X748020Y-275820D01*
X739539Y-268380D01*
X738720Y-267420D01*
X738259Y-266260D01*
X737880Y-261660D01*
X736960Y-258440D01*
X735460Y-255420D01*
X733439Y-252760D01*
X730960Y-250479D01*
X728100Y-248720D01*
X724980Y-247520D01*
X721680Y-246900D01*
X718319Y-246900D01*
X715020Y-247520D01*
X711900Y-248720D01*
X709040Y-250479D01*
X706560Y-252760D01*
X704539Y-255420D01*
X703040Y-258440D01*
X702120Y-261660D01*
X701820Y-265000D01*
X702120Y-268340D01*
X703040Y-271560D01*
X704539Y-274580D01*
X706560Y-277240D01*
X709040Y-279520D01*
X711900Y-281280D01*
X715020Y-282480D01*
X718500Y-283140D01*
X719520Y-283480D01*
X720400Y-284060D01*
X726440Y-289340D01*
X727440Y-290700D01*
X727800Y-292360D01*
X727800Y-449159D01*
X727500Y-450680D01*
X726620Y-451980D01*
X692220Y-486380D01*
X691260Y-487100D01*
X686900Y-488720D01*
X684040Y-490480D01*
X681560Y-492760D01*
X679539Y-495420D01*
X678040Y-498440D01*
X677120Y-501659D01*
X676820Y-505000D01*
X677120Y-508340D01*
X678040Y-511560D01*
X679539Y-514580D01*
X681560Y-517239D01*
X684040Y-519520D01*
X686900Y-521280D01*
X690020Y-522480D01*
G37*
G36*
X1052260Y-219320D02*
G01*
X1052260Y-202420D01*
X1035280Y-202420D01*
X1037780Y-206640D01*
X1041060Y-210799D01*
X1044880Y-214480D01*
X1049140Y-217620D01*
G37*
G36*
X983240Y-166759D02*
G01*
X1000160Y-166759D01*
X998439Y-163640D01*
X995300Y-159380D01*
X991620Y-155560D01*
X987460Y-152280D01*
X983240Y-149780D01*
G37*
G36*
X929840Y-166759D02*
G01*
X946760Y-166759D01*
X946760Y-149780D01*
X942540Y-152280D01*
X938379Y-155560D01*
X934700Y-159380D01*
X931540Y-163640D01*
G37*
G36*
X1035280Y-165920D02*
G01*
X1052260Y-165920D01*
X1052260Y-149020D01*
X1049140Y-150720D01*
X1044880Y-153860D01*
X1041060Y-157560D01*
X1037780Y-161720D01*
G37*
G36*
X728160Y-98500D02*
G01*
X731520Y-97100D01*
X735120Y-94900D01*
X738319Y-92160D01*
X741060Y-88960D01*
X743420Y-85000D01*
X728199Y-85000D01*
G37*
G36*
X501800Y-98480D02*
G01*
X501800Y-85000D01*
X486599Y-85000D01*
X486740Y-85360D01*
X488940Y-88960D01*
X491680Y-92160D01*
X494900Y-94900D01*
X498500Y-97100D01*
G37*
G36*
X698600Y-98480D02*
G01*
X698600Y-85000D01*
X683400Y-85000D01*
X683540Y-85360D01*
X685740Y-88960D01*
X688480Y-92160D01*
X691700Y-94900D01*
X695300Y-97100D01*
G37*
G36*
X531400Y-98480D02*
G01*
X534720Y-97100D01*
X538320Y-94900D01*
X541520Y-92160D01*
X544260Y-88960D01*
X546620Y-85000D01*
X531400Y-85000D01*
G37*
G36*
X486599Y-61300D02*
G01*
X501800Y-61300D01*
X501800Y-47820D01*
X498500Y-49200D01*
X494900Y-51400D01*
X491680Y-54140D01*
X488940Y-57340D01*
X486740Y-60940D01*
G37*
G36*
X728199Y-61300D02*
G01*
X743420Y-61300D01*
X741060Y-57340D01*
X738319Y-54140D01*
X735120Y-51400D01*
X731520Y-49200D01*
X728199Y-47820D01*
G37*
G36*
X683400Y-61300D02*
G01*
X698600Y-61300D01*
X698600Y-47820D01*
X695300Y-49200D01*
X691700Y-51400D01*
X688480Y-54140D01*
X685740Y-57340D01*
X683540Y-60940D01*
G37*
G36*
X531400Y-61300D02*
G01*
X546620Y-61300D01*
X544260Y-57340D01*
X541520Y-54140D01*
X538320Y-51400D01*
X534720Y-49200D01*
X531400Y-47820D01*
G37*
G36*
X489540Y-2640D02*
G01*
X489860Y-2520D01*
X493579Y-220D01*
X496920Y2620D01*
X499760Y5940D01*
X502040Y9660D01*
X503720Y13700D01*
X504120Y15400D01*
X489540Y15400D01*
G37*
G36*
X765140Y-2640D02*
G01*
X765460Y-2520D01*
X769180Y-220D01*
X772520Y2620D01*
X775360Y5940D01*
X777640Y9660D01*
X779320Y13700D01*
X779720Y15400D01*
X765140Y15400D01*
G37*
G36*
X740460Y-2640D02*
G01*
X740460Y15400D01*
X725900Y15400D01*
X726300Y13700D01*
X727960Y9660D01*
X730260Y5940D01*
X733100Y2620D01*
X736420Y-220D01*
X740160Y-2520D01*
G37*
G36*
X464860Y-2640D02*
G01*
X464860Y15400D01*
X450300Y15400D01*
X450700Y13700D01*
X452360Y9660D01*
X454660Y5940D01*
X457500Y2620D01*
X460820Y-220D01*
X464560Y-2520D01*
G37*
G36*
X725900Y50900D02*
G01*
X740460Y50900D01*
X740460Y68940D01*
X740160Y68820D01*
X736420Y66520D01*
X733100Y63680D01*
X730260Y60359D01*
X727960Y56640D01*
X726300Y52600D01*
G37*
G36*
X450300Y50900D02*
G01*
X464860Y50900D01*
X464860Y68940D01*
X464560Y68820D01*
X460820Y66520D01*
X457500Y63680D01*
X454660Y60359D01*
X452360Y56640D01*
X450700Y52600D01*
G37*
G36*
X489540Y50900D02*
G01*
X504120Y50900D01*
X503720Y52600D01*
X502040Y56640D01*
X499760Y60359D01*
X496920Y63680D01*
X493579Y66520D01*
X489860Y68820D01*
X489540Y68940D01*
G37*
G36*
X765140Y50900D02*
G01*
X779720Y50900D01*
X779320Y52600D01*
X777640Y56640D01*
X775360Y60359D01*
X772520Y63680D01*
X769180Y66520D01*
X765460Y68820D01*
X765140Y68940D01*
G37*

%LPD*%
G36*
X356719Y-1872800D02*
G01*
X355180Y-1872500D01*
X353880Y-1871620D01*
X348380Y-1866120D01*
X347500Y-1864820D01*
X347200Y-1863280D01*
X347200Y-1800160D01*
X347040Y-1798140D01*
X346360Y-1795640D01*
X345220Y-1793360D01*
X343480Y-1791220D01*
X328740Y-1776480D01*
X327200Y-1775180D01*
X324960Y-1773880D01*
X322540Y-1773080D01*
X319800Y-1772800D01*
X305480Y-1772800D01*
X303920Y-1772480D01*
X302600Y-1771579D01*
X301740Y-1770240D01*
X301000Y-1768300D01*
X298460Y-1763640D01*
X295300Y-1759379D01*
X291620Y-1755560D01*
X287460Y-1752280D01*
X282900Y-1749580D01*
X278020Y-1747500D01*
X272900Y-1746100D01*
X267660Y-1745400D01*
X262340Y-1745400D01*
X257100Y-1746100D01*
X255080Y-1746660D01*
X254020Y-1746800D01*
X179200Y-1746800D01*
X177659Y-1746500D01*
X176380Y-1745620D01*
X175500Y-1744340D01*
X175200Y-1742800D01*
X175200Y-1627200D01*
X175500Y-1625660D01*
X176380Y-1624379D01*
X177659Y-1623500D01*
X179200Y-1623200D01*
X253740Y-1623200D01*
X254540Y-1623280D01*
X259720Y-1624340D01*
X265000Y-1624680D01*
X270280Y-1624340D01*
X275480Y-1623280D01*
X280500Y-1621540D01*
X285220Y-1619139D01*
X289600Y-1616140D01*
X293520Y-1612580D01*
X296960Y-1608540D01*
X299800Y-1604079D01*
X302040Y-1599259D01*
X303600Y-1594199D01*
X304480Y-1588980D01*
X304660Y-1583680D01*
X304140Y-1578400D01*
X302900Y-1573240D01*
X301000Y-1568300D01*
X298460Y-1563640D01*
X295300Y-1559379D01*
X291620Y-1555560D01*
X287460Y-1552280D01*
X282900Y-1549580D01*
X278020Y-1547500D01*
X272900Y-1546100D01*
X267660Y-1545400D01*
X262340Y-1545400D01*
X257100Y-1546100D01*
X255080Y-1546660D01*
X254020Y-1546800D01*
X179200Y-1546800D01*
X177659Y-1546500D01*
X176380Y-1545620D01*
X175500Y-1544340D01*
X175200Y-1542800D01*
X175200Y-1527200D01*
X175500Y-1525660D01*
X176380Y-1524379D01*
X177659Y-1523500D01*
X179200Y-1523200D01*
X253740Y-1523200D01*
X254540Y-1523280D01*
X259720Y-1524340D01*
X265000Y-1524680D01*
X270280Y-1524340D01*
X275480Y-1523280D01*
X280500Y-1521540D01*
X285220Y-1519139D01*
X289600Y-1516140D01*
X293520Y-1512580D01*
X296960Y-1508540D01*
X299800Y-1504079D01*
X302040Y-1499259D01*
X303600Y-1494199D01*
X304480Y-1488980D01*
X304660Y-1483680D01*
X304140Y-1478400D01*
X302900Y-1473240D01*
X301000Y-1468300D01*
X298460Y-1463640D01*
X295300Y-1459379D01*
X291620Y-1455560D01*
X287460Y-1452280D01*
X282900Y-1449580D01*
X278020Y-1447500D01*
X272900Y-1446100D01*
X267660Y-1445400D01*
X262340Y-1445400D01*
X257100Y-1446100D01*
X255080Y-1446660D01*
X254020Y-1446800D01*
X179200Y-1446800D01*
X177659Y-1446500D01*
X176380Y-1445620D01*
X175500Y-1444340D01*
X175200Y-1442800D01*
X175200Y-1427200D01*
X175500Y-1425660D01*
X176380Y-1424379D01*
X177659Y-1423500D01*
X179200Y-1423200D01*
X253740Y-1423200D01*
X254540Y-1423280D01*
X259720Y-1424340D01*
X265000Y-1424680D01*
X270280Y-1424340D01*
X275480Y-1423280D01*
X280500Y-1421540D01*
X285220Y-1419139D01*
X289600Y-1416140D01*
X293520Y-1412580D01*
X296960Y-1408540D01*
X299800Y-1404079D01*
X302040Y-1399259D01*
X303600Y-1394199D01*
X304480Y-1388980D01*
X304660Y-1383680D01*
X304140Y-1378400D01*
X302900Y-1373240D01*
X301000Y-1368300D01*
X298460Y-1363640D01*
X295300Y-1359379D01*
X291620Y-1355560D01*
X287460Y-1352280D01*
X282900Y-1349580D01*
X278020Y-1347500D01*
X272900Y-1346100D01*
X267660Y-1345400D01*
X262340Y-1345400D01*
X257100Y-1346100D01*
X255080Y-1346660D01*
X254020Y-1346800D01*
X179200Y-1346800D01*
X177659Y-1346500D01*
X176380Y-1345620D01*
X175500Y-1344340D01*
X175200Y-1342800D01*
X175200Y-1327200D01*
X175500Y-1325660D01*
X176380Y-1324379D01*
X177659Y-1323500D01*
X179200Y-1323200D01*
X253740Y-1323200D01*
X254540Y-1323280D01*
X259720Y-1324340D01*
X265000Y-1324680D01*
X270280Y-1324340D01*
X275480Y-1323280D01*
X280500Y-1321540D01*
X285220Y-1319139D01*
X289600Y-1316140D01*
X293520Y-1312580D01*
X296960Y-1308540D01*
X299800Y-1304079D01*
X302040Y-1299259D01*
X303600Y-1294199D01*
X304480Y-1288980D01*
X304660Y-1283680D01*
X304140Y-1278400D01*
X302900Y-1273240D01*
X301000Y-1268300D01*
X298460Y-1263640D01*
X295300Y-1259380D01*
X291620Y-1255560D01*
X287460Y-1252280D01*
X282900Y-1249580D01*
X278020Y-1247500D01*
X272900Y-1246100D01*
X267660Y-1245400D01*
X262340Y-1245400D01*
X257100Y-1246100D01*
X255080Y-1246660D01*
X254020Y-1246800D01*
X179200Y-1246800D01*
X177659Y-1246500D01*
X176380Y-1245620D01*
X175500Y-1244340D01*
X175200Y-1242800D01*
X175200Y-1127200D01*
X175500Y-1125660D01*
X176380Y-1124380D01*
X177659Y-1123500D01*
X179200Y-1123200D01*
X253740Y-1123200D01*
X254540Y-1123280D01*
X259720Y-1124340D01*
X265000Y-1124680D01*
X270280Y-1124340D01*
X275480Y-1123280D01*
X280500Y-1121540D01*
X285220Y-1119140D01*
X289600Y-1116140D01*
X293520Y-1112580D01*
X296960Y-1108540D01*
X299800Y-1104080D01*
X302040Y-1099260D01*
X303600Y-1094200D01*
X304480Y-1088980D01*
X304660Y-1083680D01*
X304140Y-1078400D01*
X302900Y-1073240D01*
X301000Y-1068300D01*
X298460Y-1063640D01*
X295300Y-1059380D01*
X291620Y-1055560D01*
X287460Y-1052280D01*
X282900Y-1049580D01*
X278020Y-1047500D01*
X272900Y-1046100D01*
X267660Y-1045400D01*
X262340Y-1045400D01*
X257100Y-1046100D01*
X255080Y-1046660D01*
X254020Y-1046800D01*
X179200Y-1046800D01*
X177659Y-1046500D01*
X176380Y-1045620D01*
X175500Y-1044340D01*
X175200Y-1042800D01*
X175200Y-1027200D01*
X175500Y-1025660D01*
X176380Y-1024380D01*
X177659Y-1023500D01*
X179200Y-1023199D01*
X253740Y-1023199D01*
X254540Y-1023280D01*
X259720Y-1024340D01*
X265000Y-1024680D01*
X270280Y-1024340D01*
X275480Y-1023280D01*
X280500Y-1021540D01*
X285220Y-1019140D01*
X289600Y-1016140D01*
X293520Y-1012580D01*
X295740Y-1009960D01*
X297020Y-1008960D01*
X298580Y-1008560D01*
X300180Y-1008800D01*
X301540Y-1009640D01*
X302480Y-1010960D01*
X302800Y-1012540D01*
X302800Y-1049840D01*
X302960Y-1051860D01*
X303640Y-1054360D01*
X304780Y-1056640D01*
X306520Y-1058780D01*
X328060Y-1080320D01*
X329600Y-1081620D01*
X331840Y-1082920D01*
X334260Y-1083720D01*
X337000Y-1084000D01*
X346560Y-1084000D01*
X348000Y-1084280D01*
X349260Y-1085040D01*
X350600Y-1086280D01*
X353459Y-1088040D01*
X356580Y-1089240D01*
X359880Y-1089860D01*
X363240Y-1089860D01*
X366540Y-1089240D01*
X369660Y-1088040D01*
X372520Y-1086280D01*
X375000Y-1084000D01*
X377020Y-1081340D01*
X378519Y-1078320D01*
X379440Y-1075100D01*
X379739Y-1071760D01*
X379820Y-1069640D01*
X380480Y-1068320D01*
X381560Y-1067340D01*
X382920Y-1066800D01*
X384180Y-1066560D01*
X387299Y-1065360D01*
X390160Y-1063600D01*
X392640Y-1061320D01*
X394660Y-1058660D01*
X396160Y-1055640D01*
X396460Y-1054600D01*
X397200Y-1053160D01*
X398459Y-1052140D01*
X400040Y-1051700D01*
X401640Y-1051940D01*
X403040Y-1052780D01*
X403960Y-1054100D01*
X404300Y-1055700D01*
X404300Y-1466840D01*
X404000Y-1468380D01*
X403120Y-1469660D01*
X364040Y-1508760D01*
X361960Y-1511279D01*
X360520Y-1514000D01*
X359620Y-1516940D01*
X359300Y-1520200D01*
X359300Y-1819800D01*
X359620Y-1823060D01*
X360520Y-1826000D01*
X361960Y-1828720D01*
X364040Y-1831240D01*
X378760Y-1845960D01*
X381280Y-1848040D01*
X384000Y-1849480D01*
X386940Y-1850380D01*
X390200Y-1850700D01*
X433519Y-1850700D01*
X435000Y-1850980D01*
X436280Y-1851800D01*
X437160Y-1853020D01*
X437520Y-1854480D01*
X437320Y-1855960D01*
X436580Y-1857280D01*
X433040Y-1861459D01*
X430200Y-1865920D01*
X428080Y-1870480D01*
X427200Y-1871699D01*
X425940Y-1872520D01*
X424460Y-1872800D01*
G37*

%LPC*%
G36*
X183240Y-1720180D02*
G01*
X184080Y-1719800D01*
X188540Y-1716960D01*
X192600Y-1713520D01*
X196140Y-1709600D01*
X199140Y-1705220D01*
X200140Y-1703240D01*
X183240Y-1703240D01*
G37*
G36*
X283240Y-1720140D02*
G01*
X285220Y-1719139D01*
X289600Y-1716140D01*
X293520Y-1712580D01*
X296960Y-1708540D01*
X299800Y-1704079D01*
X300180Y-1703240D01*
X283240Y-1703240D01*
G37*
G36*
X246759Y-1720140D02*
G01*
X246759Y-1703240D01*
X229820Y-1703240D01*
X230200Y-1704079D01*
X233039Y-1708540D01*
X236480Y-1712580D01*
X240400Y-1716140D01*
X244780Y-1719139D01*
G37*
G36*
X183240Y-1666759D02*
G01*
X200140Y-1666759D01*
X199140Y-1664780D01*
X196140Y-1660400D01*
X192600Y-1656480D01*
X188540Y-1653040D01*
X184080Y-1650200D01*
X183240Y-1649820D01*
G37*
G36*
X283240Y-1666759D02*
G01*
X300160Y-1666759D01*
X298460Y-1663640D01*
X295300Y-1659379D01*
X291620Y-1655560D01*
X287460Y-1652280D01*
X283240Y-1649780D01*
G37*
G36*
X229840Y-1666759D02*
G01*
X246759Y-1666759D01*
X246759Y-1649780D01*
X242540Y-1652280D01*
X238380Y-1655560D01*
X234700Y-1659379D01*
X231540Y-1663640D01*
G37*
G36*
X183240Y-1220180D02*
G01*
X184080Y-1219800D01*
X188540Y-1216960D01*
X192600Y-1213520D01*
X196140Y-1209600D01*
X199140Y-1205220D01*
X200140Y-1203240D01*
X183240Y-1203240D01*
G37*
G36*
X283240Y-1220140D02*
G01*
X285220Y-1219140D01*
X289600Y-1216140D01*
X293520Y-1212580D01*
X296960Y-1208540D01*
X299800Y-1204080D01*
X300180Y-1203240D01*
X283240Y-1203240D01*
G37*
G36*
X246759Y-1220140D02*
G01*
X246759Y-1203240D01*
X229820Y-1203240D01*
X230200Y-1204080D01*
X233039Y-1208540D01*
X236480Y-1212580D01*
X240400Y-1216140D01*
X244780Y-1219140D01*
G37*
G36*
X183240Y-1166760D02*
G01*
X200140Y-1166760D01*
X199140Y-1164780D01*
X196140Y-1160400D01*
X192600Y-1156480D01*
X188540Y-1153040D01*
X184080Y-1150200D01*
X183240Y-1149820D01*
G37*
G36*
X283240Y-1166760D02*
G01*
X300160Y-1166760D01*
X298460Y-1163640D01*
X295300Y-1159380D01*
X291620Y-1155560D01*
X287460Y-1152280D01*
X283240Y-1149780D01*
G37*
G36*
X229840Y-1166760D02*
G01*
X246759Y-1166760D01*
X246759Y-1149780D01*
X242540Y-1152280D01*
X238380Y-1155560D01*
X234700Y-1159380D01*
X231540Y-1163640D01*
G37*

%LPD*%
G36*
X685040Y-1927800D02*
G01*
X683360Y-1927420D01*
X681979Y-1926380D01*
X681180Y-1924860D01*
X681100Y-1923140D01*
X681740Y-1921540D01*
X683000Y-1920360D01*
X687460Y-1917720D01*
X691620Y-1914440D01*
X695300Y-1910620D01*
X698460Y-1906360D01*
X701000Y-1901699D01*
X702900Y-1896759D01*
X704140Y-1891600D01*
X704659Y-1886320D01*
X704479Y-1881020D01*
X703600Y-1875800D01*
X702039Y-1870740D01*
X699800Y-1865920D01*
X696960Y-1861459D01*
X693520Y-1857400D01*
X689599Y-1853860D01*
X685220Y-1850860D01*
X682440Y-1849440D01*
X681180Y-1848440D01*
X680400Y-1847040D01*
X679479Y-1844000D01*
X678040Y-1841279D01*
X675960Y-1838760D01*
X663700Y-1826500D01*
X662820Y-1825180D01*
X662520Y-1823640D01*
X662860Y-1822080D01*
X663760Y-1820780D01*
X665080Y-1819940D01*
X667520Y-1819000D01*
X669900Y-1817520D01*
X670920Y-1817080D01*
X672000Y-1816920D01*
X751820Y-1816920D01*
X752920Y-1817080D01*
X753920Y-1817520D01*
X756300Y-1819000D01*
X759440Y-1820200D01*
X762740Y-1820820D01*
X766080Y-1820820D01*
X769380Y-1820200D01*
X772520Y-1819000D01*
X775360Y-1817240D01*
X777840Y-1814960D01*
X779860Y-1812300D01*
X781360Y-1809280D01*
X782280Y-1806060D01*
X782600Y-1802720D01*
X782280Y-1799379D01*
X781360Y-1796160D01*
X779860Y-1793140D01*
X777840Y-1790480D01*
X775360Y-1788200D01*
X772520Y-1786440D01*
X769380Y-1785240D01*
X766080Y-1784620D01*
X762740Y-1784620D01*
X759440Y-1785240D01*
X756300Y-1786440D01*
X753920Y-1787920D01*
X752900Y-1788360D01*
X751820Y-1788520D01*
X672000Y-1788520D01*
X670920Y-1788360D01*
X669900Y-1787920D01*
X667520Y-1786440D01*
X664380Y-1785240D01*
X661080Y-1784620D01*
X657740Y-1784620D01*
X654440Y-1785240D01*
X651300Y-1786440D01*
X648920Y-1787920D01*
X647900Y-1788360D01*
X646820Y-1788520D01*
X567000Y-1788520D01*
X565920Y-1788360D01*
X564900Y-1787920D01*
X562520Y-1786440D01*
X559380Y-1785240D01*
X556080Y-1784620D01*
X552740Y-1784620D01*
X549440Y-1785240D01*
X546300Y-1786440D01*
X543920Y-1787920D01*
X542900Y-1788360D01*
X541820Y-1788520D01*
X463300Y-1788520D01*
X461740Y-1788200D01*
X460439Y-1787300D01*
X459580Y-1785960D01*
X459320Y-1784400D01*
X459680Y-1782860D01*
X460620Y-1781560D01*
X462840Y-1779520D01*
X464860Y-1776860D01*
X466360Y-1773839D01*
X467280Y-1770620D01*
X467600Y-1767280D01*
X467280Y-1763940D01*
X466820Y-1762300D01*
X466680Y-1760840D01*
X467080Y-1759420D01*
X467960Y-1758240D01*
X469219Y-1757480D01*
X470660Y-1757200D01*
X799840Y-1757200D01*
X801860Y-1757040D01*
X804360Y-1756360D01*
X806640Y-1755220D01*
X808780Y-1753480D01*
X815980Y-1746279D01*
X817260Y-1745420D01*
X818800Y-1745120D01*
X820340Y-1745420D01*
X821620Y-1746279D01*
X822500Y-1747580D01*
X822800Y-1749120D01*
X822800Y-1839780D01*
X822540Y-1841200D01*
X821820Y-1842420D01*
X820160Y-1844319D01*
X818880Y-1846540D01*
X818080Y-1848959D01*
X817800Y-1851699D01*
X817800Y-1859860D01*
X817480Y-1861420D01*
X814539Y-1865420D01*
X813040Y-1868440D01*
X812120Y-1871660D01*
X811820Y-1875000D01*
X812120Y-1878340D01*
X813040Y-1881560D01*
X814539Y-1884580D01*
X816560Y-1887240D01*
X819040Y-1889520D01*
X821900Y-1891279D01*
X823080Y-1891740D01*
X824400Y-1892580D01*
X825300Y-1893880D01*
X825620Y-1895420D01*
X825320Y-1896980D01*
X824460Y-1898300D01*
X796120Y-1926620D01*
X794820Y-1927500D01*
X793280Y-1927800D01*
X785040Y-1927800D01*
X783360Y-1927420D01*
X782159Y-1926500D01*
X780780Y-1927500D01*
X779240Y-1927800D01*
X750759Y-1927800D01*
X749220Y-1927500D01*
X747840Y-1926500D01*
X746640Y-1927420D01*
X744960Y-1927800D01*
G37*

%LPC*%
G36*
X783240Y-1920220D02*
G01*
X787460Y-1917720D01*
X791620Y-1914440D01*
X795300Y-1910620D01*
X798460Y-1906360D01*
X800160Y-1903240D01*
X783240Y-1903240D01*
G37*
G36*
X746760Y-1920220D02*
G01*
X746760Y-1903240D01*
X729840Y-1903240D01*
X731540Y-1906360D01*
X734700Y-1910620D01*
X738379Y-1914440D01*
X742540Y-1917720D01*
G37*
G36*
X729820Y-1866759D02*
G01*
X746760Y-1866759D01*
X746760Y-1849860D01*
X744780Y-1850860D01*
X740400Y-1853860D01*
X736480Y-1857400D01*
X733040Y-1861459D01*
X730200Y-1865920D01*
G37*
G36*
X783240Y-1866759D02*
G01*
X800180Y-1866759D01*
X799800Y-1865920D01*
X796960Y-1861459D01*
X793520Y-1857400D01*
X789599Y-1853860D01*
X785220Y-1850860D01*
X783240Y-1849860D01*
G37*

%LPD*%
G36*
X179200Y-2059800D02*
G01*
X177659Y-2059500D01*
X176380Y-2058620D01*
X175500Y-2057340D01*
X175200Y-2055800D01*
X175200Y-1927620D01*
X175500Y-1926100D01*
X176360Y-1924800D01*
X177659Y-1923940D01*
X179180Y-1923620D01*
X254000Y-1923260D01*
X254820Y-1923340D01*
X259720Y-1924340D01*
X265000Y-1924680D01*
X270280Y-1924340D01*
X275480Y-1923280D01*
X280500Y-1921540D01*
X285220Y-1919139D01*
X289600Y-1916140D01*
X293520Y-1912580D01*
X296960Y-1908540D01*
X299800Y-1904079D01*
X302040Y-1899259D01*
X303600Y-1894199D01*
X304480Y-1888980D01*
X304660Y-1883680D01*
X304140Y-1878400D01*
X302900Y-1873240D01*
X301000Y-1868300D01*
X298460Y-1863640D01*
X295300Y-1859379D01*
X291620Y-1855560D01*
X287460Y-1852280D01*
X282900Y-1849580D01*
X278020Y-1847500D01*
X272900Y-1846100D01*
X267660Y-1845400D01*
X262340Y-1845400D01*
X257100Y-1846100D01*
X254880Y-1846720D01*
X253840Y-1846860D01*
X179220Y-1847220D01*
X177680Y-1846920D01*
X176380Y-1846060D01*
X175500Y-1844760D01*
X175200Y-1843220D01*
X175200Y-1827200D01*
X175500Y-1825660D01*
X176380Y-1824379D01*
X177659Y-1823500D01*
X179200Y-1823200D01*
X253740Y-1823200D01*
X254540Y-1823280D01*
X259720Y-1824340D01*
X265000Y-1824680D01*
X270280Y-1824340D01*
X275480Y-1823280D01*
X280500Y-1821540D01*
X285220Y-1819139D01*
X289600Y-1816140D01*
X293520Y-1812580D01*
X296960Y-1808540D01*
X299800Y-1804079D01*
X301920Y-1799520D01*
X302800Y-1798300D01*
X304060Y-1797480D01*
X305540Y-1797200D01*
X313280Y-1797200D01*
X314820Y-1797500D01*
X316120Y-1798380D01*
X321620Y-1803880D01*
X322500Y-1805180D01*
X322800Y-1806720D01*
X322800Y-1869840D01*
X322960Y-1871860D01*
X323640Y-1874360D01*
X324780Y-1876639D01*
X326520Y-1878779D01*
X341260Y-1893520D01*
X342800Y-1894820D01*
X345040Y-1896120D01*
X347460Y-1896920D01*
X350200Y-1897200D01*
X424520Y-1897200D01*
X426079Y-1897520D01*
X427400Y-1898420D01*
X428260Y-1899760D01*
X429000Y-1901699D01*
X431540Y-1906360D01*
X434700Y-1910620D01*
X438380Y-1914440D01*
X442540Y-1917720D01*
X447000Y-1920360D01*
X448260Y-1921540D01*
X448900Y-1923140D01*
X448820Y-1924860D01*
X448020Y-1926380D01*
X446640Y-1927420D01*
X444960Y-1927800D01*
X370040Y-1927800D01*
X368600Y-1927520D01*
X367340Y-1926759D01*
X365959Y-1925480D01*
X363100Y-1923720D01*
X359980Y-1922520D01*
X356680Y-1921900D01*
X353320Y-1921900D01*
X350020Y-1922520D01*
X346900Y-1923720D01*
X344040Y-1925480D01*
X341560Y-1927760D01*
X339540Y-1930420D01*
X338040Y-1933440D01*
X337120Y-1936660D01*
X336820Y-1940000D01*
X337120Y-1943340D01*
X338040Y-1946560D01*
X339540Y-1949580D01*
X341560Y-1952240D01*
X344040Y-1954520D01*
X346900Y-1956279D01*
X350020Y-1957480D01*
X353720Y-1958180D01*
X355300Y-1958839D01*
X356460Y-1960100D01*
X356980Y-1961740D01*
X357120Y-1963340D01*
X358040Y-1966560D01*
X359540Y-1969580D01*
X361560Y-1972240D01*
X364040Y-1974520D01*
X366900Y-1976279D01*
X370020Y-1977480D01*
X373320Y-1978100D01*
X376680Y-1978100D01*
X379980Y-1977480D01*
X383100Y-1976279D01*
X385959Y-1974520D01*
X387340Y-1973240D01*
X388600Y-1972480D01*
X390040Y-1972200D01*
X471300Y-1972200D01*
X472840Y-1972500D01*
X474140Y-1973380D01*
X475000Y-1974660D01*
X475300Y-1976200D01*
X475300Y-2036260D01*
X475540Y-2038320D01*
X476140Y-2040040D01*
X477120Y-2041579D01*
X478400Y-2042880D01*
X479960Y-2043860D01*
X481680Y-2044460D01*
X483720Y-2044700D01*
X546280Y-2044700D01*
X548320Y-2044460D01*
X550040Y-2043860D01*
X551600Y-2042880D01*
X552880Y-2041579D01*
X553860Y-2040040D01*
X554460Y-2038320D01*
X554700Y-2036260D01*
X554700Y-1976200D01*
X555000Y-1974660D01*
X555860Y-1973380D01*
X557160Y-1972500D01*
X558700Y-1972200D01*
X582260Y-1972200D01*
X583760Y-1972500D01*
X585040Y-1973320D01*
X585920Y-1974580D01*
X586260Y-1976060D01*
X586020Y-1977580D01*
X585220Y-1978880D01*
X583860Y-1980400D01*
X580860Y-1984780D01*
X579860Y-1986740D01*
X596760Y-1986740D01*
X596760Y-1976200D01*
X597060Y-1974660D01*
X597920Y-1973380D01*
X599220Y-1972500D01*
X600760Y-1972200D01*
X629240Y-1972200D01*
X630780Y-1972500D01*
X632080Y-1973380D01*
X632940Y-1974660D01*
X633240Y-1976200D01*
X633240Y-1986740D01*
X650220Y-1986740D01*
X647720Y-1982540D01*
X644680Y-1978680D01*
X643900Y-1977080D01*
X643920Y-1975300D01*
X644700Y-1973700D01*
X646080Y-1972600D01*
X647820Y-1972200D01*
X682260Y-1972200D01*
X683760Y-1972500D01*
X685040Y-1973320D01*
X685920Y-1974580D01*
X686260Y-1976060D01*
X686020Y-1977580D01*
X685220Y-1978880D01*
X683860Y-1980400D01*
X680860Y-1984780D01*
X678460Y-1989500D01*
X676720Y-1994520D01*
X675660Y-1999700D01*
X675320Y-2005000D01*
X675660Y-2010280D01*
X676720Y-2015480D01*
X678460Y-2020480D01*
X680860Y-2025220D01*
X683860Y-2029600D01*
X687400Y-2033520D01*
X691460Y-2036940D01*
X695920Y-2039800D01*
X700740Y-2042040D01*
X705800Y-2043600D01*
X711020Y-2044480D01*
X716320Y-2044660D01*
X721600Y-2044139D01*
X726760Y-2042900D01*
X731700Y-2041000D01*
X736360Y-2038440D01*
X740620Y-2035300D01*
X744440Y-2031620D01*
X747720Y-2027460D01*
X750420Y-2022900D01*
X752500Y-2018020D01*
X753900Y-2012900D01*
X754599Y-2007640D01*
X754599Y-2002340D01*
X753900Y-1997100D01*
X752500Y-1991980D01*
X750420Y-1987100D01*
X747720Y-1982540D01*
X744680Y-1978680D01*
X743900Y-1977080D01*
X743920Y-1975300D01*
X744700Y-1973700D01*
X746080Y-1972600D01*
X747820Y-1972200D01*
X804840Y-1972200D01*
X806860Y-1972040D01*
X809360Y-1971360D01*
X811640Y-1970220D01*
X813780Y-1968480D01*
X873520Y-1908740D01*
X874820Y-1907200D01*
X876120Y-1904960D01*
X876919Y-1902540D01*
X877200Y-1899800D01*
X877200Y-1495160D01*
X877039Y-1493140D01*
X876360Y-1490640D01*
X875220Y-1488360D01*
X873480Y-1486220D01*
X838740Y-1451480D01*
X837200Y-1450180D01*
X834960Y-1448880D01*
X832540Y-1448080D01*
X829800Y-1447800D01*
X656720Y-1447800D01*
X655180Y-1447500D01*
X653880Y-1446620D01*
X648379Y-1441120D01*
X647500Y-1439820D01*
X647200Y-1438280D01*
X647200Y-1190300D01*
X647500Y-1188780D01*
X648340Y-1187500D01*
X649620Y-1186620D01*
X651120Y-1186300D01*
X652640Y-1186560D01*
X655020Y-1187480D01*
X658319Y-1188100D01*
X661680Y-1188100D01*
X664980Y-1187480D01*
X668100Y-1186280D01*
X670960Y-1184520D01*
X673439Y-1182240D01*
X675460Y-1179580D01*
X676960Y-1176560D01*
X677880Y-1173340D01*
X678180Y-1170000D01*
X677880Y-1166660D01*
X676960Y-1163440D01*
X675460Y-1160420D01*
X672520Y-1156420D01*
X672200Y-1154860D01*
X672200Y-1126720D01*
X672500Y-1125180D01*
X673379Y-1123880D01*
X676660Y-1120580D01*
X677920Y-1119740D01*
X679380Y-1119420D01*
X680879Y-1119660D01*
X682159Y-1120440D01*
X683080Y-1121640D01*
X684539Y-1124580D01*
X686560Y-1127240D01*
X689040Y-1129520D01*
X691900Y-1131280D01*
X695020Y-1132480D01*
X698319Y-1133100D01*
X701680Y-1133100D01*
X704980Y-1132480D01*
X708100Y-1131280D01*
X710960Y-1129520D01*
X712340Y-1128240D01*
X713600Y-1127480D01*
X715040Y-1127200D01*
X736500Y-1127200D01*
X738020Y-1127500D01*
X739320Y-1128380D01*
X741620Y-1130680D01*
X742500Y-1131980D01*
X742800Y-1133500D01*
X742800Y-1219840D01*
X742960Y-1221860D01*
X743640Y-1224360D01*
X744780Y-1226640D01*
X746520Y-1228780D01*
X756260Y-1238520D01*
X757800Y-1239820D01*
X760040Y-1241120D01*
X762460Y-1241920D01*
X765200Y-1242200D01*
X878280Y-1242200D01*
X879820Y-1242500D01*
X881120Y-1243380D01*
X891620Y-1253880D01*
X892500Y-1255180D01*
X892800Y-1256720D01*
X892800Y-1948280D01*
X892500Y-1949820D01*
X891620Y-1951120D01*
X882020Y-1960720D01*
X880720Y-1961600D01*
X879200Y-1961900D01*
X878319Y-1961900D01*
X875020Y-1962520D01*
X871900Y-1963720D01*
X869040Y-1965480D01*
X866560Y-1967760D01*
X864539Y-1970420D01*
X863040Y-1973440D01*
X862120Y-1976660D01*
X861820Y-1980000D01*
X862120Y-1983340D01*
X863040Y-1986560D01*
X864539Y-1989580D01*
X866560Y-1992240D01*
X869040Y-1994520D01*
X871900Y-1996279D01*
X875020Y-1997480D01*
X878319Y-1998100D01*
X881680Y-1998100D01*
X884980Y-1997480D01*
X888100Y-1996279D01*
X890960Y-1994520D01*
X893439Y-1992240D01*
X895460Y-1989580D01*
X896960Y-1986560D01*
X897880Y-1983340D01*
X898139Y-1980420D01*
X898500Y-1979079D01*
X899300Y-1977960D01*
X913520Y-1963740D01*
X914820Y-1962200D01*
X916120Y-1959960D01*
X916919Y-1957540D01*
X917200Y-1954800D01*
X917200Y-1494120D01*
X917500Y-1492580D01*
X918379Y-1491279D01*
X919659Y-1490420D01*
X921200Y-1490120D01*
X922740Y-1490420D01*
X924020Y-1491279D01*
X925440Y-1492700D01*
X926040Y-1493460D01*
X926440Y-1494340D01*
X927960Y-1499259D01*
X930200Y-1504079D01*
X933040Y-1508540D01*
X936480Y-1512580D01*
X940400Y-1516140D01*
X944780Y-1519139D01*
X949500Y-1521540D01*
X954520Y-1523280D01*
X959700Y-1524340D01*
X965000Y-1524680D01*
X970280Y-1524340D01*
X975819Y-1523200D01*
X976600Y-1523120D01*
X1056260Y-1522500D01*
X1057800Y-1522800D01*
X1059120Y-1523660D01*
X1060000Y-1524980D01*
X1060300Y-1526500D01*
X1060300Y-1542100D01*
X1060000Y-1543640D01*
X1059140Y-1544920D01*
X1057860Y-1545800D01*
X1056340Y-1546100D01*
X975699Y-1546720D01*
X974620Y-1546579D01*
X972900Y-1546100D01*
X967640Y-1545400D01*
X962340Y-1545400D01*
X957099Y-1546100D01*
X951979Y-1547500D01*
X947099Y-1549580D01*
X942540Y-1552280D01*
X938379Y-1555560D01*
X934700Y-1559379D01*
X931540Y-1563640D01*
X929000Y-1568300D01*
X927099Y-1573240D01*
X925860Y-1578400D01*
X925340Y-1583680D01*
X925520Y-1588980D01*
X926400Y-1594199D01*
X927960Y-1599259D01*
X930200Y-1604079D01*
X933040Y-1608540D01*
X936480Y-1612580D01*
X940400Y-1616140D01*
X944780Y-1619139D01*
X949500Y-1621540D01*
X954520Y-1623280D01*
X959700Y-1624340D01*
X965000Y-1624680D01*
X970280Y-1624340D01*
X975819Y-1623200D01*
X976600Y-1623120D01*
X1056260Y-1622500D01*
X1057800Y-1622800D01*
X1059120Y-1623660D01*
X1060000Y-1624980D01*
X1060300Y-1626500D01*
X1060300Y-1742100D01*
X1060000Y-1743640D01*
X1059140Y-1744920D01*
X1057860Y-1745800D01*
X1056340Y-1746100D01*
X975699Y-1746720D01*
X974620Y-1746579D01*
X972900Y-1746100D01*
X967640Y-1745400D01*
X962340Y-1745400D01*
X957099Y-1746100D01*
X951979Y-1747500D01*
X947099Y-1749580D01*
X942540Y-1752280D01*
X938379Y-1755560D01*
X934700Y-1759379D01*
X931540Y-1763640D01*
X929000Y-1768300D01*
X927099Y-1773240D01*
X925860Y-1778400D01*
X925340Y-1783680D01*
X925520Y-1788980D01*
X926400Y-1794199D01*
X927960Y-1799259D01*
X930200Y-1804079D01*
X933040Y-1808540D01*
X936480Y-1812580D01*
X940400Y-1816140D01*
X944780Y-1819139D01*
X949500Y-1821540D01*
X954520Y-1823280D01*
X959700Y-1824340D01*
X965000Y-1824680D01*
X970280Y-1824340D01*
X975819Y-1823200D01*
X976600Y-1823120D01*
X1056260Y-1822500D01*
X1057800Y-1822800D01*
X1059120Y-1823660D01*
X1060000Y-1824980D01*
X1060300Y-1826500D01*
X1060300Y-1842100D01*
X1060000Y-1843640D01*
X1059140Y-1844920D01*
X1057860Y-1845800D01*
X1056340Y-1846100D01*
X975699Y-1846720D01*
X974620Y-1846579D01*
X972900Y-1846100D01*
X967640Y-1845400D01*
X962340Y-1845400D01*
X957099Y-1846100D01*
X951979Y-1847500D01*
X947099Y-1849580D01*
X942540Y-1852280D01*
X938379Y-1855560D01*
X934700Y-1859379D01*
X931540Y-1863640D01*
X929000Y-1868300D01*
X927099Y-1873240D01*
X925860Y-1878400D01*
X925340Y-1883680D01*
X925520Y-1888980D01*
X926400Y-1894199D01*
X927960Y-1899259D01*
X930200Y-1904079D01*
X933040Y-1908540D01*
X936480Y-1912580D01*
X940400Y-1916140D01*
X944780Y-1919139D01*
X949500Y-1921540D01*
X954520Y-1923280D01*
X959700Y-1924340D01*
X965000Y-1924680D01*
X970280Y-1924340D01*
X975819Y-1923200D01*
X976600Y-1923120D01*
X1056260Y-1922500D01*
X1057800Y-1922800D01*
X1059120Y-1923660D01*
X1060000Y-1924980D01*
X1060300Y-1926500D01*
X1060300Y-2055800D01*
X1060000Y-2057340D01*
X1059120Y-2058620D01*
X1057840Y-2059500D01*
X1056300Y-2059800D01*
G37*

%LPC*%
G36*
X596760Y-2040180D02*
G01*
X596760Y-2023240D01*
X579860Y-2023240D01*
X580860Y-2025220D01*
X583860Y-2029600D01*
X587400Y-2033520D01*
X591460Y-2036940D01*
X595920Y-2039800D01*
G37*
G36*
X633240Y-2040160D02*
G01*
X636360Y-2038440D01*
X640620Y-2035300D01*
X644440Y-2031620D01*
X647720Y-2027460D01*
X650220Y-2023240D01*
X633240Y-2023240D01*
G37*
G36*
X983240Y-1720140D02*
G01*
X985220Y-1719139D01*
X989599Y-1716140D01*
X993520Y-1712580D01*
X996940Y-1708540D01*
X999800Y-1704079D01*
X1000180Y-1703240D01*
X983240Y-1703240D01*
G37*
G36*
X946760Y-1720140D02*
G01*
X946760Y-1703240D01*
X929820Y-1703240D01*
X930200Y-1704079D01*
X933040Y-1708540D01*
X936480Y-1712580D01*
X940400Y-1716140D01*
X944780Y-1719139D01*
G37*
G36*
X1052260Y-1719319D02*
G01*
X1052260Y-1702420D01*
X1035280Y-1702420D01*
X1037780Y-1706639D01*
X1041060Y-1710800D01*
X1044880Y-1714480D01*
X1049140Y-1717620D01*
G37*
G36*
X983240Y-1666759D02*
G01*
X1000160Y-1666759D01*
X998439Y-1663640D01*
X995300Y-1659379D01*
X991620Y-1655560D01*
X987460Y-1652280D01*
X983240Y-1649780D01*
G37*
G36*
X929840Y-1666759D02*
G01*
X946760Y-1666759D01*
X946760Y-1649780D01*
X942540Y-1652280D01*
X938379Y-1655560D01*
X934700Y-1659379D01*
X931540Y-1663640D01*
G37*
G36*
X1035280Y-1665920D02*
G01*
X1052260Y-1665920D01*
X1052260Y-1649019D01*
X1049140Y-1650720D01*
X1044880Y-1653860D01*
X1041060Y-1657560D01*
X1037780Y-1661720D01*
G37*

%LPD*%
D10*
X815000Y-585000D02*
G01*
X769409Y-585000D01*
X745000Y-560590D01*
X635000Y-1165000D02*
G01*
X635000Y-1445000D01*
X650000Y-1460000D01*
X830000Y-1460000D01*
X865000Y-1495000D01*
X865000Y-1900000D01*
X805000Y-1960000D01*
X375000Y-1960000D01*
X880000Y-1980000D02*
G01*
X905000Y-1955000D01*
X905000Y-1250000D01*
X885000Y-1230000D01*
X765000Y-1230000D01*
X755000Y-1220000D01*
X755000Y-1126799D01*
X743200Y-1115000D01*
X700000Y-1115000D01*
X660000Y-1170000D02*
G01*
X660000Y-1120000D01*
X701999Y-1078000D01*
X866999Y-1078000D01*
X960000Y-985000D01*
X965000Y-985000D01*
X775000Y-509409D02*
G01*
X895590Y-509409D01*
X920000Y-485000D01*
X920000Y-330000D01*
X965000Y-285000D01*
D11*
X450000Y-385000D02*
G01*
X420000Y-415000D01*
X420000Y-760199D01*
X420000Y-1475000D01*
X375000Y-1520000D01*
X375000Y-1820000D01*
X390000Y-1835000D01*
X650000Y-1835000D01*
X665000Y-1850000D01*
X665000Y-1885000D01*
D12*
X449400Y-1802899D02*
G01*
X375000Y-1802899D01*
D10*
X396799Y-918000D02*
G01*
X390000Y-911199D01*
X390000Y-850000D01*
X395000Y-845000D01*
X395000Y-15000D01*
X365000Y15000D01*
X265000Y15000D01*
X390000Y-945000D02*
G01*
X385000Y-945000D01*
X375000Y-935000D01*
X375000Y-845000D01*
X380000Y-840000D01*
X380000Y-100000D01*
X365000Y-85000D01*
X265000Y-85000D01*
X265000Y-285000D02*
G01*
X325000Y-285000D01*
X365000Y-325000D01*
X365000Y-835000D01*
X360000Y-840000D01*
X360000Y-955000D01*
X375000Y-970000D01*
X383000Y-1001999D02*
G01*
X366999Y-1001999D01*
X345000Y-980000D01*
X345000Y-835000D01*
X350000Y-830000D01*
X350000Y-430000D01*
X305000Y-385000D01*
X265000Y-385000D01*
X265000Y-485000D02*
G01*
X310000Y-485000D01*
X335000Y-510000D01*
X335000Y-825000D01*
X330000Y-830000D01*
X330000Y-1035000D01*
X344099Y-1049099D01*
X379200Y-1049099D01*
X361599Y-1071799D02*
G01*
X336799Y-1071799D01*
X315000Y-1050000D01*
X315000Y-825000D01*
X320000Y-820000D01*
X320000Y-605000D01*
X300000Y-585000D01*
X265000Y-585000D01*
D13*
X965000Y15000D02*
G01*
X1070500Y15799D01*
X965000Y-85000D02*
G01*
X1070500Y-84200D01*
X965000Y-1085000D02*
G01*
X1070500Y-1084200D01*
X965000Y-1285000D02*
G01*
X1070500Y-1284200D01*
X965000Y-1385000D02*
G01*
X1070500Y-1384200D01*
X965000Y-1485000D02*
G01*
X1070500Y-1484200D01*
X965000Y-1585000D02*
G01*
X1070500Y-1584200D01*
X965000Y-1785000D02*
G01*
X1070500Y-1784200D01*
X965000Y-1885000D02*
G01*
X1070500Y-1884200D01*
X265000Y-1885000D02*
G01*
X165000Y-1885500D01*
X265000Y-1785000D02*
G01*
X165000Y-1785000D01*
X265000Y-1585000D02*
G01*
X165000Y-1585000D01*
X265000Y-1485000D02*
G01*
X165000Y-1485000D01*
X265000Y-1385000D02*
G01*
X165000Y-1385000D01*
X265000Y-1285000D02*
G01*
X165000Y-1285000D01*
X265000Y-1085000D02*
G01*
X165000Y-1085000D01*
X265000Y-985000D02*
G01*
X165000Y-985000D01*
X265000Y-885000D02*
G01*
X165000Y-885000D01*
X265000Y-785000D02*
G01*
X165000Y-785000D01*
X265000Y-585000D02*
G01*
X165000Y-585000D01*
X265000Y-485000D02*
G01*
X165000Y-485000D01*
X265000Y-385000D02*
G01*
X165000Y-385000D01*
X265000Y-285000D02*
G01*
X165000Y-285000D01*
X265000Y-85000D02*
G01*
X165000Y-85000D01*
X265000Y15000D02*
G01*
X165000Y15000D01*
D10*
X785000Y-1205000D02*
G01*
X900000Y-1205000D01*
X920000Y-1225000D01*
X920000Y-1470000D01*
X935000Y-1485000D01*
X965000Y-1485000D01*
X815599Y-1717699D02*
G01*
X815599Y-1729400D01*
X800000Y-1745000D01*
X460000Y-1745000D01*
X449400Y-1755599D01*
X449400Y-1767300D01*
X815599Y-1632699D02*
G01*
X815599Y-1644400D01*
X803600Y-1656399D01*
X460999Y-1656399D01*
X450000Y-1667399D01*
X450000Y-1682300D01*
X815599Y-1547699D02*
G01*
X815599Y-1559400D01*
X804299Y-1570700D01*
X459299Y-1570700D01*
X450000Y-1580000D01*
X449400Y-1597300D01*
D12*
X659409Y-1547719D02*
G01*
X764409Y-1547721D01*
X554409Y-1632721D02*
G01*
X659409Y-1632719D01*
X659409Y-1632719D02*
G01*
X764409Y-1632721D01*
X554409Y-1717721D02*
G01*
X659409Y-1717719D01*
X659409Y-1717719D02*
G01*
X764409Y-1717721D01*
X554409Y-1802721D02*
G01*
X659409Y-1802719D01*
X659409Y-1802719D02*
G01*
X764409Y-1802721D01*
D10*
X802559Y-1132240D02*
G01*
X927759Y-1132240D01*
X964994Y-1095005D01*
X964994Y-1085000D01*
D12*
X554409Y-1547721D02*
G01*
X659409Y-1547719D01*
X449409Y-1547721D02*
G01*
X554409Y-1547721D01*
X449409Y-1717721D02*
G01*
X554409Y-1717721D01*
X449409Y-1802721D02*
G01*
X554409Y-1802721D01*
D11*
X840000Y-735000D02*
G01*
X840000Y-860000D01*
X820000Y-880000D01*
X820000Y-935000D01*
D14*
X625000Y-965000D02*
G01*
X500000Y-965000D01*
X490000Y-975000D01*
X490000Y-1005000D01*
D11*
X680000Y-385000D02*
G01*
X450000Y-385000D01*
D12*
X449409Y-1632721D02*
G01*
X554409Y-1632721D01*
X449400Y-1547699D02*
G01*
X375000Y-1547699D01*
X449400Y-1633000D02*
G01*
X375000Y-1633000D01*
X449400Y-1717899D02*
G01*
X375000Y-1717899D01*
D14*
X695000Y-1050000D02*
G01*
X682699Y-1050000D01*
X670000Y-1037300D01*
X670000Y-975000D01*
X660000Y-965000D01*
X625000Y-965000D01*
D10*
X610000Y-1170000D02*
G01*
X615000Y-1175000D01*
X615000Y-1445000D01*
X645000Y-1475000D01*
X825000Y-1475000D01*
X850000Y-1500000D01*
X850000Y-1890000D01*
X800000Y-1940000D01*
X355000Y-1940000D01*
X830000Y-1875000D02*
G01*
X830000Y-1851500D01*
X835000Y-1846500D01*
X835000Y-1505000D01*
X820000Y-1490000D01*
X485000Y-1490000D01*
X469499Y-1474499D01*
X469499Y-1435000D01*
X465000Y-1885000D02*
G01*
X350000Y-1885000D01*
X335000Y-1870000D01*
X335000Y-1800000D01*
X320000Y-1785000D01*
X265000Y-1785000D01*
D14*
X490000Y-1100000D02*
G01*
X490000Y-1160000D01*
X500000Y-1170000D01*
X575000Y-1170000D01*
D10*
X570000Y-280000D02*
G01*
X568400Y-280000D01*
X550000Y-261599D01*
X550000Y-220000D01*
X565000Y-205000D01*
X735000Y-205000D01*
X755000Y-225000D01*
X895000Y-225000D01*
X911999Y-241999D01*
X996999Y-241999D01*
X1010000Y-255000D01*
X1010000Y-965000D01*
X990000Y-985000D01*
X965000Y-985000D01*
X800000Y-184499D02*
G01*
X879499Y-184499D01*
X921999Y-226999D01*
X1008000Y-226999D01*
X1026999Y-245999D01*
X1026999Y-998000D01*
X995000Y-1030000D01*
X945000Y-1030000D01*
X874000Y-1100999D01*
X778000Y-1100999D01*
X695000Y-505000D02*
G01*
X695000Y-500866D01*
X740000Y-455866D01*
X740000Y-285000D01*
X720000Y-267500D01*
X695000Y-1015000D02*
G01*
X725000Y-1015000D01*
X770000Y-1060000D01*
X855000Y-1060000D01*
X920000Y-995000D01*
X920000Y-905000D01*
X940000Y-885000D01*
X965000Y-885000D01*
X770000Y-1025000D02*
G01*
X790000Y-1045000D01*
X845000Y-1045000D01*
X905000Y-985000D01*
X905000Y-810000D01*
X930000Y-785000D01*
X965000Y-785000D01*
X700000Y-985000D02*
G01*
X760000Y-985000D01*
X790000Y-1015000D01*
X825000Y-1015000D01*
X840000Y-1000000D01*
X840000Y-980000D01*
X825000Y-965000D01*
X805000Y-965000D01*
X790000Y-950000D01*
X790000Y-860000D01*
X805000Y-845000D01*
X805000Y-690000D01*
X850000Y-645000D01*
X850000Y-600000D01*
X865000Y-585000D01*
X965000Y-585000D01*
X775000Y-509400D02*
G01*
X765599Y-509400D01*
X710000Y-565000D01*
X710000Y-910000D01*
X795000Y-995000D01*
X815000Y-995000D01*
D16*
G01*
X965000Y-1885000D03*
G01*
X965000Y-1785000D03*
G01*
X965000Y-1685000D03*
G01*
X965000Y-1585000D03*
G01*
X965000Y-1485000D03*
G01*
X965000Y-1385000D03*
G01*
X965000Y-1285000D03*
G01*
X965000Y-1185000D03*
G01*
X965000Y-1085000D03*
G01*
X965000Y-985000D03*
G01*
X965000Y-885000D03*
G01*
X965000Y-785000D03*
G01*
X965000Y-685000D03*
G01*
X965000Y-585000D03*
G01*
X965000Y-485000D03*
G01*
X965000Y-385000D03*
G01*
X965000Y-285000D03*
G01*
X965000Y-185000D03*
G01*
X965000Y-85000D03*
D17*
G01*
X965000Y15000D03*
G01*
X515000Y-2005000D03*
D16*
G01*
X615000Y-2005000D03*
G01*
X715000Y-2005000D03*
G01*
X265000Y-1885000D03*
G01*
X265000Y-1785000D03*
G01*
X265000Y-1685000D03*
G01*
X265000Y-1585000D03*
G01*
X265000Y-1485000D03*
G01*
X265000Y-1385000D03*
G01*
X265000Y-1285000D03*
G01*
X265000Y-1185000D03*
G01*
X265000Y-1085000D03*
G01*
X265000Y-985000D03*
G01*
X265000Y-885000D03*
G01*
X265000Y-785000D03*
G01*
X265000Y-685000D03*
G01*
X265000Y-585000D03*
G01*
X265000Y-485000D03*
G01*
X265000Y-385000D03*
G01*
X265000Y-285000D03*
G01*
X265000Y-185000D03*
G01*
X265000Y-85000D03*
D17*
G01*
X265000Y15000D03*
D18*
G01*
X516570Y-73150D03*
G01*
X713420Y-73150D03*
D19*
G01*
X752790Y33150D03*
G01*
X477199Y33150D03*
D16*
G01*
X165000Y15000D03*
G01*
X165000Y-85000D03*
G01*
X165000Y-185000D03*
G01*
X165000Y-285000D03*
G01*
X165000Y-385000D03*
G01*
X165000Y-485000D03*
G01*
X165000Y-585000D03*
G01*
X165000Y-685000D03*
G01*
X165000Y-785000D03*
G01*
X165000Y-885000D03*
G01*
X165000Y-985000D03*
G01*
X165000Y-1085000D03*
G01*
X165000Y-1185000D03*
G01*
X165000Y-1285000D03*
G01*
X165000Y-1385000D03*
G01*
X165000Y-1485000D03*
G01*
X165000Y-1585000D03*
G01*
X165000Y-1685000D03*
G01*
X165000Y-1785000D03*
G01*
X165000Y-1885489D03*
G01*
X1070500Y15830D03*
G01*
X1070500Y-84169D03*
G01*
X1070500Y-184169D03*
G01*
X1070500Y-284169D03*
G01*
X1070500Y-384169D03*
G01*
X1070500Y-484169D03*
G01*
X1070500Y-584169D03*
G01*
X1070500Y-684169D03*
G01*
X1070500Y-784169D03*
G01*
X1070500Y-884169D03*
G01*
X1070500Y-984169D03*
G01*
X1070500Y-1084169D03*
G01*
X1070500Y-1184169D03*
G01*
X1070500Y-1284169D03*
G01*
X1070500Y-1384169D03*
G01*
X1070500Y-1484169D03*
G01*
X1070500Y-1584169D03*
G01*
X1070500Y-1684169D03*
G01*
X1070500Y-1784169D03*
G01*
X1070500Y-1884169D03*
G01*
X765000Y-1885000D03*
G01*
X665000Y-1885000D03*
G01*
X565000Y-1885000D03*
G01*
X465000Y-1885000D03*
D20*
G01*
X396840Y-918040D03*
G01*
X390000Y-945000D03*
G01*
X375000Y-970000D03*
G01*
X383000Y-1001999D03*
G01*
X361559Y-1071759D03*
G01*
X379200Y-1049079D03*
G01*
X695000Y-1015000D03*
G01*
X770000Y-1025000D03*
G01*
X700000Y-985000D03*
G01*
X815000Y-995000D03*
G01*
X802559Y-1132240D03*
G01*
X785000Y-1205000D03*
D21*
G01*
X449409Y-1547719D03*
G01*
X554409Y-1547719D03*
G01*
X659409Y-1547719D03*
G01*
X764409Y-1547719D03*
G01*
X764409Y-1632719D03*
G01*
X659409Y-1632719D03*
G01*
X554409Y-1632719D03*
G01*
X449409Y-1632719D03*
G01*
X449409Y-1717719D03*
G01*
X554409Y-1717719D03*
G01*
X659409Y-1717719D03*
G01*
X764409Y-1717719D03*
G01*
X764409Y-1802719D03*
G01*
X659409Y-1802719D03*
G01*
X554409Y-1802719D03*
G01*
X449409Y-1802719D03*
D20*
G01*
X660000Y-1170000D03*
G01*
X700000Y-1115000D03*
G01*
X880000Y-1980000D03*
G01*
X610000Y-1170000D03*
G01*
X635000Y-1165000D03*
G01*
X375000Y-1960000D03*
G01*
X355000Y-1940000D03*
D21*
G01*
X815590Y-1547719D03*
G01*
X449409Y-1597280D03*
G01*
X815590Y-1632719D03*
G01*
X449409Y-1682289D03*
G01*
X815590Y-1717719D03*
G01*
X449409Y-1767280D03*
D20*
G01*
X469510Y-1435000D03*
G01*
X830000Y-1875000D03*
G01*
X720000Y-265000D03*
G01*
X695000Y-505000D03*
G01*
X815000Y-585000D03*
G01*
X745000Y-560590D03*
G01*
X775000Y-509409D03*
G01*
X680000Y-385000D03*
G01*
X450000Y-385000D03*
G01*
X840000Y-735000D03*
G01*
X820000Y-935000D03*
G01*
X695000Y-1050000D03*
G01*
X625000Y-965000D03*
G01*
X490000Y-1005000D03*
G01*
X575000Y-1170000D03*
G01*
X490000Y-1100000D03*
D21*
G01*
X595000Y-1025000D03*
G01*
X595000Y-1110000D03*
G01*
X595000Y-1070000D03*
G01*
X550000Y-1070000D03*
G01*
X640000Y-1070000D03*
D22*
G01*
X765000Y-1375000D03*
G01*
X780000Y-1425000D03*
G01*
X845000Y-1265000D03*
G01*
X825000Y-1425000D03*
G01*
X215000Y-1965000D03*
G01*
X215000Y-2025000D03*
G01*
X265000Y-2025000D03*
G01*
X315000Y-2025000D03*
G01*
X1025000Y-2030000D03*
G01*
X975000Y-2030000D03*
G01*
X925000Y-2030000D03*
G01*
X1025000Y-1965000D03*
G01*
X775000Y-690000D03*
G01*
X755000Y-650000D03*
G01*
X675000Y-650000D03*
G01*
X800000Y-650000D03*
G01*
X495000Y-510000D03*
G01*
X495000Y-545000D03*
D21*
G01*
X465000Y-610000D03*
G01*
X465000Y-665000D03*
D22*
G01*
X565000Y35000D03*
G01*
X665000Y35000D03*
G01*
X755000Y-735000D03*
G01*
X380000Y-1460000D03*
G01*
X675000Y-170000D03*
G01*
X675000Y-240000D03*
G01*
X675000Y-320000D03*
G01*
X675000Y-455000D03*
G01*
X590000Y-320000D03*
G01*
X590000Y-240000D03*
G01*
X590000Y-170000D03*
G01*
X590000Y-435000D03*
G01*
X800000Y-310000D03*
G01*
X760000Y-115000D03*
G01*
X880000Y-265000D03*
G01*
X800000Y-140000D03*
G01*
X910000Y-135000D03*
G01*
X590000Y-580000D03*
G01*
X890000Y55000D03*
G01*
X340000Y55000D03*
G01*
X405000Y55000D03*
G01*
X825000Y55000D03*
G01*
X810000Y-1375000D03*
D20*
G01*
X778000Y-1100999D03*
G01*
X800000Y-184510D03*
G01*
X570000Y-280000D03*
D22*
G01*
X880000Y-440000D03*
G01*
X880000Y-545000D03*
G01*
X875000Y-1295000D03*
G01*
X880000Y-665000D03*
G01*
X880000Y-760000D03*
G01*
X675000Y-545000D03*
G01*
X800000Y-345000D03*
G01*
X340000Y-1190000D03*
M02*
